<svg xmlns="http://www.w3.org/2000/svg" xmlns:xlink="http://www.w3.org/1999/xlink" width="500" zoomAndPan="magnify" viewBox="0 0 375 374.999991" height="500" preserveAspectRatio="xMidYMid meet" version="1.0"><defs><g/><clipPath id="3100936b47"><path d="M 129 108.609375 L 250 108.609375 L 250 232 L 129 232 Z M 129 108.609375 " clip-rule="nonzero"/></clipPath><clipPath id="1ac38a0672"><path d="M 199 127 L 226 127 L 226 152 L 199 152 Z M 199 127 " clip-rule="nonzero"/></clipPath><clipPath id="f2b040fcda"><path d="M 197.855469 122.71875 L 232.800781 131.355469 L 226.6875 156.109375 L 191.738281 147.472656 Z M 197.855469 122.71875 " clip-rule="nonzero"/></clipPath><clipPath id="351a759e1f"><path d="M 197.855469 122.71875 L 232.800781 131.355469 L 226.6875 156.109375 L 191.738281 147.472656 Z M 197.855469 122.71875 " clip-rule="nonzero"/></clipPath><clipPath id="a2ddcf5b4c"><path d="M 208 174 L 236 174 L 236 198 L 208 198 Z M 208 174 " clip-rule="nonzero"/></clipPath><clipPath id="9ab0a8059f"><path d="M 207.75 169.414062 L 242.699219 178.050781 L 236.582031 202.808594 L 201.632812 194.171875 Z M 207.75 169.414062 " clip-rule="nonzero"/></clipPath><clipPath id="e46703c653"><path d="M 207.75 169.414062 L 242.699219 178.050781 L 236.582031 202.808594 L 201.632812 194.171875 Z M 207.75 169.414062 " clip-rule="nonzero"/></clipPath></defs><g clip-path="url(#3100936b47)"><path fill="#518ac0" d="M 191.828125 157.792969 C 191.816406 157.753906 188.222656 145.132812 170.132812 146.679688 C 169.78125 146.707031 169.46875 146.738281 169.191406 146.769531 C 160.453125 147.75 153.566406 151.824219 149.019531 157.339844 C 144.480469 162.839844 142.261719 169.777344 142.835938 176.507812 C 142.855469 176.753906 142.878906 176.964844 142.898438 177.144531 C 143.214844 179.980469 144.03125 183.195312 145.378906 186.417969 C 147.523438 191.539062 151.007812 196.65625 155.960938 200.257812 C 160.894531 203.84375 167.308594 205.929688 175.34375 205.03125 C 178.9375 204.625 182.867188 203.625 187.132812 201.890625 L 187.15625 201.726562 C 187.171875 201.617188 187.191406 201.5 187.210938 201.371094 L 187.214844 201.335938 L 187.238281 201.199219 L 187.253906 201.089844 L 187.273438 200.984375 L 187.300781 200.835938 L 187.320312 200.726562 L 187.347656 200.5625 L 187.367188 200.464844 L 187.40625 200.265625 L 187.425781 200.175781 L 187.472656 199.941406 L 187.488281 199.878906 C 187.53125 199.667969 187.582031 199.449219 187.636719 199.222656 L 187.640625 199.203125 C 187.667969 199.101562 187.691406 198.996094 187.71875 198.890625 L 187.738281 198.8125 C 187.761719 198.722656 187.785156 198.632812 187.8125 198.539062 L 187.835938 198.449219 C 187.859375 198.359375 187.886719 198.265625 187.914062 198.171875 L 187.9375 198.085938 C 187.964844 197.984375 187.996094 197.882812 188.027344 197.78125 L 188.046875 197.71875 C 188.082031 197.597656 188.117188 197.480469 188.15625 197.359375 L 188.160156 197.339844 C 188.328125 196.8125 188.519531 196.265625 188.738281 195.703125 L 188.753906 195.664062 C 188.804688 195.539062 188.855469 195.417969 188.90625 195.292969 L 188.933594 195.226562 C 188.980469 195.105469 189.03125 194.988281 189.085938 194.867188 L 189.113281 194.800781 C 189.164062 194.683594 189.21875 194.5625 189.273438 194.445312 L 189.304688 194.375 C 189.363281 194.246094 189.425781 194.121094 189.484375 193.992188 L 189.503906 193.953125 C 189.78125 193.382812 190.09375 192.808594 190.4375 192.238281 L 190.476562 192.171875 C 190.546875 192.054688 190.621094 191.9375 190.695312 191.820312 L 190.75 191.738281 C 190.820312 191.625 190.894531 191.515625 190.96875 191.402344 L 191.027344 191.316406 C 191.105469 191.207031 191.179688 191.097656 191.257812 190.988281 L 191.320312 190.902344 C 191.402344 190.789062 191.488281 190.671875 191.574219 190.558594 L 191.621094 190.496094 C 191.933594 190.085938 192.269531 189.6875 192.628906 189.296875 L 192.648438 189.277344 C 192.757812 189.160156 192.867188 189.042969 192.980469 188.925781 L 193.058594 188.847656 C 193.15625 188.753906 193.25 188.65625 193.351562 188.5625 L 193.453125 188.46875 C 193.546875 188.378906 193.644531 188.289062 193.742188 188.203125 L 193.847656 188.109375 C 193.945312 188.023438 194.046875 187.9375 194.148438 187.855469 L 194.257812 187.761719 C 194.367188 187.675781 194.472656 187.589844 194.582031 187.503906 L 194.679688 187.429688 C 194.804688 187.335938 194.929688 187.242188 195.058594 187.152344 L 195.121094 187.109375 C 195.421875 186.898438 195.734375 186.695312 196.058594 186.5 C 196.085938 186.484375 196.117188 186.46875 196.144531 186.449219 C 196.273438 186.375 196.40625 186.300781 196.539062 186.226562 C 196.589844 186.199219 196.636719 186.175781 196.6875 186.148438 C 196.804688 186.085938 196.921875 186.023438 197.046875 185.964844 C 197.097656 185.9375 197.152344 185.910156 197.207031 185.886719 C 197.328125 185.828125 197.445312 185.773438 197.566406 185.71875 C 197.625 185.691406 197.6875 185.667969 197.746094 185.640625 C 197.863281 185.589844 197.984375 185.539062 198.101562 185.492188 C 198.167969 185.464844 198.230469 185.441406 198.296875 185.414062 C 198.421875 185.367188 198.550781 185.320312 198.679688 185.273438 C 198.738281 185.253906 198.796875 185.230469 198.851562 185.210938 C 199.003906 185.160156 199.160156 185.109375 199.3125 185.0625 C 199.351562 185.050781 199.390625 185.035156 199.433594 185.023438 C 199.824219 184.90625 200.230469 184.800781 200.652344 184.710938 C 200.714844 184.695312 200.777344 184.6875 200.84375 184.671875 C 200.988281 184.640625 201.136719 184.613281 201.289062 184.585938 C 201.363281 184.570312 201.441406 184.558594 201.519531 184.546875 C 201.65625 184.523438 201.796875 184.503906 201.9375 184.484375 C 202.023438 184.472656 202.113281 184.460938 202.203125 184.449219 C 202.339844 184.433594 202.472656 184.417969 202.609375 184.402344 C 202.703125 184.394531 202.796875 184.382812 202.890625 184.375 C 203.03125 184.363281 203.171875 184.355469 203.3125 184.34375 C 203.40625 184.335938 203.496094 184.332031 203.589844 184.328125 C 203.734375 184.320312 203.886719 184.316406 204.035156 184.308594 C 204.128906 184.308594 204.222656 184.304688 204.316406 184.300781 C 204.480469 184.300781 204.644531 184.300781 204.808594 184.300781 C 204.890625 184.300781 204.96875 184.300781 205.054688 184.300781 C 205.300781 184.304688 205.554688 184.316406 205.8125 184.328125 C 204.925781 183.9375 203.71875 183.53125 202.085938 183.175781 L 201.84375 183.121094 L 201.492188 183.027344 L 201.378906 182.992188 L 201.265625 182.953125 C 201.230469 182.941406 201.191406 182.929688 201.152344 182.917969 L 201.042969 182.878906 L 200.933594 182.835938 L 200.828125 182.792969 L 200.71875 182.75 L 200.613281 182.707031 L 200.511719 182.660156 L 200.40625 182.613281 L 200.304688 182.5625 L 200.207031 182.511719 L 200.105469 182.460938 L 200.007812 182.40625 L 199.914062 182.355469 L 199.816406 182.300781 L 199.722656 182.242188 L 199.632812 182.183594 L 199.539062 182.125 L 199.449219 182.066406 L 199.363281 182.003906 L 199.273438 181.941406 L 199.1875 181.878906 L 199.105469 181.816406 L 199.019531 181.75 L 198.9375 181.683594 L 198.859375 181.617188 L 198.78125 181.546875 L 198.703125 181.480469 L 198.625 181.410156 L 198.550781 181.339844 L 198.476562 181.265625 L 198.40625 181.191406 L 198.332031 181.121094 L 198.265625 181.042969 L 198.195312 180.96875 L 198.128906 180.894531 L 198.0625 180.816406 L 197.875 180.582031 L 197.816406 180.5 L 197.757812 180.421875 L 197.703125 180.339844 L 197.644531 180.257812 L 197.59375 180.175781 L 197.539062 180.09375 L 197.488281 180.007812 L 197.4375 179.925781 L 197.296875 179.667969 L 197.210938 179.496094 L 197.167969 179.40625 L 197.128906 179.320312 L 197.089844 179.230469 L 197.054688 179.144531 L 197.019531 179.054688 L 197.003906 179.015625 L 196.988281 178.972656 L 196.972656 178.933594 L 196.957031 178.890625 L 196.945312 178.847656 L 196.929688 178.808594 L 196.914062 178.765625 L 196.902344 178.726562 L 196.890625 178.683594 L 196.886719 178.683594 L 196.875 178.640625 L 196.863281 178.601562 L 196.839844 178.515625 L 196.828125 178.476562 L 196.828125 178.472656 L 196.816406 178.433594 L 196.792969 178.347656 L 196.785156 178.308594 L 196.761719 178.222656 L 196.753906 178.179688 L 196.746094 178.140625 L 196.746094 178.136719 L 196.734375 178.097656 L 196.703125 177.925781 L 196.695312 177.886719 L 196.691406 177.84375 L 196.675781 177.757812 L 196.671875 177.714844 L 196.664062 177.671875 L 196.65625 177.585938 L 196.648438 177.546875 L 196.632812 177.375 L 196.632812 177.332031 L 196.625 177.246094 L 196.625 177.207031 L 196.621094 177.164062 L 196.621094 177.078125 L 196.617188 177.035156 L 196.617188 176.867188 L 196.621094 176.824219 L 196.621094 176.738281 L 196.625 176.695312 L 196.625 176.652344 L 196.628906 176.613281 L 196.632812 176.570312 L 196.632812 176.527344 L 196.640625 176.441406 L 196.644531 176.402344 L 196.648438 176.359375 C 196.75 175.449219 197.085938 174.570312 197.667969 173.800781 L 197.71875 173.738281 L 197.722656 173.730469 L 197.765625 173.675781 L 197.769531 173.671875 L 197.796875 173.636719 L 197.828125 173.605469 L 197.851562 173.574219 L 197.882812 173.539062 L 197.902344 173.515625 L 197.941406 173.472656 L 197.960938 173.449219 L 198.007812 173.402344 L 198.015625 173.390625 L 198.070312 173.332031 L 198.078125 173.328125 L 198.113281 173.289062 L 198.144531 173.257812 L 198.203125 173.203125 L 198.203125 173.199219 L 198.261719 173.144531 L 198.277344 173.128906 L 198.332031 173.078125 L 198.351562 173.0625 L 198.398438 173.019531 L 198.421875 173 L 198.460938 172.96875 L 198.492188 172.941406 L 198.53125 172.910156 L 198.558594 172.882812 L 198.601562 172.851562 L 198.632812 172.824219 L 198.640625 172.820312 L 198.695312 172.777344 L 198.707031 172.769531 L 198.773438 172.722656 L 198.777344 172.71875 L 198.84375 172.667969 L 198.847656 172.664062 L 198.914062 172.617188 L 198.929688 172.609375 L 198.988281 172.570312 L 199.007812 172.554688 L 199.023438 172.546875 L 199.105469 172.492188 L 199.152344 172.464844 L 199.195312 172.4375 L 199.226562 172.417969 L 199.277344 172.390625 L 199.285156 172.382812 L 199.34375 172.351562 L 199.363281 172.339844 L 199.429688 172.300781 L 199.441406 172.296875 L 199.515625 172.253906 L 199.519531 172.253906 L 199.601562 172.210938 L 199.695312 172.164062 L 199.714844 172.15625 L 199.785156 172.121094 L 199.804688 172.113281 L 199.878906 172.078125 L 199.894531 172.070312 L 199.972656 172.039062 L 199.992188 172.027344 L 200.0625 172 L 200.085938 171.988281 L 200.15625 171.960938 L 200.195312 171.945312 L 200.277344 171.914062 L 200.285156 171.910156 L 200.375 171.875 L 200.5625 171.8125 L 200.570312 171.808594 L 200.613281 171.796875 L 200.675781 171.777344 L 200.710938 171.765625 L 200.777344 171.746094 L 200.8125 171.734375 L 200.886719 171.714844 L 200.917969 171.703125 L 200.992188 171.683594 L 201.019531 171.675781 L 201.101562 171.65625 L 201.132812 171.648438 L 201.238281 171.625 L 201.246094 171.621094 L 201.347656 171.597656 L 201.351562 171.597656 L 201.449219 171.578125 L 201.464844 171.574219 L 201.484375 171.570312 L 201.574219 171.550781 L 201.601562 171.546875 L 201.6875 171.53125 L 201.722656 171.523438 L 201.804688 171.511719 L 201.835938 171.507812 L 201.914062 171.496094 L 201.964844 171.488281 L 202.046875 171.476562 L 202.070312 171.472656 L 202.164062 171.460938 L 202.1875 171.457031 L 202.207031 171.453125 L 202.3125 171.441406 L 202.320312 171.441406 L 202.433594 171.429688 L 202.460938 171.429688 L 202.566406 171.417969 L 202.582031 171.417969 L 202.6875 171.410156 L 202.714844 171.40625 L 202.824219 171.402344 L 202.839844 171.398438 L 202.949219 171.394531 L 202.976562 171.394531 L 203.019531 171.390625 C 203.070312 170.976562 203.089844 170.554688 203.085938 170.125 C 203.054688 167.726562 202.226562 165.140625 200.761719 163.015625 C 199.320312 160.925781 197.277344 159.292969 194.792969 158.753906 C 194.171875 158.617188 193.53125 158.550781 192.875 158.558594 C 192.382812 158.5625 191.964844 158.238281 191.832031 157.789062 L 191.828125 157.789062 Z M 175.816406 179.980469 C 176.828125 184.683594 175.066406 188.378906 169.605469 189.621094 C 177.425781 192.328125 181.191406 182.976562 175.816406 179.980469 Z M 189.6875 160.417969 C 190.195312 165.855469 188.070312 167.777344 184.457031 168.082031 C 184.457031 168.082031 189.582031 169.996094 191.410156 166.832031 C 193.238281 163.667969 191.003906 160.824219 189.6875 160.417969 Z M 229.609375 188.148438 C 229.46875 188.527344 214.734375 183.867188 214.589844 175.765625 C 213.535156 175.058594 210.253906 173.292969 203.988281 173.546875 L 203.976562 173.546875 C 203.949219 173.546875 203.917969 173.546875 203.890625 173.546875 L 203.785156 173.542969 L 203.78125 173.542969 L 203.679688 173.539062 L 203.265625 173.539062 L 203.167969 173.542969 L 203.164062 173.542969 L 203.066406 173.546875 L 202.972656 173.550781 L 202.96875 173.550781 L 202.875 173.554688 L 202.78125 173.5625 L 202.777344 173.5625 L 202.6875 173.570312 L 202.683594 173.570312 L 202.59375 173.578125 L 202.5 173.589844 L 202.320312 173.613281 L 202.148438 173.636719 L 202.144531 173.636719 L 202.0625 173.652344 L 201.976562 173.667969 L 201.8125 173.699219 L 201.730469 173.71875 L 201.652344 173.738281 L 201.648438 173.738281 L 201.570312 173.757812 L 201.496094 173.777344 L 201.492188 173.777344 L 201.417969 173.800781 L 201.34375 173.820312 L 201.34375 173.824219 L 201.269531 173.84375 L 201.195312 173.871094 L 201.125 173.894531 L 201.054688 173.921875 L 200.984375 173.945312 L 200.917969 173.972656 L 200.914062 173.972656 L 200.847656 174 L 200.78125 174.03125 L 200.71875 174.058594 L 200.652344 174.089844 L 200.589844 174.121094 L 200.53125 174.152344 L 200.46875 174.183594 L 200.410156 174.21875 L 200.351562 174.25 L 200.296875 174.285156 L 200.292969 174.285156 L 200.238281 174.320312 L 200.230469 174.328125 C 200.199219 174.347656 200.171875 174.367188 200.140625 174.386719 L 200.128906 174.394531 L 200.078125 174.429688 L 199.925781 174.546875 L 199.785156 174.664062 L 199.738281 174.707031 L 199.695312 174.746094 L 199.597656 174.84375 C 199.386719 175.179688 199.21875 175.554688 199.109375 175.980469 C 198.378906 178.753906 200.074219 179.984375 202.78125 181.121094 L 202.820312 181.128906 L 203.109375 181.199219 L 203.238281 181.230469 L 203.394531 181.269531 L 203.511719 181.296875 L 203.6875 181.34375 L 203.78125 181.371094 L 203.960938 181.417969 L 204.042969 181.445312 C 204.132812 181.46875 204.21875 181.492188 204.300781 181.519531 L 204.328125 181.527344 L 204.539062 181.589844 L 204.644531 181.625 L 204.785156 181.667969 L 204.878906 181.699219 L 205.023438 181.75 L 205.113281 181.78125 L 205.273438 181.835938 L 205.335938 181.855469 C 205.402344 181.882812 205.46875 181.90625 205.535156 181.929688 L 205.554688 181.9375 L 205.558594 181.9375 L 205.582031 181.949219 L 205.773438 182.023438 L 205.828125 182.042969 L 205.972656 182.101562 L 206.054688 182.132812 L 206.175781 182.183594 L 206.261719 182.222656 L 206.363281 182.265625 L 206.449219 182.304688 L 206.625 182.382812 L 206.640625 182.390625 C 206.699219 182.417969 206.757812 182.445312 206.8125 182.472656 L 206.839844 182.484375 L 207.050781 182.589844 L 207.152344 182.644531 L 207.21875 182.675781 L 207.3125 182.726562 L 207.378906 182.761719 L 207.5 182.832031 L 207.527344 182.84375 C 207.578125 182.875 207.628906 182.902344 207.679688 182.933594 L 207.683594 182.933594 C 207.730469 182.964844 207.78125 182.992188 207.828125 183.023438 L 207.859375 183.042969 L 207.96875 183.109375 L 208.011719 183.136719 L 208.101562 183.191406 L 208.152344 183.226562 L 208.230469 183.277344 L 208.273438 183.308594 C 208.355469 183.363281 208.433594 183.417969 208.507812 183.472656 L 208.519531 183.480469 L 208.546875 183.503906 L 208.628906 183.5625 L 208.664062 183.59375 L 208.738281 183.648438 L 208.769531 183.671875 L 208.851562 183.738281 L 208.871094 183.753906 L 208.953125 183.824219 L 208.972656 183.839844 L 209.066406 183.921875 L 209.144531 183.992188 L 209.160156 184.003906 L 209.175781 184.019531 L 209.242188 184.082031 L 209.261719 184.101562 L 209.328125 184.160156 L 209.34375 184.175781 L 209.410156 184.246094 L 209.476562 184.3125 L 209.492188 184.332031 L 209.496094 184.335938 L 209.558594 184.402344 L 209.578125 184.421875 L 209.628906 184.480469 L 209.636719 184.488281 L 209.683594 184.542969 L 209.710938 184.578125 L 209.722656 184.589844 L 209.753906 184.628906 L 209.761719 184.636719 L 209.800781 184.683594 L 209.808594 184.699219 L 209.816406 184.707031 L 209.859375 184.761719 L 209.859375 184.765625 L 209.902344 184.820312 L 209.910156 184.828125 L 209.921875 184.84375 L 209.953125 184.890625 L 209.957031 184.894531 L 209.992188 184.949219 L 210 184.957031 L 210.027344 185 L 210.042969 185.023438 L 210.046875 185.035156 L 210.070312 185.066406 L 210.097656 185.113281 L 210.101562 185.117188 L 210.121094 185.15625 L 210.128906 185.167969 L 210.144531 185.195312 L 210.15625 185.210938 L 210.164062 185.230469 L 210.179688 185.253906 L 210.183594 185.265625 L 210.199219 185.296875 L 210.203125 185.300781 C 210.324219 185.515625 210.375 185.773438 210.324219 186.035156 C 210.214844 186.617188 209.652344 187.003906 209.066406 186.894531 C 208.789062 186.839844 208.515625 186.792969 208.246094 186.753906 C 208.15625 186.738281 208.070312 186.726562 207.980469 186.714844 C 207.800781 186.6875 207.625 186.664062 207.453125 186.640625 C 207.347656 186.628906 207.242188 186.617188 207.136719 186.605469 C 206.980469 186.589844 206.828125 186.570312 206.675781 186.558594 C 206.570312 186.546875 206.464844 186.542969 206.363281 186.535156 C 206.214844 186.523438 206.066406 186.511719 205.917969 186.503906 C 205.816406 186.5 205.710938 186.496094 205.609375 186.492188 C 205.464844 186.484375 205.324219 186.480469 205.1875 186.476562 C 205.082031 186.476562 204.980469 186.476562 204.878906 186.476562 C 204.742188 186.476562 204.609375 186.476562 204.472656 186.476562 C 204.375 186.480469 204.273438 186.480469 204.175781 186.484375 C 204.042969 186.492188 203.914062 186.496094 203.789062 186.503906 C 203.6875 186.507812 203.589844 186.515625 203.492188 186.523438 C 203.363281 186.53125 203.238281 186.542969 203.113281 186.554688 C 203.019531 186.566406 202.925781 186.574219 202.832031 186.582031 C 202.707031 186.597656 202.582031 186.613281 202.457031 186.632812 C 202.371094 186.644531 202.28125 186.65625 202.191406 186.667969 C 202.066406 186.6875 201.945312 186.710938 201.824219 186.734375 C 201.738281 186.746094 201.65625 186.761719 201.574219 186.777344 C 201.4375 186.804688 201.304688 186.835938 201.167969 186.863281 C 201.105469 186.878906 201.042969 186.890625 200.980469 186.90625 C 200.804688 186.949219 200.632812 186.992188 200.460938 187.042969 C 200.441406 187.046875 200.421875 187.050781 200.402344 187.058594 C 200.207031 187.113281 200.019531 187.171875 199.832031 187.230469 C 199.804688 187.242188 199.777344 187.253906 199.746094 187.261719 C 199.59375 187.3125 199.441406 187.367188 199.292969 187.421875 C 199.238281 187.445312 199.183594 187.46875 199.128906 187.488281 C 199.007812 187.535156 198.886719 187.582031 198.769531 187.632812 C 198.707031 187.660156 198.644531 187.691406 198.582031 187.71875 C 198.472656 187.765625 198.367188 187.8125 198.265625 187.863281 C 198.203125 187.890625 198.140625 187.921875 198.082031 187.953125 C 197.976562 188.003906 197.875 188.058594 197.769531 188.113281 C 197.714844 188.140625 197.65625 188.175781 197.597656 188.207031 C 197.5 188.261719 197.402344 188.316406 197.304688 188.371094 C 197.246094 188.40625 197.1875 188.441406 197.128906 188.476562 C 197.03125 188.535156 196.941406 188.59375 196.847656 188.652344 C 196.792969 188.6875 196.738281 188.722656 196.683594 188.757812 C 196.589844 188.820312 196.5 188.882812 196.410156 188.945312 C 196.355469 188.984375 196.304688 189.019531 196.25 189.058594 C 196.160156 189.121094 196.070312 189.1875 195.984375 189.257812 C 195.933594 189.292969 195.886719 189.328125 195.839844 189.363281 C 195.75 189.4375 195.660156 189.507812 195.570312 189.582031 C 195.527344 189.617188 195.484375 189.652344 195.441406 189.6875 C 195.34375 189.769531 195.25 189.855469 195.15625 189.9375 C 195.125 189.964844 195.09375 189.992188 195.066406 190.015625 C 194.953125 190.117188 194.84375 190.222656 194.738281 190.324219 L 194.699219 190.363281 C 194.457031 190.597656 194.226562 190.84375 194.003906 191.09375 L 193.96875 191.132812 C 193.871094 191.242188 193.777344 191.351562 193.6875 191.460938 L 193.605469 191.5625 C 193.527344 191.652344 193.453125 191.746094 193.378906 191.839844 L 193.292969 191.949219 C 193.222656 192.042969 193.152344 192.136719 193.082031 192.230469 L 193.003906 192.335938 C 192.9375 192.429688 192.871094 192.523438 192.804688 192.617188 L 192.726562 192.738281 C 192.660156 192.832031 192.597656 192.925781 192.539062 193.019531 L 192.464844 193.132812 C 192.402344 193.226562 192.34375 193.324219 192.285156 193.417969 L 192.214844 193.535156 C 192.15625 193.632812 192.101562 193.726562 192.042969 193.824219 L 191.976562 193.9375 C 191.921875 194.039062 191.867188 194.136719 191.8125 194.234375 L 191.757812 194.339844 C 191.695312 194.453125 191.636719 194.566406 191.578125 194.683594 L 191.546875 194.738281 C 191.484375 194.863281 191.421875 194.992188 191.359375 195.117188 L 191.347656 195.144531 C 191.148438 195.558594 190.96875 195.96875 190.808594 196.371094 L 190.800781 196.386719 C 190.75 196.511719 190.699219 196.636719 190.652344 196.761719 L 190.628906 196.824219 L 190.574219 196.972656 C 190.402344 197.574219 190.25 198.207031 190.128906 198.863281 C 189.703125 201.179688 190.195312 203.359375 191.34375 205.335938 C 191.707031 205.757812 192.089844 206.175781 192.496094 206.582031 C 196.445312 210.570312 202.277344 213.839844 208.625 215.398438 C 210.207031 215.691406 211.796875 215.878906 213.351562 215.941406 C 219.210938 216.183594 226.039062 214.769531 231.800781 211.441406 C 232.589844 210.835938 233.355469 210.171875 234.09375 209.441406 C 239.046875 204.53125 241.570312 199.742188 242.726562 195.535156 C 244.234375 190.0625 243.445312 185.59375 242.710938 183.160156 C 240.179688 177.554688 235.59375 174.832031 235.59375 174.832031 C 238.257812 175.585938 240.878906 177.199219 242.949219 179.601562 C 244.199219 179.046875 245.160156 178.394531 245.882812 177.671875 C 246.96875 176.585938 247.503906 175.339844 247.640625 174.058594 C 247.785156 172.734375 247.515625 171.355469 246.992188 170.070312 C 246.402344 168.613281 245.488281 167.285156 244.484375 166.277344 C 243.203125 165 241.28125 164.140625 239.636719 164.074219 C 238.992188 164.046875 238.40625 164.144531 237.957031 164.390625 C 237.570312 164.605469 237.273438 164.953125 237.117188 165.453125 C 236.800781 166.503906 237.027344 168.167969 238.128906 170.609375 C 238.375 171.152344 238.132812 171.789062 237.589844 172.035156 C 237.117188 172.246094 236.570312 172.089844 236.273438 171.6875 C 235.863281 171.203125 232.304688 167.269531 225.804688 167.269531 C 222.835938 167.269531 220.777344 168.097656 219.386719 169.335938 C 217.628906 170.90625 216.898438 173.179688 216.757812 175.277344 L 216.753906 175.3125 C 217.117188 184.824219 229.757812 187.757812 229.609375 188.148438 Z M 189.378906 176.226562 C 189.855469 178.429688 189.027344 180.164062 186.464844 180.746094 C 191.6875 182.761719 192.238281 177.832031 189.378906 176.226562 Z M 185.472656 108.609375 C 160.089844 108.878906 135.785156 130.886719 130.117188 158.292969 C 124.445312 185.699219 141.457031 215.808594 164.003906 225.664062 C 186.550781 235.519531 215.714844 233.359375 233.132812 216.890625 C 250.546875 200.417969 247.441406 187.523438 245.28125 183.136719 C 245.035156 182.636719 244.769531 182.15625 244.484375 181.699219 C 244.441406 181.566406 244.394531 181.445312 244.351562 181.328125 C 245.609375 180.710938 246.617188 179.992188 247.40625 179.203125 C 248.871094 177.738281 249.59375 176.039062 249.785156 174.289062 C 249.96875 172.585938 249.636719 170.851562 248.992188 169.261719 C 248.289062 167.527344 247.203125 165.945312 246.011719 164.753906 C 244.371094 163.113281 241.875 162.015625 239.71875 161.921875 C 238.695312 161.878906 237.726562 162.058594 236.921875 162.503906 C 236.054688 162.980469 235.390625 163.742188 235.058594 164.832031 C 234.816406 165.632812 234.761719 166.617188 234.964844 167.800781 C 232.914062 166.464844 229.839844 165.113281 225.804688 165.113281 C 222.25 165.113281 219.714844 166.160156 217.953125 167.734375 C 216.195312 169.304688 215.246094 171.371094 214.832031 173.429688 C 213.128906 172.539062 209.984375 171.375 205.1875 171.367188 C 205.226562 170.953125 205.242188 170.53125 205.238281 170.101562 C 205.203125 167.285156 204.234375 164.265625 202.53125 161.792969 C 200.804688 159.28125 198.308594 157.3125 195.25 156.644531 C 194.730469 156.53125 194.1875 156.457031 193.628906 156.425781 C 192.460938 153.5 187.070312 143.066406 169.957031 144.527344 C 169.65625 144.550781 169.320312 144.585938 168.957031 144.625 C 167.339844 144.808594 165.78125 145.089844 164.285156 145.460938 C 169.257812 139.148438 174.8125 133.382812 177.84375 132.707031 C 181.488281 131.898438 171.902344 127.105469 166.707031 133.316406 C 161.507812 139.527344 152.460938 143.035156 150.097656 140.402344 C 148.894531 139.0625 151.515625 131.105469 157.925781 125.148438 C 164.089844 119.421875 173.960938 115.675781 177.304688 114.683594 C 184.121094 112.660156 185.539062 111.644531 185.46875 108.609375 Z M 157.609375 159.035156 C 157.3125 159.550781 156.652344 159.726562 156.136719 159.429688 C 155.625 159.128906 155.449219 158.472656 155.746094 157.957031 C 157.46875 154.988281 159.777344 153.089844 162.191406 152.152344 C 164.027344 151.4375 165.917969 151.28125 167.667969 151.621094 C 169.4375 151.96875 171.058594 152.828125 172.332031 154.148438 C 173.777344 155.644531 174.757812 157.722656 174.96875 160.300781 C 175.253906 163.789062 173.824219 166.121094 171.738281 167.425781 C 170.769531 168.03125 169.660156 168.402344 168.523438 168.558594 C 167.398438 168.710938 166.242188 168.652344 165.167969 168.394531 C 162.683594 167.804688 160.574219 166.167969 160.054688 163.65625 C 158.539062 156.328125 165.679688 157.152344 165.699219 157.152344 C 166.289062 157.214844 166.722656 157.742188 166.660156 158.335938 C 166.601562 158.925781 166.070312 159.359375 165.480469 159.296875 C 165.46875 159.296875 161.25 158.808594 162.164062 163.226562 C 162.492188 164.820312 163.941406 165.882812 165.667969 166.292969 C 166.496094 166.492188 167.382812 166.539062 168.234375 166.421875 C 169.078125 166.308594 169.890625 166.035156 170.597656 165.59375 C 172.039062 164.691406 173.027344 163.023438 172.816406 160.46875 C 172.648438 158.421875 171.890625 156.792969 170.78125 155.640625 C 169.824219 154.652344 168.597656 154.003906 167.253906 153.742188 C 165.890625 153.472656 164.410156 153.601562 162.96875 154.160156 C 160.984375 154.929688 159.070312 156.519531 157.609375 159.035156 Z M 157.609375 159.035156 " fill-opacity="1" fill-rule="evenodd"/></g><g clip-path="url(#1ac38a0672)"><g clip-path="url(#f2b040fcda)"><g clip-path="url(#351a759e1f)"><path fill="#b0d2f2" d="M 211.867188 134.722656 C 215.269531 130.003906 221.332031 128.519531 224.351562 133.441406 C 229.96875 142.570312 208.09375 151.273438 208.09375 151.273438 C 200.550781 141.199219 195.347656 132.875 202.367188 128.324219 C 206.304688 125.769531 210.921875 129.179688 211.867188 134.722656 Z M 211.867188 134.722656 " fill-opacity="1" fill-rule="nonzero"/></g></g></g><g fill="#a6a6a6" fill-opacity="1"><g transform="translate(107.537326, 284.448848)"><g><path d="M 2.671875 -3.25 C 1.265625 -3.570312 0.5625 -4.175781 0.5625 -5.0625 C 0.5625 -5.707031 0.789062 -6.191406 1.25 -6.515625 C 1.695312 -6.835938 2.226562 -7 2.84375 -7 C 4.1875 -7 4.984375 -6.5 5.234375 -5.5 L 4.46875 -5.5 C 4.332031 -6.09375 3.789062 -6.390625 2.84375 -6.390625 C 2.175781 -6.390625 1.710938 -6.191406 1.453125 -5.796875 C 1.347656 -5.648438 1.296875 -5.46875 1.296875 -5.25 C 1.296875 -4.820312 1.523438 -4.492188 1.984375 -4.265625 C 2.203125 -4.148438 2.660156 -4 3.359375 -3.8125 C 4.066406 -3.632812 4.578125 -3.429688 4.890625 -3.203125 C 5.335938 -2.890625 5.5625 -2.453125 5.5625 -1.890625 C 5.5625 -1.203125 5.285156 -0.675781 4.734375 -0.3125 C 4.273438 -0.0195312 3.707031 0.125 3.03125 0.125 C 1.5 0.125 0.613281 -0.453125 0.375 -1.609375 L 1.21875 -1.609375 C 1.34375 -0.878906 1.945312 -0.515625 3.03125 -0.515625 C 3.800781 -0.515625 4.335938 -0.726562 4.640625 -1.15625 C 4.765625 -1.320312 4.828125 -1.550781 4.828125 -1.84375 C 4.828125 -2.125 4.71875 -2.359375 4.5 -2.546875 C 4.175781 -2.804688 3.566406 -3.039062 2.671875 -3.25 Z M 2.671875 -3.25 "/></g></g></g><g fill="#a6a6a6" fill-opacity="1"><g transform="translate(115.173283, 284.448848)"><g><path d="M 6.828125 -3.46875 C 6.828125 -4.25 6.550781 -4.914062 6 -5.46875 C 5.445312 -6.019531 4.78125 -6.296875 4 -6.296875 C 3.21875 -6.296875 2.550781 -6.019531 2 -5.46875 C 1.445312 -4.914062 1.171875 -4.25 1.171875 -3.46875 C 1.171875 -2.6875 1.445312 -2.015625 2 -1.453125 C 2.550781 -0.898438 3.21875 -0.625 4 -0.625 C 4.78125 -0.625 5.445312 -0.898438 6 -1.453125 C 6.550781 -2.015625 6.828125 -2.6875 6.828125 -3.46875 Z M 7.546875 -3.46875 C 7.546875 -2.976562 7.453125 -2.519531 7.265625 -2.09375 C 7.078125 -1.65625 6.828125 -1.28125 6.515625 -0.96875 C 6.191406 -0.644531 5.8125 -0.390625 5.375 -0.203125 C 4.9375 -0.015625 4.476562 0.078125 4 0.078125 C 3.507812 0.078125 3.050781 -0.015625 2.625 -0.203125 C 2.195312 -0.390625 1.820312 -0.644531 1.5 -0.96875 C 1.175781 -1.28125 0.921875 -1.65625 0.734375 -2.09375 C 0.546875 -2.519531 0.453125 -2.976562 0.453125 -3.46875 C 0.453125 -3.957031 0.546875 -4.414062 0.734375 -4.84375 C 0.921875 -5.28125 1.175781 -5.65625 1.5 -5.96875 C 1.820312 -6.289062 2.195312 -6.546875 2.625 -6.734375 C 3.050781 -6.910156 3.507812 -7 4 -7 C 4.476562 -7 4.9375 -6.910156 5.375 -6.734375 C 5.8125 -6.546875 6.191406 -6.289062 6.515625 -5.96875 C 6.828125 -5.65625 7.078125 -5.28125 7.265625 -4.84375 C 7.453125 -4.414062 7.546875 -3.957031 7.546875 -3.46875 Z M 7.546875 -3.46875 "/></g></g></g><g fill="#a6a6a6" fill-opacity="1"><g transform="translate(124.988653, 284.448848)"><g><path d="M 4.859375 -6.234375 L 1.46875 -6.234375 L 1.46875 -3.78125 L 4.75 -3.78125 L 4.75 -3.109375 L 1.46875 -3.109375 L 1.46875 0 L 0.765625 0 L 0.765625 -6.890625 L 4.859375 -6.890625 Z M 4.859375 -6.234375 "/></g></g></g><g fill="#a6a6a6" fill-opacity="1"><g transform="translate(131.864356, 284.448848)"><g><path d="M 0.203125 -6.25 L 0.203125 -6.921875 L 4.265625 -6.921875 L 4.265625 -6.25 L 2.578125 -6.25 L 2.578125 -0.015625 L 1.875 -0.015625 L 1.875 -6.25 Z M 0.203125 -6.25 "/></g></g></g><g fill="#a6a6a6" fill-opacity="1"><g transform="translate(138.141992, 284.448848)"><g><path d="M 1.46875 -5.078125 L 1.46875 0 L 0.765625 0 L 0.765625 -7.328125 L 4.640625 -1.828125 L 4.640625 -6.890625 L 5.34375 -6.890625 L 5.34375 0.421875 Z M 1.46875 -5.078125 "/></g></g></g><g fill="#a6a6a6" fill-opacity="1"><g transform="translate(146.061787, 284.448848)"><g><path d="M 4.859375 0 L 0.765625 0 L 0.765625 -6.890625 L 4.859375 -6.890625 L 4.859375 -6.234375 L 1.46875 -6.234375 L 1.46875 -3.78125 L 4.75 -3.78125 L 4.75 -3.109375 L 1.46875 -3.109375 L 1.46875 -0.65625 L 4.859375 -0.65625 Z M 4.859375 0 "/></g></g></g><g fill="#a6a6a6" fill-opacity="1"><g transform="translate(153.495013, 284.448848)"><g><path d="M 2.671875 -3.25 C 1.265625 -3.570312 0.5625 -4.175781 0.5625 -5.0625 C 0.5625 -5.707031 0.789062 -6.191406 1.25 -6.515625 C 1.695312 -6.835938 2.226562 -7 2.84375 -7 C 4.1875 -7 4.984375 -6.5 5.234375 -5.5 L 4.46875 -5.5 C 4.332031 -6.09375 3.789062 -6.390625 2.84375 -6.390625 C 2.175781 -6.390625 1.710938 -6.191406 1.453125 -5.796875 C 1.347656 -5.648438 1.296875 -5.46875 1.296875 -5.25 C 1.296875 -4.820312 1.523438 -4.492188 1.984375 -4.265625 C 2.203125 -4.148438 2.660156 -4 3.359375 -3.8125 C 4.066406 -3.632812 4.578125 -3.429688 4.890625 -3.203125 C 5.335938 -2.890625 5.5625 -2.453125 5.5625 -1.890625 C 5.5625 -1.203125 5.285156 -0.675781 4.734375 -0.3125 C 4.273438 -0.0195312 3.707031 0.125 3.03125 0.125 C 1.5 0.125 0.613281 -0.453125 0.375 -1.609375 L 1.21875 -1.609375 C 1.34375 -0.878906 1.945312 -0.515625 3.03125 -0.515625 C 3.800781 -0.515625 4.335938 -0.726562 4.640625 -1.15625 C 4.765625 -1.320312 4.828125 -1.550781 4.828125 -1.84375 C 4.828125 -2.125 4.71875 -2.359375 4.5 -2.546875 C 4.175781 -2.804688 3.566406 -3.039062 2.671875 -3.25 Z M 2.671875 -3.25 "/></g></g></g><g fill="#a6a6a6" fill-opacity="1"><g transform="translate(161.130971, 284.448848)"><g><path d="M 2.671875 -3.25 C 1.265625 -3.570312 0.5625 -4.175781 0.5625 -5.0625 C 0.5625 -5.707031 0.789062 -6.191406 1.25 -6.515625 C 1.695312 -6.835938 2.226562 -7 2.84375 -7 C 4.1875 -7 4.984375 -6.5 5.234375 -5.5 L 4.46875 -5.5 C 4.332031 -6.09375 3.789062 -6.390625 2.84375 -6.390625 C 2.175781 -6.390625 1.710938 -6.191406 1.453125 -5.796875 C 1.347656 -5.648438 1.296875 -5.46875 1.296875 -5.25 C 1.296875 -4.820312 1.523438 -4.492188 1.984375 -4.265625 C 2.203125 -4.148438 2.660156 -4 3.359375 -3.8125 C 4.066406 -3.632812 4.578125 -3.429688 4.890625 -3.203125 C 5.335938 -2.890625 5.5625 -2.453125 5.5625 -1.890625 C 5.5625 -1.203125 5.285156 -0.675781 4.734375 -0.3125 C 4.273438 -0.0195312 3.707031 0.125 3.03125 0.125 C 1.5 0.125 0.613281 -0.453125 0.375 -1.609375 L 1.21875 -1.609375 C 1.34375 -0.878906 1.945312 -0.515625 3.03125 -0.515625 C 3.800781 -0.515625 4.335938 -0.726562 4.640625 -1.15625 C 4.765625 -1.320312 4.828125 -1.550781 4.828125 -1.84375 C 4.828125 -2.125 4.71875 -2.359375 4.5 -2.546875 C 4.175781 -2.804688 3.566406 -3.039062 2.671875 -3.25 Z M 2.671875 -3.25 "/></g></g></g><g fill="#a6a6a6" fill-opacity="1"><g transform="translate(168.766926, 284.448848)"><g/></g></g><g fill="#a6a6a6" fill-opacity="1"><g transform="translate(173.321308, 284.448848)"><g><path d="M 3.421875 -3.25 L 3.421875 0 L 2.71875 0 L 2.71875 -3.25 L 0.09375 -6.890625 L 1.015625 -6.890625 L 3.078125 -3.9375 L 5.125 -6.890625 L 6.03125 -6.890625 Z M 3.421875 -3.25 "/></g></g></g><g fill="#a6a6a6" fill-opacity="1"><g transform="translate(181.271507, 284.448848)"><g><path d="M 6.828125 -3.46875 C 6.828125 -4.25 6.550781 -4.914062 6 -5.46875 C 5.445312 -6.019531 4.78125 -6.296875 4 -6.296875 C 3.21875 -6.296875 2.550781 -6.019531 2 -5.46875 C 1.445312 -4.914062 1.171875 -4.25 1.171875 -3.46875 C 1.171875 -2.6875 1.445312 -2.015625 2 -1.453125 C 2.550781 -0.898438 3.21875 -0.625 4 -0.625 C 4.78125 -0.625 5.445312 -0.898438 6 -1.453125 C 6.550781 -2.015625 6.828125 -2.6875 6.828125 -3.46875 Z M 7.546875 -3.46875 C 7.546875 -2.976562 7.453125 -2.519531 7.265625 -2.09375 C 7.078125 -1.65625 6.828125 -1.28125 6.515625 -0.96875 C 6.191406 -0.644531 5.8125 -0.390625 5.375 -0.203125 C 4.9375 -0.015625 4.476562 0.078125 4 0.078125 C 3.507812 0.078125 3.050781 -0.015625 2.625 -0.203125 C 2.195312 -0.390625 1.820312 -0.644531 1.5 -0.96875 C 1.175781 -1.28125 0.921875 -1.65625 0.734375 -2.09375 C 0.546875 -2.519531 0.453125 -2.976562 0.453125 -3.46875 C 0.453125 -3.957031 0.546875 -4.414062 0.734375 -4.84375 C 0.921875 -5.28125 1.175781 -5.65625 1.5 -5.96875 C 1.820312 -6.289062 2.195312 -6.546875 2.625 -6.734375 C 3.050781 -6.910156 3.507812 -7 4 -7 C 4.476562 -7 4.9375 -6.910156 5.375 -6.734375 C 5.8125 -6.546875 6.191406 -6.289062 6.515625 -5.96875 C 6.828125 -5.65625 7.078125 -5.28125 7.265625 -4.84375 C 7.453125 -4.414062 7.546875 -3.957031 7.546875 -3.46875 Z M 7.546875 -3.46875 "/></g></g></g><g fill="#a6a6a6" fill-opacity="1"><g transform="translate(191.086875, 284.448848)"><g><path d="M 5.75 -2.28125 C 5.75 -1.539062 5.503906 -0.953125 5.015625 -0.515625 C 4.554688 -0.109375 3.945312 0.09375 3.1875 0.09375 C 2.414062 0.09375 1.800781 -0.109375 1.34375 -0.515625 C 0.851562 -0.953125 0.609375 -1.539062 0.609375 -2.28125 L 0.609375 -6.890625 L 1.3125 -6.890625 L 1.3125 -2.1875 C 1.3125 -1.664062 1.503906 -1.265625 1.890625 -0.984375 C 2.210938 -0.742188 2.644531 -0.625 3.1875 -0.625 C 4.03125 -0.625 4.597656 -0.90625 4.890625 -1.46875 C 4.992188 -1.664062 5.046875 -1.90625 5.046875 -2.1875 L 5.046875 -6.890625 L 5.75 -6.890625 Z M 5.75 -2.28125 "/></g></g></g><g fill="#a6a6a6" fill-opacity="1"><g transform="translate(199.260085, 284.448848)"><g/></g></g><g fill="#a6a6a6" fill-opacity="1"><g transform="translate(203.814472, 284.448848)"><g><path d="M 7.09375 -2.109375 C 6.832031 -1.441406 6.410156 -0.910156 5.828125 -0.515625 C 5.242188 -0.109375 4.597656 0.09375 3.890625 0.09375 C 2.941406 0.09375 2.128906 -0.253906 1.453125 -0.953125 C 0.785156 -1.640625 0.453125 -2.46875 0.453125 -3.4375 C 0.453125 -3.914062 0.539062 -4.375 0.71875 -4.8125 C 0.894531 -5.238281 1.140625 -5.613281 1.453125 -5.9375 C 2.128906 -6.632812 2.941406 -6.984375 3.890625 -6.984375 C 4.597656 -6.984375 5.242188 -6.785156 5.828125 -6.390625 C 6.398438 -5.984375 6.816406 -5.453125 7.078125 -4.796875 L 6.296875 -4.796875 C 5.921875 -5.484375 5.367188 -5.9375 4.640625 -6.15625 C 4.390625 -6.21875 4.109375 -6.25 3.796875 -6.25 C 3.472656 -6.25 3.144531 -6.175781 2.8125 -6.03125 C 2.488281 -5.875 2.203125 -5.671875 1.953125 -5.421875 C 1.429688 -4.867188 1.171875 -4.207031 1.171875 -3.4375 C 1.171875 -2.675781 1.429688 -2.019531 1.953125 -1.46875 C 2.492188 -0.90625 3.140625 -0.625 3.890625 -0.625 C 4.410156 -0.625 4.882812 -0.757812 5.3125 -1.03125 C 5.738281 -1.300781 6.070312 -1.660156 6.3125 -2.109375 Z M 7.09375 -2.109375 "/></g></g></g><g fill="#a6a6a6" fill-opacity="1"><g transform="translate(213.021633, 284.448848)"><g><path d="M 1.875 -2.53125 L 4.375 -2.53125 L 3.140625 -5.703125 Z M 6.15625 0 L 5.390625 0 L 4.640625 -1.875 L 1.609375 -1.875 L 0.875 0 L 0.09375 0 L 3.140625 -7.375 Z M 6.15625 0 "/></g></g></g><g fill="#a6a6a6" fill-opacity="1"><g transform="translate(221.093471, 284.448848)"><g><path d="M 1.46875 -5.078125 L 1.46875 0 L 0.765625 0 L 0.765625 -7.328125 L 4.640625 -1.828125 L 4.640625 -6.890625 L 5.34375 -6.890625 L 5.34375 0.421875 Z M 1.46875 -5.078125 "/></g></g></g><g fill="#a6a6a6" fill-opacity="1"><g transform="translate(229.013262, 284.448848)"><g/></g></g><g fill="#a6a6a6" fill-opacity="1"><g transform="translate(233.567644, 284.448848)"><g><path d="M 0.203125 -6.25 L 0.203125 -6.921875 L 4.265625 -6.921875 L 4.265625 -6.25 L 2.578125 -6.25 L 2.578125 -0.015625 L 1.875 -0.015625 L 1.875 -6.25 Z M 0.203125 -6.25 "/></g></g></g><g fill="#a6a6a6" fill-opacity="1"><g transform="translate(239.845278, 284.448848)"><g><path d="M 1.46875 -3.40625 L 3.078125 -3.40625 C 3.472656 -3.40625 3.800781 -3.539062 4.0625 -3.8125 C 4.320312 -4.09375 4.453125 -4.4375 4.453125 -4.84375 C 4.453125 -5.238281 4.328125 -5.566406 4.078125 -5.828125 C 3.828125 -6.085938 3.492188 -6.21875 3.078125 -6.21875 L 1.46875 -6.21875 Z M 5.15625 -4.8125 C 5.15625 -4.21875 4.941406 -3.71875 4.515625 -3.3125 C 4.140625 -2.957031 3.6875 -2.765625 3.15625 -2.734375 L 5.265625 0 L 4.3125 0 L 2.296875 -2.734375 L 1.46875 -2.734375 L 1.46875 0 L 0.765625 0 L 0.765625 -6.890625 L 2.96875 -6.890625 C 3.582031 -6.890625 4.097656 -6.695312 4.515625 -6.3125 C 4.941406 -5.90625 5.15625 -5.40625 5.15625 -4.8125 Z M 5.15625 -4.8125 "/></g></g></g><g fill="#a6a6a6" fill-opacity="1"><g transform="translate(247.17714, 284.448848)"><g><path d="M 5.75 -2.28125 C 5.75 -1.539062 5.503906 -0.953125 5.015625 -0.515625 C 4.554688 -0.109375 3.945312 0.09375 3.1875 0.09375 C 2.414062 0.09375 1.800781 -0.109375 1.34375 -0.515625 C 0.851562 -0.953125 0.609375 -1.539062 0.609375 -2.28125 L 0.609375 -6.890625 L 1.3125 -6.890625 L 1.3125 -2.1875 C 1.3125 -1.664062 1.503906 -1.265625 1.890625 -0.984375 C 2.210938 -0.742188 2.644531 -0.625 3.1875 -0.625 C 4.03125 -0.625 4.597656 -0.90625 4.890625 -1.46875 C 4.992188 -1.664062 5.046875 -1.90625 5.046875 -2.1875 L 5.046875 -6.890625 L 5.75 -6.890625 Z M 5.75 -2.28125 "/></g></g></g><g fill="#a6a6a6" fill-opacity="1"><g transform="translate(255.35035, 284.448848)"><g><path d="M 2.671875 -3.25 C 1.265625 -3.570312 0.5625 -4.175781 0.5625 -5.0625 C 0.5625 -5.707031 0.789062 -6.191406 1.25 -6.515625 C 1.695312 -6.835938 2.226562 -7 2.84375 -7 C 4.1875 -7 4.984375 -6.5 5.234375 -5.5 L 4.46875 -5.5 C 4.332031 -6.09375 3.789062 -6.390625 2.84375 -6.390625 C 2.175781 -6.390625 1.710938 -6.191406 1.453125 -5.796875 C 1.347656 -5.648438 1.296875 -5.46875 1.296875 -5.25 C 1.296875 -4.820312 1.523438 -4.492188 1.984375 -4.265625 C 2.203125 -4.148438 2.660156 -4 3.359375 -3.8125 C 4.066406 -3.632812 4.578125 -3.429688 4.890625 -3.203125 C 5.335938 -2.890625 5.5625 -2.453125 5.5625 -1.890625 C 5.5625 -1.203125 5.285156 -0.675781 4.734375 -0.3125 C 4.273438 -0.0195312 3.707031 0.125 3.03125 0.125 C 1.5 0.125 0.613281 -0.453125 0.375 -1.609375 L 1.21875 -1.609375 C 1.34375 -0.878906 1.945312 -0.515625 3.03125 -0.515625 C 3.800781 -0.515625 4.335938 -0.726562 4.640625 -1.15625 C 4.765625 -1.320312 4.828125 -1.550781 4.828125 -1.84375 C 4.828125 -2.125 4.71875 -2.359375 4.5 -2.546875 C 4.175781 -2.804688 3.566406 -3.039062 2.671875 -3.25 Z M 2.671875 -3.25 "/></g></g></g><g fill="#a6a6a6" fill-opacity="1"><g transform="translate(262.986305, 284.448848)"><g><path d="M 0.203125 -6.25 L 0.203125 -6.921875 L 4.265625 -6.921875 L 4.265625 -6.25 L 2.578125 -6.25 L 2.578125 -0.015625 L 1.875 -0.015625 L 1.875 -6.25 Z M 0.203125 -6.25 "/></g></g></g><g clip-path="url(#a2ddcf5b4c)"><g clip-path="url(#9ab0a8059f)"><g clip-path="url(#e46703c653)"><path fill="#b0d2f2" d="M 221.761719 181.421875 C 225.167969 176.703125 231.230469 175.21875 234.25 180.140625 C 239.867188 189.269531 217.988281 197.972656 217.988281 197.972656 C 210.449219 187.898438 205.242188 179.570312 212.265625 175.023438 C 216.199219 172.46875 220.820312 175.878906 221.761719 181.421875 Z M 221.761719 181.421875 " fill-opacity="1" fill-rule="nonzero"/></g></g></g><g fill="#518ac0" fill-opacity="1"><g transform="translate(107.264331, 266.407026)"><g><path d="M 25.75 -5.28125 C 26.382812 -4.3125 26.382812 -3.394531 25.75 -2.53125 C 25.007812 -1.5625 24.253906 -0.910156 23.484375 -0.578125 C 21.066406 0.546875 18.414062 1.175781 15.53125 1.3125 C 11.25 1 7.773438 -0.394531 5.109375 -2.875 C 1.546875 -6.195312 0.453125 -10.507812 1.828125 -15.8125 C 2.835938 -19.800781 5.304688 -23.054688 9.234375 -25.578125 C 10.140625 -26.148438 11.085938 -26.578125 12.078125 -26.859375 C 13.078125 -27.140625 14.070312 -27.28125 15.0625 -27.28125 C 16.238281 -27.28125 17.375 -27.09375 18.46875 -26.71875 C 19.5625 -26.34375 20.554688 -25.785156 21.453125 -25.046875 C 22.128906 -24.484375 22.628906 -23.875 22.953125 -23.21875 C 23.222656 -22.601562 23.195312 -22.0625 22.875 -21.59375 C 22.519531 -21.113281 21.976562 -20.921875 21.25 -21.015625 C 20.726562 -21.054688 20.15625 -21.210938 19.53125 -21.484375 C 17.1875 -22.429688 15.101562 -22.546875 13.28125 -21.828125 C 11.46875 -21.109375 9.78125 -19.503906 8.21875 -17.015625 C 7.882812 -16.484375 7.628906 -15.910156 7.453125 -15.296875 C 7.285156 -14.691406 7.160156 -14.140625 7.078125 -13.640625 C 6.753906 -12.054688 6.960938 -10.566406 7.703125 -9.171875 C 8.453125 -7.773438 9.609375 -6.703125 11.171875 -5.953125 C 12.390625 -5.347656 13.585938 -4.992188 14.765625 -4.890625 C 15.953125 -4.785156 17.09375 -4.832031 18.1875 -5.03125 C 19.28125 -5.238281 20.328125 -5.515625 21.328125 -5.859375 C 21.617188 -5.941406 21.9375 -6.035156 22.28125 -6.140625 C 22.632812 -6.242188 22.96875 -6.316406 23.28125 -6.359375 C 24.363281 -6.472656 25.1875 -6.113281 25.75 -5.28125 Z M 25.75 -5.28125 "/></g></g></g><g fill="#518ac0" fill-opacity="1"><g transform="translate(134.70934, 266.407026)"><g><path d="M 17.390625 -6.765625 C 17.617188 -5.753906 17.628906 -4.90625 17.421875 -4.21875 C 17.222656 -3.53125 16.796875 -3.050781 16.140625 -2.78125 C 15.441406 -2.476562 14.753906 -2.476562 14.078125 -2.78125 C 13.398438 -3.09375 12.769531 -3.675781 12.1875 -4.53125 C 12.132812 -4.601562 12.070312 -4.675781 12 -4.75 C 11.9375 -4.832031 11.875 -4.929688 11.8125 -5.046875 C 11.632812 -4.929688 11.46875 -4.8125 11.3125 -4.6875 C 11.164062 -4.5625 11.003906 -4.453125 10.828125 -4.359375 C 10.359375 -4.140625 9.882812 -3.898438 9.40625 -3.640625 C 8.9375 -3.378906 8.441406 -3.191406 7.921875 -3.078125 C 6.660156 -2.765625 5.503906 -2.820312 4.453125 -3.25 C 3.398438 -3.675781 2.578125 -4.375 1.984375 -5.34375 C 1.398438 -6.3125 1.164062 -7.453125 1.28125 -8.765625 C 1.351562 -9.828125 1.628906 -10.863281 2.109375 -11.875 C 2.597656 -12.894531 3.21875 -13.835938 3.96875 -14.703125 C 4.726562 -15.578125 5.582031 -16.304688 6.53125 -16.890625 C 7.476562 -17.472656 8.445312 -17.84375 9.4375 -18 C 10.570312 -18.207031 11.59375 -18.085938 12.5 -17.640625 C 13.414062 -17.203125 14.289062 -16.671875 15.125 -16.046875 C 15.394531 -15.835938 15.59375 -15.519531 15.71875 -15.09375 C 15.84375 -14.664062 15.941406 -14.257812 16.015625 -13.875 C 16.285156 -12.695312 16.519531 -11.507812 16.71875 -10.3125 C 16.914062 -9.125 17.140625 -7.941406 17.390625 -6.765625 Z M 7.609375 -7.984375 C 8.648438 -8.390625 9.441406 -9.144531 9.984375 -10.25 C 10.523438 -11.351562 10.679688 -12.550781 10.453125 -13.84375 C 9.328125 -13.394531 8.441406 -12.753906 7.796875 -11.921875 C 7.160156 -11.097656 6.648438 -10.160156 6.265625 -9.109375 C 6.210938 -8.941406 6.1875 -8.722656 6.1875 -8.453125 C 6.1875 -8.191406 6.234375 -8.035156 6.328125 -7.984375 C 6.503906 -7.898438 6.710938 -7.859375 6.953125 -7.859375 C 7.191406 -7.859375 7.410156 -7.898438 7.609375 -7.984375 Z M 7.609375 -7.984375 "/></g></g></g><g fill="#518ac0" fill-opacity="1"><g transform="translate(153.558751, 266.407026)"><g><path d="M 15.203125 -13.4375 C 15.285156 -13.125 15.296875 -12.753906 15.234375 -12.328125 C 15.179688 -11.910156 15.054688 -11.59375 14.859375 -11.375 C 14.679688 -11.144531 14.394531 -10.988281 14 -10.90625 C 13.601562 -10.832031 13.234375 -10.804688 12.890625 -10.828125 C 12.554688 -10.847656 12.21875 -10.941406 11.875 -11.109375 C 11.539062 -11.285156 11.210938 -11.453125 10.890625 -11.609375 C 10.441406 -11.835938 10.046875 -11.898438 9.703125 -11.796875 C 9.367188 -11.691406 9.132812 -11.425781 9 -11 C 8.4375 -9.4375 7.972656 -7.832031 7.609375 -6.1875 C 7.523438 -5.832031 7.507812 -5.457031 7.5625 -5.0625 C 7.625 -4.664062 7.628906 -4.273438 7.578125 -3.890625 C 7.515625 -3.054688 7.207031 -2.375 6.65625 -1.84375 C 6.101562 -1.3125 5.441406 -1.023438 4.671875 -0.984375 C 3.878906 -0.929688 3.1875 -1.132812 2.59375 -1.59375 C 2.007812 -2.0625 1.617188 -2.703125 1.421875 -3.515625 C 1.378906 -3.722656 1.335938 -3.925781 1.296875 -4.125 C 1.265625 -4.332031 1.25 -4.546875 1.25 -4.765625 C 1.269531 -6.773438 1.285156 -8.789062 1.296875 -10.8125 C 1.304688 -12.832031 1.328125 -14.847656 1.359375 -16.859375 C 1.359375 -17.054688 1.367188 -17.273438 1.390625 -17.515625 C 1.410156 -17.753906 1.488281 -17.941406 1.625 -18.078125 C 1.851562 -18.347656 2.109375 -18.632812 2.390625 -18.9375 C 2.671875 -19.238281 2.957031 -19.398438 3.25 -19.421875 C 3.539062 -19.441406 3.859375 -19.34375 4.203125 -19.125 C 4.554688 -18.914062 4.859375 -18.675781 5.109375 -18.40625 C 5.316406 -18.1875 5.46875 -17.898438 5.5625 -17.546875 C 5.664062 -17.191406 5.785156 -16.835938 5.921875 -16.484375 C 8.085938 -17.648438 10.234375 -17.695312 12.359375 -16.625 C 13.054688 -16.28125 13.648438 -15.847656 14.140625 -15.328125 C 14.640625 -14.804688 14.992188 -14.175781 15.203125 -13.4375 Z M 15.203125 -13.4375 "/></g></g></g><g fill="#518ac0" fill-opacity="1"><g transform="translate(170.106973, 266.407026)"><g><path d="M 14.59375 -16.375 C 15.445312 -15.5 15.941406 -14.546875 16.078125 -13.515625 C 16.210938 -12.492188 16.007812 -11.546875 15.46875 -10.671875 C 14.925781 -9.804688 14.078125 -9.171875 12.921875 -8.765625 C 12.003906 -8.453125 11.039062 -8.234375 10.03125 -8.109375 C 9.03125 -7.984375 8 -7.816406 6.9375 -7.609375 C 7.25 -7.523438 7.550781 -7.429688 7.84375 -7.328125 C 8.144531 -7.222656 8.441406 -7.148438 8.734375 -7.109375 C 9.316406 -6.992188 9.90625 -6.90625 10.5 -6.84375 C 11.101562 -6.789062 11.6875 -6.675781 12.25 -6.5 C 13.0625 -6.226562 13.550781 -5.769531 13.71875 -5.125 C 13.894531 -4.476562 13.675781 -3.851562 13.0625 -3.25 C 12.75 -2.90625 12.351562 -2.601562 11.875 -2.34375 C 11.40625 -2.09375 10.941406 -1.941406 10.484375 -1.890625 C 8.410156 -1.691406 6.660156 -1.957031 5.234375 -2.6875 C 3.816406 -3.425781 2.769531 -4.472656 2.09375 -5.828125 C 1.414062 -7.179688 1.144531 -8.691406 1.28125 -10.359375 C 1.375 -11.390625 1.554688 -12.382812 1.828125 -13.34375 C 2.097656 -14.3125 2.523438 -15.234375 3.109375 -16.109375 C 3.859375 -17.253906 4.816406 -18.082031 5.984375 -18.59375 C 7.160156 -19.101562 8.425781 -19.222656 9.78125 -18.953125 C 11.695312 -18.609375 13.300781 -17.75 14.59375 -16.375 Z M 11.609375 -13.125 C 11.648438 -13.125 11.695312 -13.140625 11.75 -13.171875 C 11.8125 -13.210938 11.890625 -13.253906 11.984375 -13.296875 C 11.554688 -13.910156 11.019531 -14.347656 10.375 -14.609375 C 9.726562 -14.867188 9.125 -14.914062 8.5625 -14.75 C 8.039062 -14.59375 7.65625 -14.328125 7.40625 -13.953125 C 7.164062 -13.585938 6.976562 -13.144531 6.84375 -12.625 C 7.675781 -12.71875 8.484375 -12.800781 9.265625 -12.875 C 10.054688 -12.957031 10.835938 -13.039062 11.609375 -13.125 Z M 11.609375 -13.125 "/></g></g></g><g fill="#b0d2f2" fill-opacity="1"><g transform="translate(189.668892, 266.407026)"><g><path d="M 25.34375 -24.234375 C 25.476562 -23.554688 25.546875 -22.832031 25.546875 -22.0625 L 25.484375 -19.296875 C 25.441406 -17.148438 25.394531 -14.972656 25.34375 -12.765625 C 25.300781 -10.566406 25.234375 -8.375 25.140625 -6.1875 C 25.078125 -3.84375 24.390625 -2.3125 23.078125 -1.59375 C 21.816406 -0.894531 20.191406 -1.109375 18.203125 -2.234375 C 17.191406 -2.816406 16.257812 -3.519531 15.40625 -4.34375 C 14.5625 -5.164062 13.867188 -5.90625 13.328125 -6.5625 C 12.648438 -7.332031 12.003906 -8.140625 11.390625 -8.984375 C 10.785156 -9.828125 10.191406 -10.664062 9.609375 -11.5 C 9.359375 -11.84375 9.113281 -12.179688 8.875 -12.515625 C 8.644531 -12.859375 8.40625 -13.195312 8.15625 -13.53125 L 8.015625 -13.78125 C 7.878906 -13.957031 7.734375 -14.140625 7.578125 -14.328125 C 7.421875 -14.523438 7.21875 -14.710938 6.96875 -14.890625 L 6.390625 -15.328125 L 6.390625 -14.25 C 6.390625 -14.113281 6.390625 -13.984375 6.390625 -13.859375 C 6.390625 -13.734375 6.390625 -13.601562 6.390625 -13.46875 L 6.296875 -11.265625 C 6.253906 -9.867188 6.207031 -8.453125 6.15625 -7.015625 C 6.113281 -5.585938 6.054688 -4.175781 5.984375 -2.78125 C 5.960938 -2.257812 5.816406 -1.738281 5.546875 -1.21875 C 5.210938 -0.519531 4.738281 -0.160156 4.125 -0.140625 C 3.539062 -0.0859375 3.054688 -0.390625 2.671875 -1.046875 C 2.304688 -1.585938 2.101562 -2.117188 2.0625 -2.640625 C 1.632812 -6.179688 1.375 -9.441406 1.28125 -12.421875 C 1.195312 -15.398438 1.273438 -18.253906 1.515625 -20.984375 C 1.546875 -21.453125 1.671875 -21.945312 1.890625 -22.46875 C 2.253906 -23.394531 2.851562 -24.003906 3.6875 -24.296875 C 4 -24.390625 4.304688 -24.4375 4.609375 -24.4375 C 5.148438 -24.4375 5.664062 -24.289062 6.15625 -24 C 6.882812 -23.59375 7.492188 -23.070312 7.984375 -22.4375 C 8.546875 -21.71875 9.109375 -20.984375 9.671875 -20.234375 C 10.242188 -19.492188 10.800781 -18.757812 11.34375 -18.03125 C 11.65625 -17.625 11.960938 -17.21875 12.265625 -16.8125 C 12.566406 -16.414062 12.878906 -16.015625 13.203125 -15.609375 C 13.742188 -14.878906 14.285156 -14.164062 14.828125 -13.46875 C 15.367188 -12.769531 15.910156 -12.0625 16.453125 -11.34375 L 18.109375 -9.203125 L 18.984375 -9.546875 L 19.015625 -10.15625 C 19.035156 -10.289062 19.046875 -10.425781 19.046875 -10.5625 C 19.046875 -10.695312 19.0625 -10.832031 19.09375 -10.96875 C 19.09375 -11.488281 19.101562 -12.003906 19.125 -12.515625 C 19.144531 -13.035156 19.15625 -13.554688 19.15625 -14.078125 C 19.195312 -15.367188 19.238281 -16.664062 19.28125 -17.96875 C 19.332031 -19.28125 19.378906 -20.585938 19.421875 -21.890625 C 19.492188 -22.890625 19.707031 -23.863281 20.0625 -24.8125 C 20.3125 -25.414062 20.703125 -25.875 21.234375 -26.1875 C 21.765625 -26.507812 22.347656 -26.632812 22.984375 -26.5625 C 23.566406 -26.5 24.078125 -26.253906 24.515625 -25.828125 C 24.960938 -25.398438 25.238281 -24.867188 25.34375 -24.234375 Z M 25.34375 -24.234375 "/></g></g></g><g fill="#b0d2f2" fill-opacity="1"><g transform="translate(216.504767, 266.407026)"><g><path d="M 14.59375 -16.375 C 15.445312 -15.5 15.941406 -14.546875 16.078125 -13.515625 C 16.210938 -12.492188 16.007812 -11.546875 15.46875 -10.671875 C 14.925781 -9.804688 14.078125 -9.171875 12.921875 -8.765625 C 12.003906 -8.453125 11.039062 -8.234375 10.03125 -8.109375 C 9.03125 -7.984375 8 -7.816406 6.9375 -7.609375 C 7.25 -7.523438 7.550781 -7.429688 7.84375 -7.328125 C 8.144531 -7.222656 8.441406 -7.148438 8.734375 -7.109375 C 9.316406 -6.992188 9.90625 -6.90625 10.5 -6.84375 C 11.101562 -6.789062 11.6875 -6.675781 12.25 -6.5 C 13.0625 -6.226562 13.550781 -5.769531 13.71875 -5.125 C 13.894531 -4.476562 13.675781 -3.851562 13.0625 -3.25 C 12.75 -2.90625 12.351562 -2.601562 11.875 -2.34375 C 11.40625 -2.09375 10.941406 -1.941406 10.484375 -1.890625 C 8.410156 -1.691406 6.660156 -1.957031 5.234375 -2.6875 C 3.816406 -3.425781 2.769531 -4.472656 2.09375 -5.828125 C 1.414062 -7.179688 1.144531 -8.691406 1.28125 -10.359375 C 1.375 -11.390625 1.554688 -12.382812 1.828125 -13.34375 C 2.097656 -14.3125 2.523438 -15.234375 3.109375 -16.109375 C 3.859375 -17.253906 4.816406 -18.082031 5.984375 -18.59375 C 7.160156 -19.101562 8.425781 -19.222656 9.78125 -18.953125 C 11.695312 -18.609375 13.300781 -17.75 14.59375 -16.375 Z M 11.609375 -13.125 C 11.648438 -13.125 11.695312 -13.140625 11.75 -13.171875 C 11.8125 -13.210938 11.890625 -13.253906 11.984375 -13.296875 C 11.554688 -13.910156 11.019531 -14.347656 10.375 -14.609375 C 9.726562 -14.867188 9.125 -14.914062 8.5625 -14.75 C 8.039062 -14.59375 7.65625 -14.328125 7.40625 -13.953125 C 7.164062 -13.585938 6.976562 -13.144531 6.84375 -12.625 C 7.675781 -12.71875 8.484375 -12.800781 9.265625 -12.875 C 10.054688 -12.957031 10.835938 -13.039062 11.609375 -13.125 Z M 11.609375 -13.125 "/></g></g></g><g fill="#b0d2f2" fill-opacity="1"><g transform="translate(233.899016, 266.407026)"><g><path d="M 12.890625 -9.8125 C 13.929688 -8.84375 14.539062 -7.8125 14.71875 -6.71875 C 14.90625 -5.625 14.695312 -4.601562 14.09375 -3.65625 C 13.5 -2.707031 12.535156 -1.984375 11.203125 -1.484375 C 10.566406 -1.234375 9.898438 -1.035156 9.203125 -0.890625 C 8.503906 -0.742188 7.828125 -0.695312 7.171875 -0.75 C 6.566406 -0.789062 5.953125 -0.925781 5.328125 -1.15625 C 4.710938 -1.394531 4.132812 -1.6875 3.59375 -2.03125 C 2.957031 -2.4375 2.550781 -2.972656 2.375 -3.640625 C 2.207031 -4.304688 2.25 -4.921875 2.5 -5.484375 C 2.75 -6.023438 3.160156 -6.421875 3.734375 -6.671875 C 4.316406 -6.921875 4.988281 -7 5.75 -6.90625 C 6.289062 -6.832031 6.828125 -6.773438 7.359375 -6.734375 C 7.890625 -6.691406 8.414062 -6.644531 8.9375 -6.59375 C 8.957031 -6.664062 8.976562 -6.734375 9 -6.796875 C 9.019531 -6.867188 9.039062 -6.953125 9.0625 -7.046875 C 8.664062 -7.179688 8.253906 -7.316406 7.828125 -7.453125 C 7.410156 -7.585938 7.015625 -7.742188 6.640625 -7.921875 C 5.960938 -8.253906 5.285156 -8.578125 4.609375 -8.890625 C 3.929688 -9.210938 3.320312 -9.609375 2.78125 -10.078125 C 1.894531 -10.828125 1.394531 -11.707031 1.28125 -12.71875 C 1.164062 -13.738281 1.367188 -14.753906 1.890625 -15.765625 C 2.410156 -16.765625 3.164062 -17.585938 4.15625 -18.234375 C 5.15625 -18.890625 6.234375 -19.332031 7.390625 -19.5625 C 8.554688 -19.789062 9.671875 -19.734375 10.734375 -19.390625 C 11.546875 -19.140625 12.207031 -18.75 12.71875 -18.21875 C 13.238281 -17.6875 13.546875 -17.003906 13.640625 -16.171875 C 13.679688 -15.835938 13.640625 -15.476562 13.515625 -15.09375 C 13.390625 -14.707031 13.21875 -14.378906 13 -14.109375 C 12.726562 -13.773438 12.398438 -13.648438 12.015625 -13.734375 C 11.628906 -13.828125 11.253906 -13.960938 10.890625 -14.140625 C 10.078125 -14.597656 9.347656 -14.769531 8.703125 -14.65625 C 8.066406 -14.539062 7.445312 -14.125 6.84375 -13.40625 C 7.132812 -13.269531 7.398438 -13.144531 7.640625 -13.03125 C 7.890625 -12.914062 8.128906 -12.789062 8.359375 -12.65625 C 9.128906 -12.207031 9.921875 -11.765625 10.734375 -11.328125 C 11.546875 -10.898438 12.265625 -10.394531 12.890625 -9.8125 Z M 12.890625 -9.8125 "/></g></g></g><g fill="#b0d2f2" fill-opacity="1"><g transform="translate(249.973462, 266.407026)"><g><path d="M 14.140625 -5.890625 C 14.328125 -5.367188 14.335938 -4.894531 14.171875 -4.46875 C 14.015625 -4.039062 13.75 -3.644531 13.375 -3.28125 C 12.800781 -2.757812 12.085938 -2.410156 11.234375 -2.234375 C 10.378906 -2.054688 9.5 -2.039062 8.59375 -2.1875 C 7.695312 -2.332031 6.921875 -2.664062 6.265625 -3.1875 C 4.679688 -4.375 3.789062 -5.960938 3.59375 -7.953125 C 3.5 -8.628906 3.441406 -9.316406 3.421875 -10.015625 C 3.398438 -10.710938 3.375 -11.398438 3.34375 -12.078125 C 3.34375 -12.421875 3.289062 -12.695312 3.1875 -12.90625 C 3.09375 -13.125 2.890625 -13.289062 2.578125 -13.40625 C 2.117188 -13.582031 1.757812 -13.835938 1.5 -14.171875 C 1.238281 -14.515625 1.175781 -14.910156 1.3125 -15.359375 C 1.425781 -15.703125 1.625 -16.035156 1.90625 -16.359375 C 2.1875 -16.691406 2.488281 -16.910156 2.8125 -17.015625 C 3.21875 -17.203125 3.523438 -17.40625 3.734375 -17.625 C 3.953125 -17.851562 4.070312 -18.191406 4.09375 -18.640625 C 4.113281 -19.046875 4.160156 -19.445312 4.234375 -19.84375 C 4.316406 -20.238281 4.394531 -20.640625 4.46875 -21.046875 C 4.71875 -22.421875 5.316406 -23.097656 6.265625 -23.078125 C 7.234375 -23.054688 7.816406 -22.359375 8.015625 -20.984375 C 8.085938 -20.503906 8.128906 -20.019531 8.140625 -19.53125 C 8.148438 -19.050781 8.15625 -18.578125 8.15625 -18.109375 C 8.15625 -17.472656 8.472656 -17.144531 9.109375 -17.125 C 9.515625 -17.101562 9.921875 -17.070312 10.328125 -17.03125 C 10.734375 -17 11.125 -16.941406 11.5 -16.859375 C 12.132812 -16.703125 12.617188 -16.378906 12.953125 -15.890625 C 13.296875 -15.398438 13.445312 -14.875 13.40625 -14.3125 C 13.351562 -13.726562 13.113281 -13.226562 12.6875 -12.8125 C 12.257812 -12.394531 11.726562 -12.160156 11.09375 -12.109375 C 10.644531 -12.066406 10.175781 -12.050781 9.6875 -12.0625 C 9.207031 -12.070312 8.648438 -12.078125 8.015625 -12.078125 C 8.109375 -11.398438 8.1875 -10.71875 8.25 -10.03125 C 8.320312 -9.34375 8.414062 -8.660156 8.53125 -7.984375 C 8.613281 -7.578125 8.804688 -7.285156 9.109375 -7.109375 C 9.421875 -6.929688 9.78125 -6.863281 10.1875 -6.90625 C 10.457031 -6.945312 10.722656 -6.992188 10.984375 -7.046875 C 11.242188 -7.109375 11.507812 -7.148438 11.78125 -7.171875 C 12.300781 -7.222656 12.769531 -7.148438 13.1875 -6.953125 C 13.601562 -6.765625 13.921875 -6.410156 14.140625 -5.890625 Z M 14.140625 -5.890625 "/></g></g></g></svg>