<svg xmlns="http://www.w3.org/2000/svg" xmlns:xlink="http://www.w3.org/1999/xlink" width="500" zoomAndPan="magnify" viewBox="0 0 375 374.999991" height="500" preserveAspectRatio="xMidYMid meet" version="1.0"><defs><g/><clipPath id="b8edc29143"><path d="M 68 6.332031 L 314 6.332031 L 314 256 L 68 256 Z M 68 6.332031 " clip-rule="nonzero"/></clipPath><clipPath id="84a0630802"><path d="M 210 44 L 265 44 L 265 93 L 210 93 Z M 210 44 " clip-rule="nonzero"/></clipPath><clipPath id="7965f5696c"><path d="M 208.507812 34.960938 L 279.421875 52.484375 L 267.007812 102.714844 L 196.097656 85.191406 Z M 208.507812 34.960938 " clip-rule="nonzero"/></clipPath><clipPath id="25acb07633"><path d="M 208.507812 34.960938 L 279.421875 52.484375 L 267.007812 102.714844 L 196.097656 85.191406 Z M 208.507812 34.960938 " clip-rule="nonzero"/></clipPath><clipPath id="2c6f2821f8"><path d="M 231 139 L 285 139 L 285 188 L 231 188 Z M 231 139 " clip-rule="nonzero"/></clipPath><clipPath id="596a25cf8d"><path d="M 228.589844 129.714844 L 299.5 147.234375 L 287.089844 197.464844 L 216.179688 179.941406 Z M 228.589844 129.714844 " clip-rule="nonzero"/></clipPath><clipPath id="4c6801ae64"><path d="M 228.589844 129.714844 L 299.5 147.234375 L 287.089844 197.464844 L 216.179688 179.941406 Z M 228.589844 129.714844 " clip-rule="nonzero"/></clipPath></defs><g clip-path="url(#b8edc29143)"><path fill="#518ac0" d="M 196.28125 106.128906 C 196.261719 106.054688 188.96875 80.445312 152.261719 83.578125 C 151.550781 83.640625 150.914062 83.703125 150.351562 83.765625 C 132.617188 85.753906 118.652344 94.015625 109.421875 105.207031 C 100.214844 116.371094 95.710938 130.445312 96.875 144.101562 C 96.917969 144.601562 96.960938 145.03125 97 145.394531 C 97.648438 151.152344 99.304688 157.675781 102.039062 164.210938 C 106.386719 174.601562 113.457031 184.984375 123.511719 192.292969 C 133.515625 199.566406 146.527344 203.804688 162.832031 201.976562 C 170.128906 201.15625 178.097656 199.125 186.757812 195.609375 L 186.804688 195.273438 C 186.835938 195.054688 186.871094 194.808594 186.910156 194.554688 L 186.921875 194.480469 L 186.964844 194.207031 L 187.003906 193.980469 L 187.039062 193.765625 L 187.09375 193.464844 L 187.132812 193.242188 L 187.195312 192.910156 L 187.234375 192.710938 L 187.3125 192.308594 L 187.347656 192.125 L 187.449219 191.652344 L 187.476562 191.523438 C 187.566406 191.097656 187.667969 190.65625 187.777344 190.195312 L 187.789062 190.152344 C 187.839844 189.945312 187.890625 189.730469 187.945312 189.515625 L 187.988281 189.363281 C 188.035156 189.179688 188.082031 188.996094 188.132812 188.808594 L 188.183594 188.621094 C 188.230469 188.4375 188.285156 188.25 188.335938 188.0625 L 188.386719 187.886719 C 188.445312 187.683594 188.503906 187.476562 188.566406 187.269531 L 188.605469 187.140625 C 188.679688 186.898438 188.753906 186.65625 188.832031 186.410156 L 188.84375 186.375 C 189.179688 185.304688 189.570312 184.191406 190.015625 183.050781 L 190.046875 182.972656 C 190.144531 182.722656 190.246094 182.472656 190.351562 182.21875 L 190.40625 182.082031 C 190.507812 181.84375 190.609375 181.601562 190.714844 181.355469 L 190.773438 181.21875 C 190.878906 180.980469 190.988281 180.738281 191.097656 180.5 L 191.164062 180.355469 C 191.28125 180.097656 191.402344 179.839844 191.53125 179.578125 L 191.566406 179.5 C 192.132812 178.339844 192.757812 177.175781 193.457031 176.019531 L 193.535156 175.890625 C 193.679688 175.652344 193.828125 175.414062 193.980469 175.175781 L 194.089844 175.003906 C 194.238281 174.777344 194.386719 174.550781 194.539062 174.324219 L 194.660156 174.148438 C 194.8125 173.925781 194.96875 173.703125 195.125 173.484375 L 195.25 173.308594 C 195.417969 173.078125 195.589844 172.847656 195.765625 172.617188 L 195.859375 172.488281 C 196.496094 171.65625 197.179688 170.84375 197.90625 170.054688 L 197.941406 170.015625 C 198.164062 169.773438 198.390625 169.535156 198.621094 169.300781 L 198.777344 169.144531 C 198.972656 168.949219 199.167969 168.753906 199.371094 168.5625 L 199.574219 168.371094 C 199.769531 168.191406 199.964844 168.011719 200.164062 167.832031 L 200.378906 167.640625 C 200.578125 167.46875 200.78125 167.296875 200.984375 167.125 L 201.214844 166.933594 C 201.429688 166.761719 201.648438 166.589844 201.871094 166.417969 L 202.070312 166.261719 C 202.320312 166.074219 202.574219 165.886719 202.835938 165.703125 L 202.960938 165.613281 C 203.570312 165.183594 204.207031 164.769531 204.863281 164.378906 C 204.921875 164.34375 204.984375 164.3125 205.042969 164.277344 C 205.304688 164.125 205.570312 163.972656 205.839844 163.824219 C 205.941406 163.769531 206.039062 163.71875 206.136719 163.667969 C 206.378906 163.539062 206.621094 163.414062 206.867188 163.292969 C 206.976562 163.238281 207.089844 163.183594 207.199219 163.132812 C 207.4375 163.015625 207.679688 162.90625 207.921875 162.796875 C 208.042969 162.738281 208.167969 162.6875 208.292969 162.632812 C 208.53125 162.527344 208.769531 162.429688 209.011719 162.332031 C 209.144531 162.28125 209.273438 162.226562 209.40625 162.175781 C 209.664062 162.074219 209.925781 161.980469 210.1875 161.886719 C 210.304688 161.847656 210.417969 161.804688 210.535156 161.761719 C 210.84375 161.65625 211.15625 161.558594 211.46875 161.460938 C 211.550781 161.4375 211.628906 161.410156 211.710938 161.382812 C 212.507812 161.144531 213.332031 160.933594 214.183594 160.746094 C 214.3125 160.71875 214.441406 160.695312 214.570312 160.667969 C 214.871094 160.609375 215.171875 160.546875 215.476562 160.492188 C 215.632812 160.464844 215.789062 160.441406 215.949219 160.417969 C 216.226562 160.371094 216.507812 160.328125 216.789062 160.285156 C 216.96875 160.261719 217.152344 160.238281 217.332031 160.214844 C 217.605469 160.183594 217.882812 160.152344 218.160156 160.121094 C 218.347656 160.101562 218.535156 160.085938 218.726562 160.066406 C 219.011719 160.042969 219.296875 160.023438 219.585938 160.003906 C 219.773438 159.992188 219.957031 159.980469 220.144531 159.96875 C 220.441406 159.953125 220.746094 159.945312 221.050781 159.933594 C 221.242188 159.929688 221.429688 159.921875 221.625 159.917969 C 221.949219 159.914062 222.28125 159.914062 222.617188 159.917969 C 222.78125 159.917969 222.949219 159.917969 223.117188 159.917969 C 223.621094 159.925781 224.136719 159.945312 224.65625 159.96875 C 222.855469 159.175781 220.410156 158.359375 217.089844 157.636719 L 216.847656 157.582031 L 216.605469 157.523438 L 216.363281 157.460938 L 216.128906 157.398438 L 215.660156 157.257812 L 215.433594 157.183594 C 215.355469 157.160156 215.28125 157.132812 215.203125 157.105469 L 214.980469 157.027344 L 214.757812 156.945312 L 214.539062 156.859375 L 214.109375 156.679688 L 213.898438 156.585938 L 213.6875 156.488281 L 213.484375 156.390625 L 213.277344 156.289062 L 213.078125 156.183594 L 212.878906 156.074219 L 212.683594 155.964844 L 212.492188 155.855469 L 212.300781 155.738281 L 212.113281 155.621094 L 211.929688 155.503906 L 211.746094 155.382812 L 211.566406 155.257812 L 211.390625 155.132812 L 211.21875 155.003906 L 211.214844 155.003906 L 211.046875 154.875 L 210.875 154.742188 L 210.546875 154.46875 L 210.386719 154.332031 L 210.230469 154.191406 L 210.074219 154.046875 L 209.921875 153.902344 L 209.773438 153.757812 L 209.625 153.609375 L 209.480469 153.460938 L 209.339844 153.308594 L 209.203125 153.15625 L 209.066406 153 L 208.933594 152.847656 L 208.804688 152.6875 L 208.554688 152.367188 L 208.433594 152.207031 L 208.199219 151.878906 L 208.085938 151.710938 L 207.976562 151.542969 L 207.765625 151.207031 L 207.664062 151.035156 L 207.566406 150.863281 L 207.472656 150.691406 L 207.378906 150.515625 L 207.289062 150.339844 L 207.203125 150.164062 L 207.121094 149.988281 L 207.039062 149.808594 L 206.960938 149.632812 L 206.886719 149.453125 L 206.816406 149.273438 L 206.785156 149.1875 L 206.78125 149.1875 L 206.75 149.105469 L 206.722656 149.023438 L 206.71875 149.023438 L 206.691406 148.9375 L 206.660156 148.855469 L 206.632812 148.769531 L 206.605469 148.6875 L 206.550781 148.515625 L 206.523438 148.433594 L 206.496094 148.347656 L 206.472656 148.265625 L 206.402344 148.007812 L 206.378906 147.925781 L 206.359375 147.839844 L 206.355469 147.839844 L 206.296875 147.582031 L 206.277344 147.5 L 206.277344 147.496094 L 206.257812 147.414062 L 206.238281 147.328125 L 206.144531 146.8125 L 206.121094 146.640625 L 206.105469 146.554688 L 206.097656 146.46875 L 206.085938 146.382812 L 206.085938 146.378906 L 206.074219 146.292969 L 206.066406 146.207031 L 206.054688 146.121094 L 206.039062 145.949219 L 206.035156 145.863281 L 206.027344 145.777344 L 206.023438 145.691406 L 206.015625 145.605469 L 206.003906 145.347656 L 206.003906 145.261719 L 206 145.175781 L 206 144.828125 L 206.007812 144.65625 L 206.007812 144.570312 L 206.011719 144.484375 L 206.015625 144.402344 L 206.015625 144.398438 L 206.023438 144.316406 L 206.027344 144.230469 L 206.035156 144.144531 L 206.039062 144.058594 L 206.046875 143.972656 L 206.058594 143.886719 L 206.066406 143.800781 C 206.269531 141.953125 206.949219 140.167969 208.132812 138.609375 L 208.230469 138.484375 L 208.242188 138.46875 L 208.332031 138.359375 L 208.339844 138.351562 L 208.394531 138.28125 L 208.453125 138.210938 L 208.503906 138.152344 L 208.566406 138.078125 L 208.605469 138.03125 L 208.6875 137.941406 L 208.726562 137.898438 L 208.816406 137.800781 L 208.839844 137.777344 L 208.949219 137.660156 L 209.039062 137.570312 L 209.085938 137.519531 L 209.097656 137.511719 L 209.21875 137.390625 L 209.335938 137.28125 L 209.351562 137.261719 L 209.371094 137.246094 L 209.480469 137.148438 L 209.515625 137.113281 L 209.613281 137.027344 L 209.664062 136.984375 L 209.738281 136.917969 L 209.804688 136.863281 L 209.882812 136.800781 L 209.941406 136.75 L 210.023438 136.683594 L 210.089844 136.632812 L 210.105469 136.621094 L 210.21875 136.535156 L 210.242188 136.515625 L 210.371094 136.417969 L 210.378906 136.414062 L 210.519531 136.3125 L 210.527344 136.304688 L 210.664062 136.210938 L 210.6875 136.195312 L 210.808594 136.113281 L 210.851562 136.085938 L 210.878906 136.066406 L 210.996094 135.988281 L 211.046875 135.957031 L 211.144531 135.898438 L 211.230469 135.84375 L 211.289062 135.808594 L 211.394531 135.746094 L 211.410156 135.738281 L 211.527344 135.667969 L 211.566406 135.648438 L 211.703125 135.570312 L 211.726562 135.558594 L 211.882812 135.472656 L 211.886719 135.472656 L 212.050781 135.386719 L 212.066406 135.378906 L 212.101562 135.359375 L 212.242188 135.292969 L 212.28125 135.273438 L 212.425781 135.203125 L 212.46875 135.183594 L 212.613281 135.117188 L 212.644531 135.101562 L 212.804688 135.03125 L 212.84375 135.015625 L 212.988281 134.953125 L 213.039062 134.933594 L 213.179688 134.875 L 213.21875 134.859375 L 213.261719 134.84375 L 213.421875 134.78125 L 213.441406 134.773438 L 213.625 134.707031 L 213.628906 134.707031 L 213.8125 134.640625 L 214 134.578125 L 214.019531 134.570312 L 214.109375 134.542969 L 214.234375 134.503906 L 214.304688 134.480469 L 214.441406 134.4375 L 214.515625 134.417969 L 214.660156 134.375 L 214.726562 134.359375 L 214.878906 134.316406 L 214.933594 134.300781 L 215.097656 134.261719 L 215.15625 134.246094 L 215.371094 134.191406 L 215.386719 134.191406 L 215.59375 134.140625 L 215.601562 134.140625 L 215.804688 134.097656 L 215.835938 134.089844 L 215.871094 134.085938 L 216.054688 134.046875 L 216.113281 134.039062 L 216.289062 134.003906 L 216.359375 133.992188 L 216.527344 133.964844 L 216.585938 133.957031 L 216.746094 133.929688 L 216.847656 133.914062 L 217.015625 133.894531 L 217.0625 133.886719 L 217.253906 133.863281 L 217.304688 133.855469 L 217.339844 133.851562 L 217.558594 133.828125 L 217.566406 133.824219 L 217.796875 133.800781 L 217.816406 133.800781 L 217.855469 133.796875 L 218.070312 133.777344 L 218.101562 133.773438 L 218.320312 133.757812 L 218.371094 133.753906 L 218.59375 133.742188 L 218.625 133.738281 L 218.84375 133.726562 L 218.902344 133.726562 L 218.988281 133.722656 C 219.089844 132.878906 219.132812 132.019531 219.121094 131.15625 C 219.0625 126.285156 217.375 121.042969 214.40625 116.726562 C 211.488281 112.484375 207.335938 109.175781 202.300781 108.082031 C 201.039062 107.808594 199.738281 107.667969 198.40625 107.683594 C 197.40625 107.695312 196.558594 107.035156 196.285156 106.125 L 196.28125 106.125 Z M 163.796875 151.152344 C 165.847656 160.691406 162.273438 168.191406 151.191406 170.707031 C 167.054688 176.203125 174.699219 157.230469 163.796875 151.152344 Z M 191.941406 111.460938 C 192.96875 122.488281 188.65625 126.390625 181.328125 127.007812 C 181.328125 127.007812 191.726562 130.890625 195.433594 124.472656 C 199.140625 118.054688 194.613281 112.28125 191.941406 111.460938 Z M 272.945312 167.722656 C 272.652344 168.492188 242.753906 159.039062 242.464844 142.597656 C 240.328125 141.160156 233.667969 137.578125 220.957031 138.09375 L 220.929688 138.09375 C 220.871094 138.097656 220.816406 138.097656 220.757812 138.09375 L 220.753906 138.09375 L 220.539062 138.085938 L 220.535156 138.085938 L 220.324219 138.082031 L 220.320312 138.082031 L 220.113281 138.078125 L 219.691406 138.078125 L 219.492188 138.082031 L 219.488281 138.082031 L 219.289062 138.085938 L 219.285156 138.085938 L 219.089844 138.09375 L 219.085938 138.09375 L 218.890625 138.101562 L 218.886719 138.101562 L 218.695312 138.113281 L 218.691406 138.113281 L 218.503906 138.128906 L 218.5 138.128906 L 218.3125 138.144531 L 218.308594 138.144531 L 218.125 138.160156 L 218.121094 138.160156 L 217.9375 138.179688 L 217.753906 138.203125 L 217.574219 138.226562 L 217.570312 138.226562 L 217.394531 138.25 L 217.394531 138.253906 L 217.21875 138.28125 L 217.046875 138.308594 L 217.042969 138.308594 L 216.875 138.339844 L 216.871094 138.339844 L 216.707031 138.375 L 216.703125 138.375 L 216.539062 138.40625 L 216.535156 138.410156 L 216.375 138.445312 L 216.371094 138.445312 L 216.210938 138.484375 L 216.054688 138.523438 L 216.050781 138.523438 L 215.894531 138.566406 L 215.742188 138.609375 L 215.738281 138.609375 L 215.589844 138.65625 L 215.585938 138.65625 L 215.289062 138.75 L 215 138.851562 L 214.859375 138.90625 L 214.722656 138.960938 L 214.71875 138.960938 L 214.453125 139.078125 L 214.449219 139.078125 L 214.320312 139.136719 L 214.0625 139.261719 L 213.9375 139.324219 L 213.695312 139.457031 L 213.460938 139.597656 L 213.347656 139.667969 L 213.328125 139.679688 C 213.265625 139.71875 213.207031 139.757812 213.148438 139.796875 L 213.128906 139.8125 L 213.125 139.8125 L 213.019531 139.886719 L 212.914062 139.964844 L 212.710938 140.121094 L 212.613281 140.199219 L 212.425781 140.363281 L 212.335938 140.449219 L 212.332031 140.449219 L 212.246094 140.53125 L 212.15625 140.617188 L 212.074219 140.703125 L 212.050781 140.730469 C 211.621094 141.410156 211.28125 142.171875 211.054688 143.03125 C 209.570312 148.664062 213.007812 151.160156 218.507812 153.464844 L 218.585938 153.484375 L 218.878906 153.550781 L 219.175781 153.621094 L 219.433594 153.683594 L 219.75 153.765625 L 219.988281 153.824219 L 220.34375 153.917969 L 220.53125 153.96875 L 220.894531 154.070312 L 221.070312 154.117188 C 221.246094 154.167969 221.421875 154.21875 221.59375 154.269531 L 221.640625 154.285156 L 222.070312 154.414062 L 222.285156 154.484375 L 222.566406 154.574219 L 222.757812 154.636719 L 223.054688 154.738281 L 223.242188 154.800781 L 223.5625 154.914062 L 223.6875 154.957031 C 223.824219 155.007812 223.960938 155.058594 224.097656 155.109375 L 224.136719 155.121094 L 224.1875 155.140625 L 224.574219 155.289062 L 224.691406 155.335938 L 224.980469 155.453125 L 225.144531 155.519531 L 225.390625 155.621094 L 225.570312 155.699219 L 225.769531 155.785156 L 225.949219 155.867188 L 226.230469 155.992188 L 226.304688 156.027344 L 226.332031 156.039062 C 226.453125 156.09375 226.570312 156.152344 226.6875 156.207031 L 226.738281 156.234375 L 227.027344 156.375 L 227.164062 156.445312 L 227.378906 156.554688 L 227.507812 156.621094 L 227.703125 156.722656 L 227.832031 156.792969 L 228.082031 156.933594 L 228.136719 156.960938 C 228.242188 157.023438 228.34375 157.082031 228.449219 157.140625 L 228.449219 157.144531 C 228.550781 157.203125 228.652344 157.261719 228.746094 157.320312 L 228.8125 157.359375 L 229.03125 157.496094 L 229.117188 157.550781 L 229.296875 157.667969 L 229.40625 157.738281 L 229.5625 157.84375 L 229.652344 157.902344 C 229.816406 158.015625 229.976562 158.128906 230.128906 158.238281 L 230.207031 158.300781 L 230.367188 158.417969 L 230.445312 158.476562 L 230.589844 158.589844 L 230.65625 158.640625 L 230.820312 158.773438 L 230.863281 158.808594 L 231.03125 158.949219 L 231.066406 158.980469 L 231.257812 159.144531 L 231.417969 159.289062 L 231.480469 159.34375 L 231.617188 159.46875 L 231.660156 159.511719 L 231.785156 159.632812 L 231.957031 159.804688 L 231.972656 159.824219 L 232.089844 159.941406 L 232.121094 159.976562 L 232.128906 159.984375 L 232.253906 160.117188 L 232.265625 160.132812 L 232.292969 160.164062 L 232.398438 160.28125 L 232.414062 160.296875 L 232.507812 160.40625 L 232.570312 160.480469 L 232.585938 160.5 L 232.652344 160.578125 L 232.746094 160.695312 L 232.765625 160.71875 L 232.78125 160.738281 L 232.871094 160.855469 L 232.953125 160.964844 L 232.96875 160.988281 L 232.992188 161.019531 L 233.058594 161.113281 L 233.0625 161.121094 L 233.136719 161.226562 L 233.152344 161.25 L 233.207031 161.335938 L 233.222656 161.355469 L 233.234375 161.378906 L 233.296875 161.472656 L 233.351562 161.5625 L 233.355469 161.574219 L 233.402344 161.648438 L 233.414062 161.671875 L 233.445312 161.726562 L 233.46875 161.765625 L 233.488281 161.804688 L 233.515625 161.851562 L 233.527344 161.875 L 233.558594 161.933594 L 233.5625 161.945312 C 233.808594 162.378906 233.914062 162.902344 233.8125 163.429688 C 233.589844 164.617188 232.449219 165.398438 231.261719 165.179688 C 230.699219 165.070312 230.144531 164.976562 229.597656 164.890625 C 229.414062 164.859375 229.234375 164.839844 229.050781 164.8125 C 228.695312 164.761719 228.335938 164.707031 227.984375 164.664062 C 227.769531 164.636719 227.554688 164.617188 227.339844 164.59375 C 227.027344 164.558594 226.714844 164.523438 226.40625 164.496094 C 226.191406 164.476562 225.980469 164.460938 225.769531 164.445312 C 225.46875 164.425781 225.167969 164.402344 224.875 164.386719 C 224.660156 164.375 224.449219 164.367188 224.242188 164.359375 C 223.953125 164.347656 223.667969 164.335938 223.386719 164.332031 C 223.179688 164.328125 222.972656 164.328125 222.765625 164.328125 C 222.488281 164.328125 222.210938 164.328125 221.941406 164.332031 C 221.738281 164.335938 221.535156 164.34375 221.332031 164.347656 C 221.070312 164.359375 220.808594 164.371094 220.546875 164.386719 C 220.347656 164.398438 220.144531 164.410156 219.945312 164.425781 C 219.6875 164.441406 219.429688 164.464844 219.175781 164.492188 C 218.988281 164.507812 218.800781 164.527344 218.613281 164.546875 C 218.355469 164.578125 218.101562 164.609375 217.851562 164.644531 C 217.671875 164.671875 217.488281 164.695312 217.3125 164.722656 C 217.058594 164.761719 216.808594 164.804688 216.5625 164.851562 C 216.394531 164.878906 216.222656 164.90625 216.058594 164.941406 C 215.78125 164.996094 215.507812 165.054688 215.234375 165.117188 C 215.109375 165.144531 214.976562 165.171875 214.851562 165.203125 C 214.496094 165.285156 214.148438 165.378906 213.800781 165.476562 C 213.761719 165.488281 213.71875 165.496094 213.679688 165.507812 C 213.285156 165.621094 212.902344 165.738281 212.523438 165.863281 C 212.464844 165.882812 212.410156 165.902344 212.351562 165.921875 C 212.039062 166.027344 211.730469 166.136719 211.425781 166.25 C 211.3125 166.292969 211.203125 166.339844 211.09375 166.382812 C 210.847656 166.480469 210.605469 166.578125 210.371094 166.679688 C 210.238281 166.734375 210.113281 166.792969 209.984375 166.847656 C 209.769531 166.945312 209.554688 167.042969 209.339844 167.144531 C 209.214844 167.203125 209.09375 167.265625 208.96875 167.328125 C 208.757812 167.433594 208.546875 167.539062 208.339844 167.648438 C 208.222656 167.710938 208.105469 167.773438 207.992188 167.839844 C 207.789062 167.949219 207.589844 168.0625 207.390625 168.175781 C 207.269531 168.246094 207.152344 168.320312 207.035156 168.390625 C 206.84375 168.507812 206.652344 168.625 206.46875 168.742188 C 206.355469 168.816406 206.242188 168.886719 206.132812 168.960938 C 205.945312 169.085938 205.757812 169.210938 205.578125 169.339844 C 205.46875 169.414062 205.359375 169.488281 205.257812 169.566406 C 205.070312 169.699219 204.890625 169.832031 204.710938 169.96875 C 204.617188 170.042969 204.519531 170.117188 204.421875 170.191406 C 204.238281 170.335938 204.054688 170.484375 203.875 170.632812 C 203.789062 170.703125 203.703125 170.773438 203.617188 170.84375 C 203.417969 171.011719 203.226562 171.183594 203.035156 171.355469 C 202.972656 171.40625 202.910156 171.460938 202.851562 171.515625 C 202.625 171.71875 202.402344 171.929688 202.1875 172.140625 L 202.109375 172.214844 C 201.617188 172.695312 201.144531 173.191406 200.695312 173.695312 L 200.625 173.777344 C 200.429688 173.996094 200.238281 174.21875 200.050781 174.441406 L 199.882812 174.644531 C 199.730469 174.832031 199.578125 175.019531 199.429688 175.210938 L 199.253906 175.4375 C 199.109375 175.625 198.96875 175.8125 198.828125 176.003906 L 198.671875 176.222656 C 198.535156 176.410156 198.398438 176.601562 198.265625 176.792969 L 198.101562 177.03125 C 197.972656 177.222656 197.847656 177.414062 197.722656 177.605469 L 197.574219 177.835938 C 197.449219 178.03125 197.328125 178.222656 197.210938 178.417969 L 197.066406 178.652344 C 196.949219 178.847656 196.832031 179.042969 196.71875 179.238281 L 196.585938 179.472656 C 196.472656 179.671875 196.359375 179.875 196.25 180.074219 L 196.136719 180.285156 C 196.011719 180.515625 195.890625 180.75 195.773438 180.980469 L 195.714844 181.09375 C 195.585938 181.347656 195.457031 181.605469 195.332031 181.863281 L 195.304688 181.917969 C 194.90625 182.753906 194.542969 183.585938 194.210938 184.40625 L 194.199219 184.433594 C 194.09375 184.691406 193.996094 184.949219 193.898438 185.203125 L 193.847656 185.328125 L 193.738281 185.625 C 193.386719 186.851562 193.082031 188.128906 192.835938 189.464844 C 191.972656 194.160156 192.964844 198.582031 195.296875 202.597656 C 196.035156 203.453125 196.816406 204.296875 197.636719 205.125 C 205.652344 213.21875 217.484375 219.851562 230.367188 223.007812 C 233.574219 223.609375 236.800781 223.988281 239.957031 224.117188 C 251.839844 224.605469 265.695312 221.738281 277.386719 214.984375 C 278.988281 213.757812 280.539062 212.40625 282.035156 210.925781 C 292.089844 200.964844 297.210938 191.25 299.558594 182.714844 C 302.617188 171.605469 301.015625 162.542969 299.523438 157.601562 C 294.386719 146.222656 285.085938 140.703125 285.085938 140.703125 C 290.492188 142.234375 295.804688 145.507812 300.007812 150.378906 C 302.542969 149.257812 304.496094 147.929688 305.957031 146.46875 C 308.160156 144.261719 309.25 141.730469 309.53125 139.136719 C 309.820312 136.449219 309.273438 133.652344 308.210938 131.039062 C 307.011719 128.085938 305.160156 125.386719 303.121094 123.347656 C 300.523438 120.75 296.625 119.015625 293.285156 118.875 C 291.976562 118.820312 290.792969 119.015625 289.882812 119.519531 C 289.09375 119.953125 288.488281 120.65625 288.179688 121.675781 C 287.527344 123.808594 287.992188 127.179688 290.226562 132.132812 C 290.726562 133.234375 290.234375 134.53125 289.132812 135.027344 C 288.171875 135.460938 287.0625 135.140625 286.464844 134.320312 C 285.628906 133.34375 278.414062 125.359375 265.222656 125.359375 C 259.199219 125.359375 255.015625 127.039062 252.203125 129.550781 C 248.632812 132.738281 247.148438 137.351562 246.863281 141.609375 L 246.859375 141.679688 C 247.589844 160.972656 273.242188 166.929688 272.945312 167.71875 Z M 191.316406 143.53125 C 192.277344 148.007812 190.601562 151.523438 185.402344 152.707031 C 195.996094 156.789062 197.113281 146.792969 191.316406 143.53125 Z M 183.382812 6.332031 C 131.882812 6.882812 82.570312 51.535156 71.066406 107.144531 C 59.558594 162.757812 94.078125 223.847656 139.828125 243.84375 C 185.574219 263.84375 244.746094 259.460938 280.085938 226.039062 C 315.425781 192.617188 309.125 166.457031 304.742188 157.550781 C 304.242188 156.539062 303.703125 155.566406 303.125 154.636719 C 303.035156 154.371094 302.941406 154.117188 302.855469 153.886719 C 305.40625 152.632812 307.449219 151.175781 309.054688 149.570312 C 312.023438 146.597656 313.492188 143.152344 313.878906 139.601562 C 314.253906 136.144531 313.578125 132.628906 312.269531 129.398438 C 310.839844 125.878906 308.640625 122.675781 306.21875 120.253906 C 302.890625 116.921875 297.828125 114.695312 293.457031 114.511719 C 291.375 114.421875 289.410156 114.785156 287.773438 115.683594 C 286.015625 116.65625 284.671875 118.199219 284 120.410156 C 283.503906 122.039062 283.398438 124.035156 283.804688 126.4375 C 279.644531 123.730469 273.40625 120.980469 265.222656 120.980469 C 258.007812 120.980469 252.863281 123.109375 249.289062 126.300781 C 245.726562 129.484375 243.796875 133.679688 242.957031 137.859375 C 239.503906 136.054688 233.125 133.6875 223.390625 133.675781 C 223.464844 132.835938 223.5 131.976562 223.488281 131.105469 C 223.417969 125.394531 221.457031 119.265625 218 114.246094 C 214.492188 109.148438 209.433594 105.152344 203.222656 103.800781 C 202.167969 103.574219 201.070312 103.421875 199.933594 103.355469 C 197.566406 97.417969 186.628906 76.246094 151.902344 79.210938 C 151.292969 79.265625 150.613281 79.332031 149.871094 79.414062 C 146.59375 79.785156 143.433594 80.351562 140.402344 81.105469 C 150.484375 68.300781 161.753906 56.601562 167.90625 55.230469 C 175.304688 53.589844 155.855469 43.863281 145.308594 56.464844 C 134.761719 69.066406 116.40625 76.1875 111.613281 70.847656 C 109.167969 68.125 114.488281 51.980469 127.496094 39.894531 C 140.003906 28.269531 160.03125 20.671875 166.8125 18.660156 C 180.644531 14.550781 183.523438 12.496094 183.382812 6.332031 Z M 126.855469 108.652344 C 126.25 109.699219 124.910156 110.054688 123.867188 109.449219 C 122.820312 108.84375 122.464844 107.503906 123.070312 106.460938 C 126.570312 100.4375 131.25 96.589844 136.144531 94.6875 C 139.871094 93.238281 143.710938 92.914062 147.257812 93.609375 C 150.847656 94.3125 154.140625 96.058594 156.722656 98.734375 C 159.652344 101.773438 161.644531 105.992188 162.074219 111.21875 C 162.652344 118.300781 159.75 123.03125 155.515625 125.675781 C 153.554688 126.90625 151.304688 127.660156 148.996094 127.972656 C 146.710938 128.285156 144.371094 128.164062 142.1875 127.644531 C 137.148438 126.445312 132.867188 123.125 131.8125 118.03125 C 128.738281 103.160156 143.222656 104.832031 143.265625 104.835938 C 144.464844 104.957031 145.339844 106.03125 145.214844 107.230469 C 145.09375 108.433594 144.019531 109.304688 142.820312 109.183594 C 142.796875 109.179688 134.238281 108.191406 136.09375 117.15625 C 136.761719 120.390625 139.703125 122.546875 143.199219 123.378906 C 144.886719 123.78125 146.679688 123.875 148.414062 123.640625 C 150.121094 123.410156 151.773438 122.855469 153.203125 121.960938 C 156.132812 120.128906 158.132812 116.746094 157.707031 111.5625 C 157.367188 107.410156 155.828125 104.105469 153.574219 101.765625 C 151.636719 99.753906 149.144531 98.441406 146.421875 97.90625 C 143.65625 97.367188 140.648438 97.621094 137.722656 98.761719 C 133.703125 100.324219 129.816406 103.550781 126.855469 108.652344 Z M 126.855469 108.652344 " fill-opacity="1" fill-rule="evenodd"/></g><g clip-path="url(#84a0630802)"><g clip-path="url(#7965f5696c)"><g clip-path="url(#25acb07633)"><path fill="#b0d2f2" d="M 236.9375 59.320312 C 243.84375 49.746094 256.144531 46.734375 262.273438 56.71875 C 273.667969 75.246094 229.28125 92.902344 229.28125 92.902344 C 213.984375 72.460938 203.421875 55.566406 217.664062 46.339844 C 225.652344 41.152344 235.023438 48.074219 236.9375 59.320312 Z M 236.9375 59.320312 " fill-opacity="1" fill-rule="nonzero"/></g></g></g><g fill="#518ac0" fill-opacity="1"><g transform="translate(6.136763, 360.074705)"><g><path d="M 6.5625 0.203125 C 5.644531 0.203125 4.847656 0.148438 4.171875 0.046875 C 3.503906 -0.0546875 2.910156 -0.207031 2.390625 -0.40625 C 1.878906 -0.613281 1.390625 -0.851562 0.921875 -1.125 C 0.578125 -1.351562 0.40625 -1.609375 0.40625 -1.890625 C 0.40625 -2.066406 0.46875 -2.25 0.59375 -2.4375 C 0.914062 -2.914062 1.226562 -3.15625 1.53125 -3.15625 C 1.632812 -3.15625 1.753906 -3.117188 1.890625 -3.046875 C 2.359375 -2.816406 2.835938 -2.613281 3.328125 -2.4375 C 3.816406 -2.269531 4.359375 -2.140625 4.953125 -2.046875 C 5.546875 -1.960938 6.242188 -1.921875 7.046875 -1.921875 C 7.828125 -1.921875 8.476562 -2.0625 9 -2.34375 C 9.53125 -2.632812 9.796875 -3.132812 9.796875 -3.84375 C 9.796875 -4.820312 8.582031 -5.691406 6.15625 -6.453125 C 4.78125 -6.890625 3.726562 -7.320312 3 -7.75 C 2.28125 -8.1875 1.785156 -8.660156 1.515625 -9.171875 C 1.242188 -9.691406 1.109375 -10.289062 1.109375 -10.96875 C 1.109375 -12.125 1.546875 -13.019531 2.421875 -13.65625 C 3.304688 -14.300781 4.726562 -14.625 6.6875 -14.625 C 7.488281 -14.625 8.164062 -14.582031 8.71875 -14.5 C 9.28125 -14.425781 9.769531 -14.320312 10.1875 -14.1875 C 10.613281 -14.0625 11.015625 -13.910156 11.390625 -13.734375 C 11.535156 -13.648438 11.648438 -13.5625 11.734375 -13.46875 C 11.828125 -13.375 11.875 -13.238281 11.875 -13.0625 C 11.875 -12.90625 11.835938 -12.710938 11.765625 -12.484375 C 11.566406 -12.023438 11.3125 -11.796875 11 -11.796875 C 10.84375 -11.796875 10.644531 -11.832031 10.40625 -11.90625 C 9.851562 -12.09375 9.25 -12.238281 8.59375 -12.34375 C 7.945312 -12.457031 7.238281 -12.515625 6.46875 -12.515625 C 5.394531 -12.515625 4.628906 -12.378906 4.171875 -12.109375 C 3.710938 -11.835938 3.484375 -11.429688 3.484375 -10.890625 C 3.484375 -10.410156 3.753906 -9.976562 4.296875 -9.59375 C 4.847656 -9.207031 5.785156 -8.816406 7.109375 -8.421875 C 8.441406 -8.023438 9.472656 -7.597656 10.203125 -7.140625 C 10.941406 -6.691406 11.460938 -6.203125 11.765625 -5.671875 C 12.066406 -5.140625 12.21875 -4.5625 12.21875 -3.9375 C 12.21875 -2.65625 11.773438 -1.644531 10.890625 -0.90625 C 10.015625 -0.164062 8.570312 0.203125 6.5625 0.203125 Z M 6.5625 0.203125 "/></g></g></g><g fill="#518ac0" fill-opacity="1"><g transform="translate(22.84381, 360.074705)"><g><path d="M 8.015625 0.203125 C 6.398438 0.203125 5.070312 -0.113281 4.03125 -0.75 C 3 -1.382812 2.234375 -2.253906 1.734375 -3.359375 C 1.234375 -4.472656 0.984375 -5.734375 0.984375 -7.140625 C 0.984375 -8.710938 1.289062 -10.050781 1.90625 -11.15625 C 2.519531 -12.269531 3.382812 -13.125 4.5 -13.71875 C 5.613281 -14.320312 6.925781 -14.625 8.4375 -14.625 C 8.863281 -14.625 9.242188 -14.59375 9.578125 -14.53125 C 9.921875 -14.476562 10.226562 -14.40625 10.5 -14.3125 C 10.71875 -14.269531 10.878906 -14.191406 10.984375 -14.078125 C 11.085938 -13.972656 11.140625 -13.789062 11.140625 -13.53125 C 11.140625 -13.476562 11.140625 -13.414062 11.140625 -13.34375 C 11.140625 -13.269531 11.132812 -13.203125 11.125 -13.140625 C 11.09375 -12.972656 11.0625 -12.828125 11.03125 -12.703125 C 12.320312 -12.234375 13.28125 -11.488281 13.90625 -10.46875 C 14.53125 -9.445312 14.84375 -8.179688 14.84375 -6.671875 C 14.84375 -5.378906 14.570312 -4.210938 14.03125 -3.171875 C 13.5 -2.140625 12.722656 -1.316406 11.703125 -0.703125 C 10.691406 -0.0976562 9.460938 0.203125 8.015625 0.203125 Z M 3.359375 -7.171875 C 3.359375 -5.503906 3.75 -4.210938 4.53125 -3.296875 C 5.3125 -2.378906 6.472656 -1.921875 8.015625 -1.921875 C 8.890625 -1.921875 9.660156 -2.109375 10.328125 -2.484375 C 11.003906 -2.867188 11.53125 -3.414062 11.90625 -4.125 C 12.289062 -4.832031 12.484375 -5.664062 12.484375 -6.625 C 12.484375 -7.769531 12.234375 -8.671875 11.734375 -9.328125 C 11.242188 -9.984375 10.421875 -10.472656 9.265625 -10.796875 C 9.097656 -10.847656 8.972656 -10.925781 8.890625 -11.03125 C 8.804688 -11.132812 8.765625 -11.285156 8.765625 -11.484375 C 8.765625 -11.691406 8.796875 -11.90625 8.859375 -12.125 L 8.9375 -12.390625 C 8.820312 -12.390625 8.707031 -12.394531 8.59375 -12.40625 C 8.476562 -12.414062 8.351562 -12.421875 8.21875 -12.421875 C 6.707031 -12.421875 5.519531 -11.953125 4.65625 -11.015625 C 3.789062 -10.085938 3.359375 -8.804688 3.359375 -7.171875 Z M 3.359375 -7.171875 "/></g></g></g><g fill="#518ac0" fill-opacity="1"><g transform="translate(42.327496, 360.074705)"><g><path d="M 3.21875 0.203125 C 2.882812 0.203125 2.640625 0.125 2.484375 -0.03125 C 2.335938 -0.1875 2.25 -0.441406 2.21875 -0.796875 C 2.132812 -1.566406 2.0625 -2.457031 2 -3.46875 C 1.945312 -4.488281 1.90625 -5.519531 1.875 -6.5625 C 1.863281 -6.9375 1.859375 -7.316406 1.859375 -7.703125 C 1.859375 -8.085938 1.859375 -8.472656 1.859375 -8.859375 C 1.859375 -9.421875 1.863281 -9.972656 1.875 -10.515625 C 1.882812 -11.066406 1.910156 -11.59375 1.953125 -12.09375 L 1.625 -12.03125 C 1.195312 -12.007812 0.90625 -12.109375 0.75 -12.328125 C 0.601562 -12.554688 0.53125 -12.898438 0.53125 -13.359375 C 0.53125 -13.617188 0.585938 -13.8125 0.703125 -13.9375 C 0.828125 -14.0625 1.050781 -14.140625 1.375 -14.171875 C 2.90625 -14.398438 4.695312 -14.515625 6.75 -14.515625 C 7.875 -14.503906 8.878906 -14.476562 9.765625 -14.4375 C 10.648438 -14.394531 11.445312 -14.347656 12.15625 -14.296875 C 12.457031 -14.265625 12.660156 -14.171875 12.765625 -14.015625 C 12.878906 -13.859375 12.9375 -13.617188 12.9375 -13.296875 C 12.9375 -12.929688 12.875 -12.644531 12.75 -12.4375 C 12.632812 -12.226562 12.335938 -12.132812 11.859375 -12.15625 C 11.046875 -12.21875 10.195312 -12.269531 9.3125 -12.3125 C 8.425781 -12.351562 7.476562 -12.375 6.46875 -12.375 C 5.75 -12.375 5.046875 -12.351562 4.359375 -12.3125 C 4.316406 -11.707031 4.285156 -11.109375 4.265625 -10.515625 C 4.253906 -9.929688 4.25 -9.316406 4.25 -8.671875 C 4.25 -8.453125 4.25 -8.222656 4.25 -7.984375 C 4.25 -7.742188 4.253906 -7.492188 4.265625 -7.234375 C 4.609375 -7.234375 4.945312 -7.234375 5.28125 -7.234375 C 5.613281 -7.242188 5.953125 -7.25 6.296875 -7.25 C 6.773438 -7.25 7.25 -7.242188 7.71875 -7.234375 C 8.195312 -7.234375 8.671875 -7.222656 9.140625 -7.203125 C 9.515625 -7.203125 9.773438 -7.109375 9.921875 -6.921875 C 10.078125 -6.742188 10.15625 -6.472656 10.15625 -6.109375 C 10.15625 -5.804688 10.082031 -5.566406 9.9375 -5.390625 C 9.789062 -5.222656 9.546875 -5.140625 9.203125 -5.140625 C 8.859375 -5.160156 8.488281 -5.171875 8.09375 -5.171875 C 7.707031 -5.179688 7.300781 -5.1875 6.875 -5.1875 C 6.445312 -5.1875 6.015625 -5.179688 5.578125 -5.171875 C 5.148438 -5.171875 4.722656 -5.160156 4.296875 -5.140625 C 4.359375 -3.492188 4.453125 -2.144531 4.578125 -1.09375 C 4.585938 -1.039062 4.59375 -0.984375 4.59375 -0.921875 C 4.59375 -0.859375 4.59375 -0.796875 4.59375 -0.734375 C 4.59375 -0.378906 4.488281 -0.132812 4.28125 0 C 4.070312 0.132812 3.71875 0.203125 3.21875 0.203125 Z M 3.21875 0.203125 "/></g></g></g><g fill="#518ac0" fill-opacity="1"><g transform="translate(59.034541, 360.074705)"><g><path d="M 1.40625 -12.28125 C 0.957031 -12.25 0.660156 -12.328125 0.515625 -12.515625 C 0.378906 -12.710938 0.3125 -13.046875 0.3125 -13.515625 C 0.3125 -13.785156 0.367188 -13.992188 0.484375 -14.140625 C 0.597656 -14.296875 0.820312 -14.378906 1.15625 -14.390625 C 1.507812 -14.453125 2.023438 -14.492188 2.703125 -14.515625 C 3.390625 -14.546875 4.15625 -14.5625 5 -14.5625 C 5.238281 -14.5625 5.472656 -14.554688 5.703125 -14.546875 C 5.929688 -14.546875 6.171875 -14.546875 6.421875 -14.546875 C 7.585938 -14.523438 8.65625 -14.492188 9.625 -14.453125 C 10.601562 -14.410156 11.34375 -14.363281 11.84375 -14.3125 C 12.144531 -14.300781 12.347656 -14.21875 12.453125 -14.0625 C 12.566406 -13.914062 12.625 -13.703125 12.625 -13.421875 C 12.625 -13.015625 12.570312 -12.703125 12.46875 -12.484375 C 12.363281 -12.273438 12.054688 -12.175781 11.546875 -12.1875 C 11.066406 -12.226562 10.472656 -12.269531 9.765625 -12.3125 C 9.066406 -12.351562 8.316406 -12.378906 7.515625 -12.390625 C 7.429688 -11.546875 7.359375 -10.585938 7.296875 -9.515625 C 7.234375 -8.441406 7.203125 -7.320312 7.203125 -6.15625 C 7.222656 -5.164062 7.238281 -4.234375 7.25 -3.359375 C 7.257812 -2.492188 7.296875 -1.65625 7.359375 -0.84375 C 7.378906 -0.550781 7.304688 -0.300781 7.140625 -0.09375 C 6.984375 0.101562 6.609375 0.203125 6.015625 0.203125 C 5.710938 0.203125 5.472656 0.140625 5.296875 0.015625 C 5.117188 -0.109375 5.015625 -0.335938 4.984375 -0.671875 C 4.941406 -1.441406 4.910156 -2.304688 4.890625 -3.265625 C 4.867188 -4.234375 4.851562 -5.175781 4.84375 -6.09375 C 4.84375 -7.238281 4.875 -8.351562 4.9375 -9.4375 C 5.007812 -10.53125 5.09375 -11.523438 5.1875 -12.421875 C 4.332031 -12.421875 3.554688 -12.398438 2.859375 -12.359375 C 2.171875 -12.328125 1.6875 -12.300781 1.40625 -12.28125 Z M 1.40625 -12.28125 "/></g></g></g><g fill="#518ac0" fill-opacity="1"><g transform="translate(75.433061, 360.074705)"><g><path d="M 3.296875 0.171875 C 3.210938 0.179688 3.132812 0.1875 3.0625 0.1875 C 3 0.195312 2.929688 0.203125 2.859375 0.203125 C 2.578125 0.203125 2.359375 0.144531 2.203125 0.03125 C 2.054688 -0.0703125 1.96875 -0.210938 1.9375 -0.390625 C 1.800781 -1.347656 1.691406 -2.414062 1.609375 -3.59375 C 1.523438 -4.78125 1.484375 -5.976562 1.484375 -7.1875 C 1.484375 -8.394531 1.503906 -9.515625 1.546875 -10.546875 C 1.597656 -11.585938 1.671875 -12.523438 1.765625 -13.359375 C 1.828125 -13.859375 1.976562 -14.195312 2.21875 -14.375 C 2.457031 -14.550781 2.707031 -14.640625 2.96875 -14.640625 C 3.238281 -14.640625 3.445312 -14.582031 3.59375 -14.46875 C 3.738281 -14.363281 3.882812 -14.207031 4.03125 -14 C 4.507812 -13.207031 5.117188 -12.257812 5.859375 -11.15625 C 6.609375 -10.050781 7.425781 -8.875 8.3125 -7.625 C 9.195312 -6.382812 10.078125 -5.15625 10.953125 -3.9375 C 10.984375 -4.46875 11.007812 -5.007812 11.03125 -5.5625 C 11.0625 -6.113281 11.078125 -6.640625 11.078125 -7.140625 C 11.078125 -9.335938 10.921875 -11.421875 10.609375 -13.390625 C 10.585938 -13.453125 10.578125 -13.507812 10.578125 -13.5625 C 10.578125 -13.613281 10.578125 -13.664062 10.578125 -13.71875 C 10.578125 -14.019531 10.65625 -14.234375 10.8125 -14.359375 C 10.976562 -14.484375 11.28125 -14.570312 11.71875 -14.625 C 11.789062 -14.632812 11.847656 -14.640625 11.890625 -14.640625 C 11.941406 -14.640625 11.992188 -14.640625 12.046875 -14.640625 C 12.378906 -14.640625 12.609375 -14.5625 12.734375 -14.40625 C 12.867188 -14.257812 12.945312 -13.992188 12.96875 -13.609375 C 13.132812 -12.523438 13.25 -11.492188 13.3125 -10.515625 C 13.375 -9.546875 13.40625 -8.507812 13.40625 -7.40625 C 13.40625 -6.769531 13.394531 -6.078125 13.375 -5.328125 C 13.363281 -4.578125 13.34375 -3.832031 13.3125 -3.09375 C 13.28125 -2.363281 13.226562 -1.691406 13.15625 -1.078125 C 13.101562 -0.617188 12.972656 -0.289062 12.765625 -0.09375 C 12.554688 0.101562 12.296875 0.203125 11.984375 0.203125 C 11.753906 0.203125 11.554688 0.144531 11.390625 0.03125 C 11.222656 -0.0703125 11.035156 -0.234375 10.828125 -0.453125 C 10.171875 -1.273438 9.453125 -2.207031 8.671875 -3.25 C 7.890625 -4.289062 7.097656 -5.378906 6.296875 -6.515625 C 5.492188 -7.660156 4.710938 -8.789062 3.953125 -9.90625 C 3.921875 -9.46875 3.894531 -9.015625 3.875 -8.546875 C 3.851562 -8.078125 3.84375 -7.601562 3.84375 -7.125 C 3.84375 -6.445312 3.863281 -5.726562 3.90625 -4.96875 C 3.945312 -4.21875 4 -3.484375 4.0625 -2.765625 C 4.125 -2.046875 4.195312 -1.382812 4.28125 -0.78125 C 4.3125 -0.519531 4.253906 -0.3125 4.109375 -0.15625 C 3.972656 -0.0078125 3.703125 0.0976562 3.296875 0.171875 Z M 3.296875 0.171875 "/></g></g></g><g fill="#518ac0" fill-opacity="1"><g transform="translate(93.99121, 360.074705)"><g><path d="M 7.46875 0.171875 C 6.457031 0.171875 5.617188 0.15625 4.953125 0.125 C 4.285156 0.09375 3.816406 0.0546875 3.546875 0.015625 C 3.203125 -0.0351562 2.929688 -0.15625 2.734375 -0.34375 C 2.546875 -0.53125 2.429688 -0.734375 2.390625 -0.953125 C 2.265625 -1.796875 2.148438 -2.753906 2.046875 -3.828125 C 1.941406 -4.898438 1.882812 -5.984375 1.875 -7.078125 C 1.875 -7.378906 1.867188 -7.691406 1.859375 -8.015625 C 1.859375 -8.335938 1.859375 -8.660156 1.859375 -8.984375 C 1.859375 -9.515625 1.863281 -10.046875 1.875 -10.578125 C 1.882812 -11.109375 1.910156 -11.601562 1.953125 -12.0625 C 1.898438 -12.0625 1.84375 -12.054688 1.78125 -12.046875 C 1.726562 -12.046875 1.675781 -12.039062 1.625 -12.03125 C 1.1875 -12.007812 0.894531 -12.101562 0.75 -12.3125 C 0.601562 -12.53125 0.53125 -12.875 0.53125 -13.34375 C 0.53125 -13.601562 0.585938 -13.796875 0.703125 -13.921875 C 0.828125 -14.054688 1.050781 -14.140625 1.375 -14.171875 C 2.90625 -14.398438 4.695312 -14.515625 6.75 -14.515625 C 7.875 -14.503906 8.878906 -14.476562 9.765625 -14.4375 C 10.648438 -14.394531 11.445312 -14.335938 12.15625 -14.265625 C 12.457031 -14.253906 12.660156 -14.171875 12.765625 -14.015625 C 12.878906 -13.859375 12.9375 -13.617188 12.9375 -13.296875 C 12.9375 -12.929688 12.875 -12.644531 12.75 -12.4375 C 12.632812 -12.226562 12.335938 -12.132812 11.859375 -12.15625 C 11.046875 -12.21875 10.195312 -12.269531 9.3125 -12.3125 C 8.425781 -12.351562 7.476562 -12.375 6.46875 -12.375 C 5.75 -12.375 5.046875 -12.351562 4.359375 -12.3125 C 4.335938 -11.644531 4.3125 -10.992188 4.28125 -10.359375 C 4.257812 -9.722656 4.25 -9.023438 4.25 -8.265625 C 4.582031 -8.265625 4.914062 -8.265625 5.25 -8.265625 C 5.59375 -8.273438 5.9375 -8.28125 6.28125 -8.28125 C 6.757812 -8.28125 7.238281 -8.273438 7.71875 -8.265625 C 8.195312 -8.265625 8.671875 -8.253906 9.140625 -8.234375 C 9.515625 -8.234375 9.773438 -8.140625 9.921875 -7.953125 C 10.078125 -7.773438 10.15625 -7.503906 10.15625 -7.140625 C 10.15625 -6.835938 10.082031 -6.597656 9.9375 -6.421875 C 9.789062 -6.253906 9.546875 -6.171875 9.203125 -6.171875 C 8.859375 -6.191406 8.488281 -6.203125 8.09375 -6.203125 C 7.707031 -6.210938 7.296875 -6.21875 6.859375 -6.21875 C 6.429688 -6.21875 6 -6.210938 5.5625 -6.203125 C 5.132812 -6.203125 4.703125 -6.191406 4.265625 -6.171875 C 4.285156 -5.421875 4.332031 -4.695312 4.40625 -4 C 4.476562 -3.3125 4.546875 -2.664062 4.609375 -2.0625 C 4.960938 -2.03125 5.382812 -2.003906 5.875 -1.984375 C 6.375 -1.960938 6.96875 -1.953125 7.65625 -1.953125 C 8.675781 -1.953125 9.5625 -1.972656 10.3125 -2.015625 C 11.070312 -2.054688 11.625 -2.09375 11.96875 -2.125 C 12.613281 -2.132812 12.9375 -1.796875 12.9375 -1.109375 C 12.9375 -0.710938 12.847656 -0.4375 12.671875 -0.28125 C 12.503906 -0.132812 12.269531 -0.046875 11.96875 -0.015625 C 11.5 0.0351562 10.894531 0.078125 10.15625 0.109375 C 9.425781 0.148438 8.53125 0.171875 7.46875 0.171875 Z M 7.46875 0.171875 "/></g></g></g><g fill="#518ac0" fill-opacity="1"><g transform="translate(110.903915, 360.074705)"><g><path d="M 6.5625 0.203125 C 5.644531 0.203125 4.847656 0.148438 4.171875 0.046875 C 3.503906 -0.0546875 2.910156 -0.207031 2.390625 -0.40625 C 1.878906 -0.613281 1.390625 -0.851562 0.921875 -1.125 C 0.578125 -1.351562 0.40625 -1.609375 0.40625 -1.890625 C 0.40625 -2.066406 0.46875 -2.25 0.59375 -2.4375 C 0.914062 -2.914062 1.226562 -3.15625 1.53125 -3.15625 C 1.632812 -3.15625 1.753906 -3.117188 1.890625 -3.046875 C 2.359375 -2.816406 2.835938 -2.613281 3.328125 -2.4375 C 3.816406 -2.269531 4.359375 -2.140625 4.953125 -2.046875 C 5.546875 -1.960938 6.242188 -1.921875 7.046875 -1.921875 C 7.828125 -1.921875 8.476562 -2.0625 9 -2.34375 C 9.53125 -2.632812 9.796875 -3.132812 9.796875 -3.84375 C 9.796875 -4.820312 8.582031 -5.691406 6.15625 -6.453125 C 4.78125 -6.890625 3.726562 -7.320312 3 -7.75 C 2.28125 -8.1875 1.785156 -8.660156 1.515625 -9.171875 C 1.242188 -9.691406 1.109375 -10.289062 1.109375 -10.96875 C 1.109375 -12.125 1.546875 -13.019531 2.421875 -13.65625 C 3.304688 -14.300781 4.726562 -14.625 6.6875 -14.625 C 7.488281 -14.625 8.164062 -14.582031 8.71875 -14.5 C 9.28125 -14.425781 9.769531 -14.320312 10.1875 -14.1875 C 10.613281 -14.0625 11.015625 -13.910156 11.390625 -13.734375 C 11.535156 -13.648438 11.648438 -13.5625 11.734375 -13.46875 C 11.828125 -13.375 11.875 -13.238281 11.875 -13.0625 C 11.875 -12.90625 11.835938 -12.710938 11.765625 -12.484375 C 11.566406 -12.023438 11.3125 -11.796875 11 -11.796875 C 10.84375 -11.796875 10.644531 -11.832031 10.40625 -11.90625 C 9.851562 -12.09375 9.25 -12.238281 8.59375 -12.34375 C 7.945312 -12.457031 7.238281 -12.515625 6.46875 -12.515625 C 5.394531 -12.515625 4.628906 -12.378906 4.171875 -12.109375 C 3.710938 -11.835938 3.484375 -11.429688 3.484375 -10.890625 C 3.484375 -10.410156 3.753906 -9.976562 4.296875 -9.59375 C 4.847656 -9.207031 5.785156 -8.816406 7.109375 -8.421875 C 8.441406 -8.023438 9.472656 -7.597656 10.203125 -7.140625 C 10.941406 -6.691406 11.460938 -6.203125 11.765625 -5.671875 C 12.066406 -5.140625 12.21875 -4.5625 12.21875 -3.9375 C 12.21875 -2.65625 11.773438 -1.644531 10.890625 -0.90625 C 10.015625 -0.164062 8.570312 0.203125 6.5625 0.203125 Z M 6.5625 0.203125 "/></g></g></g><g fill="#518ac0" fill-opacity="1"><g transform="translate(127.610957, 360.074705)"><g><path d="M 6.5625 0.203125 C 5.644531 0.203125 4.847656 0.148438 4.171875 0.046875 C 3.503906 -0.0546875 2.910156 -0.207031 2.390625 -0.40625 C 1.878906 -0.613281 1.390625 -0.851562 0.921875 -1.125 C 0.578125 -1.351562 0.40625 -1.609375 0.40625 -1.890625 C 0.40625 -2.066406 0.46875 -2.25 0.59375 -2.4375 C 0.914062 -2.914062 1.226562 -3.15625 1.53125 -3.15625 C 1.632812 -3.15625 1.753906 -3.117188 1.890625 -3.046875 C 2.359375 -2.816406 2.835938 -2.613281 3.328125 -2.4375 C 3.816406 -2.269531 4.359375 -2.140625 4.953125 -2.046875 C 5.546875 -1.960938 6.242188 -1.921875 7.046875 -1.921875 C 7.828125 -1.921875 8.476562 -2.0625 9 -2.34375 C 9.53125 -2.632812 9.796875 -3.132812 9.796875 -3.84375 C 9.796875 -4.820312 8.582031 -5.691406 6.15625 -6.453125 C 4.78125 -6.890625 3.726562 -7.320312 3 -7.75 C 2.28125 -8.1875 1.785156 -8.660156 1.515625 -9.171875 C 1.242188 -9.691406 1.109375 -10.289062 1.109375 -10.96875 C 1.109375 -12.125 1.546875 -13.019531 2.421875 -13.65625 C 3.304688 -14.300781 4.726562 -14.625 6.6875 -14.625 C 7.488281 -14.625 8.164062 -14.582031 8.71875 -14.5 C 9.28125 -14.425781 9.769531 -14.320312 10.1875 -14.1875 C 10.613281 -14.0625 11.015625 -13.910156 11.390625 -13.734375 C 11.535156 -13.648438 11.648438 -13.5625 11.734375 -13.46875 C 11.828125 -13.375 11.875 -13.238281 11.875 -13.0625 C 11.875 -12.90625 11.835938 -12.710938 11.765625 -12.484375 C 11.566406 -12.023438 11.3125 -11.796875 11 -11.796875 C 10.84375 -11.796875 10.644531 -11.832031 10.40625 -11.90625 C 9.851562 -12.09375 9.25 -12.238281 8.59375 -12.34375 C 7.945312 -12.457031 7.238281 -12.515625 6.46875 -12.515625 C 5.394531 -12.515625 4.628906 -12.378906 4.171875 -12.109375 C 3.710938 -11.835938 3.484375 -11.429688 3.484375 -10.890625 C 3.484375 -10.410156 3.753906 -9.976562 4.296875 -9.59375 C 4.847656 -9.207031 5.785156 -8.816406 7.109375 -8.421875 C 8.441406 -8.023438 9.472656 -7.597656 10.203125 -7.140625 C 10.941406 -6.691406 11.460938 -6.203125 11.765625 -5.671875 C 12.066406 -5.140625 12.21875 -4.5625 12.21875 -3.9375 C 12.21875 -2.65625 11.773438 -1.644531 10.890625 -0.90625 C 10.015625 -0.164062 8.570312 0.203125 6.5625 0.203125 Z M 6.5625 0.203125 "/></g></g></g><g fill="#518ac0" fill-opacity="1"><g transform="translate(144.318, 360.074705)"><g/></g></g><g fill="#518ac0" fill-opacity="1"><g transform="translate(154.175977, 360.074705)"><g><path d="M 4.984375 0.125 C 4.753906 0.457031 4.476562 0.625 4.15625 0.625 C 3.882812 0.625 3.601562 0.5 3.3125 0.25 C 2.96875 -0.0507812 2.796875 -0.347656 2.796875 -0.640625 C 2.796875 -0.890625 2.894531 -1.128906 3.09375 -1.359375 C 3.488281 -1.753906 3.910156 -2.21875 4.359375 -2.75 C 4.816406 -3.28125 5.257812 -3.835938 5.6875 -4.421875 C 4.988281 -5.015625 4.285156 -5.753906 3.578125 -6.640625 C 2.878906 -7.523438 2.253906 -8.515625 1.703125 -9.609375 C 1.160156 -10.703125 0.738281 -11.832031 0.4375 -13 C 0.363281 -13.195312 0.328125 -13.367188 0.328125 -13.515625 C 0.328125 -13.867188 0.546875 -14.160156 0.984375 -14.390625 C 1.265625 -14.515625 1.503906 -14.578125 1.703125 -14.578125 C 2.109375 -14.578125 2.398438 -14.375 2.578125 -13.96875 C 2.847656 -12.90625 3.21875 -11.882812 3.6875 -10.90625 C 4.15625 -9.9375 4.675781 -9.0625 5.25 -8.28125 C 5.820312 -7.5 6.40625 -6.851562 7 -6.34375 L 7.453125 -7.109375 C 8.171875 -8.335938 8.773438 -9.570312 9.265625 -10.8125 C 9.765625 -12.0625 10.113281 -13.144531 10.3125 -14.0625 C 10.382812 -14.257812 10.492188 -14.398438 10.640625 -14.484375 C 10.796875 -14.578125 10.96875 -14.625 11.15625 -14.625 C 11.269531 -14.625 11.382812 -14.613281 11.5 -14.59375 C 11.613281 -14.570312 11.734375 -14.523438 11.859375 -14.453125 C 12.367188 -14.234375 12.625 -13.960938 12.625 -13.640625 C 12.625 -13.523438 12.601562 -13.40625 12.5625 -13.28125 C 12.351562 -12.34375 12.007812 -11.265625 11.53125 -10.046875 C 11.050781 -8.835938 10.445312 -7.585938 9.71875 -6.296875 C 9.238281 -5.460938 8.71875 -4.632812 8.15625 -3.8125 C 7.59375 -3 7.035156 -2.253906 6.484375 -1.578125 C 5.929688 -0.898438 5.429688 -0.332031 4.984375 0.125 Z M 4.984375 0.125 "/></g></g></g><g fill="#518ac0" fill-opacity="1"><g transform="translate(170.80075, 360.074705)"><g><path d="M 8.015625 0.203125 C 6.398438 0.203125 5.070312 -0.113281 4.03125 -0.75 C 3 -1.382812 2.234375 -2.253906 1.734375 -3.359375 C 1.234375 -4.472656 0.984375 -5.734375 0.984375 -7.140625 C 0.984375 -8.710938 1.289062 -10.050781 1.90625 -11.15625 C 2.519531 -12.269531 3.382812 -13.125 4.5 -13.71875 C 5.613281 -14.320312 6.925781 -14.625 8.4375 -14.625 C 8.863281 -14.625 9.242188 -14.59375 9.578125 -14.53125 C 9.921875 -14.476562 10.226562 -14.40625 10.5 -14.3125 C 10.71875 -14.269531 10.878906 -14.191406 10.984375 -14.078125 C 11.085938 -13.972656 11.140625 -13.789062 11.140625 -13.53125 C 11.140625 -13.476562 11.140625 -13.414062 11.140625 -13.34375 C 11.140625 -13.269531 11.132812 -13.203125 11.125 -13.140625 C 11.09375 -12.972656 11.0625 -12.828125 11.03125 -12.703125 C 12.320312 -12.234375 13.28125 -11.488281 13.90625 -10.46875 C 14.53125 -9.445312 14.84375 -8.179688 14.84375 -6.671875 C 14.84375 -5.378906 14.570312 -4.210938 14.03125 -3.171875 C 13.5 -2.140625 12.722656 -1.316406 11.703125 -0.703125 C 10.691406 -0.0976562 9.460938 0.203125 8.015625 0.203125 Z M 3.359375 -7.171875 C 3.359375 -5.503906 3.75 -4.210938 4.53125 -3.296875 C 5.3125 -2.378906 6.472656 -1.921875 8.015625 -1.921875 C 8.890625 -1.921875 9.660156 -2.109375 10.328125 -2.484375 C 11.003906 -2.867188 11.53125 -3.414062 11.90625 -4.125 C 12.289062 -4.832031 12.484375 -5.664062 12.484375 -6.625 C 12.484375 -7.769531 12.234375 -8.671875 11.734375 -9.328125 C 11.242188 -9.984375 10.421875 -10.472656 9.265625 -10.796875 C 9.097656 -10.847656 8.972656 -10.925781 8.890625 -11.03125 C 8.804688 -11.132812 8.765625 -11.285156 8.765625 -11.484375 C 8.765625 -11.691406 8.796875 -11.90625 8.859375 -12.125 L 8.9375 -12.390625 C 8.820312 -12.390625 8.707031 -12.394531 8.59375 -12.40625 C 8.476562 -12.414062 8.351562 -12.421875 8.21875 -12.421875 C 6.707031 -12.421875 5.519531 -11.953125 4.65625 -11.015625 C 3.789062 -10.085938 3.359375 -8.804688 3.359375 -7.171875 Z M 3.359375 -7.171875 "/></g></g></g><g fill="#518ac0" fill-opacity="1"><g transform="translate(190.284431, 360.074705)"><g><path d="M 8.078125 0.203125 C 5.785156 0.203125 4.113281 -0.53125 3.0625 -2 C 2.007812 -3.476562 1.484375 -5.8125 1.484375 -9 C 1.484375 -10.082031 1.503906 -11 1.546875 -11.75 C 1.585938 -12.5 1.65625 -13.1875 1.75 -13.8125 C 1.832031 -14.351562 2.148438 -14.625 2.703125 -14.625 C 2.765625 -14.625 2.832031 -14.617188 2.90625 -14.609375 C 2.988281 -14.597656 3.070312 -14.585938 3.15625 -14.578125 C 3.582031 -14.515625 3.851562 -14.398438 3.96875 -14.234375 C 4.082031 -14.066406 4.125 -13.859375 4.09375 -13.609375 C 4.007812 -12.984375 3.945312 -12.332031 3.90625 -11.65625 C 3.863281 -10.976562 3.84375 -10.175781 3.84375 -9.25 C 3.84375 -6.664062 4.175781 -4.796875 4.84375 -3.640625 C 5.507812 -2.492188 6.613281 -1.921875 8.15625 -1.921875 C 9.46875 -1.921875 10.445312 -2.335938 11.09375 -3.171875 C 11.738281 -4.003906 12.0625 -5.382812 12.0625 -7.3125 C 12.0625 -8.144531 12.050781 -8.894531 12.03125 -9.5625 C 12.007812 -10.238281 11.984375 -10.894531 11.953125 -11.53125 C 11.921875 -12.175781 11.867188 -12.863281 11.796875 -13.59375 C 11.785156 -13.976562 11.867188 -14.238281 12.046875 -14.375 C 12.222656 -14.519531 12.59375 -14.59375 13.15625 -14.59375 C 13.53125 -14.59375 13.78125 -14.535156 13.90625 -14.421875 C 14.039062 -14.304688 14.117188 -14.082031 14.140625 -13.75 C 14.210938 -13.050781 14.269531 -12.398438 14.3125 -11.796875 C 14.351562 -11.191406 14.382812 -10.539062 14.40625 -9.84375 C 14.425781 -9.15625 14.4375 -8.3125 14.4375 -7.3125 C 14.4375 -5.53125 14.179688 -4.082031 13.671875 -2.96875 C 13.160156 -1.863281 12.425781 -1.054688 11.46875 -0.546875 C 10.519531 -0.046875 9.390625 0.203125 8.078125 0.203125 Z M 8.078125 0.203125 "/></g></g></g><g fill="#518ac0" fill-opacity="1"><g transform="translate(209.850383, 360.074705)"><g/></g></g><g fill="#518ac0" fill-opacity="1"><g transform="translate(219.70836, 360.074705)"><g><path d="M 8.21875 0.203125 C 5.769531 0.203125 3.953125 -0.421875 2.765625 -1.671875 C 1.578125 -2.929688 0.984375 -4.765625 0.984375 -7.171875 C 0.984375 -9.546875 1.601562 -11.378906 2.84375 -12.671875 C 4.09375 -13.972656 5.847656 -14.625 8.109375 -14.625 C 9.492188 -14.625 10.675781 -14.421875 11.65625 -14.015625 C 12.644531 -13.609375 13.472656 -12.992188 14.140625 -12.171875 C 14.296875 -11.972656 14.375 -11.796875 14.375 -11.640625 C 14.375 -11.421875 14.222656 -11.164062 13.921875 -10.875 C 13.585938 -10.570312 13.300781 -10.421875 13.0625 -10.421875 C 12.863281 -10.421875 12.691406 -10.515625 12.546875 -10.703125 C 12.097656 -11.222656 11.535156 -11.65625 10.859375 -12 C 10.191406 -12.34375 9.304688 -12.515625 8.203125 -12.515625 C 6.617188 -12.515625 5.414062 -12.035156 4.59375 -11.078125 C 3.769531 -10.117188 3.359375 -8.820312 3.359375 -7.1875 C 3.359375 -5.414062 3.789062 -4.09375 4.65625 -3.21875 C 5.53125 -2.351562 6.75 -1.921875 8.3125 -1.921875 C 9.332031 -1.921875 10.15625 -2.082031 10.78125 -2.40625 C 11.40625 -2.738281 11.929688 -3.160156 12.359375 -3.671875 C 12.492188 -3.804688 12.65625 -3.875 12.84375 -3.875 C 13.101562 -3.875 13.367188 -3.703125 13.640625 -3.359375 C 13.867188 -3.046875 13.984375 -2.796875 13.984375 -2.609375 C 13.984375 -2.453125 13.882812 -2.257812 13.6875 -2.03125 C 13.351562 -1.59375 12.945312 -1.207031 12.46875 -0.875 C 12 -0.539062 11.421875 -0.273438 10.734375 -0.078125 C 10.046875 0.109375 9.207031 0.203125 8.21875 0.203125 Z M 8.21875 0.203125 "/></g></g></g><g fill="#518ac0" fill-opacity="1"><g transform="translate(238.636705, 360.074705)"><g><path d="M 2.40625 0.21875 C 1.914062 0.21875 1.5625 0.144531 1.34375 0 C 1.125 -0.144531 1.019531 -0.410156 1.03125 -0.796875 C 1.207031 -2.628906 1.550781 -4.394531 2.0625 -6.09375 C 2.582031 -7.800781 3.226562 -9.359375 4 -10.765625 C 4.78125 -12.171875 5.65625 -13.347656 6.625 -14.296875 C 6.96875 -14.523438 7.300781 -14.640625 7.625 -14.640625 C 7.945312 -14.640625 8.269531 -14.546875 8.59375 -14.359375 C 9.726562 -13.460938 10.707031 -12.359375 11.53125 -11.046875 C 12.363281 -9.734375 13.003906 -8.304688 13.453125 -6.765625 C 13.910156 -5.222656 14.140625 -3.65625 14.140625 -2.0625 C 14.140625 -1.632812 14.125 -1.203125 14.09375 -0.765625 C 14.0625 -0.378906 13.96875 -0.125 13.8125 0 C 13.65625 0.132812 13.40625 0.203125 13.0625 0.203125 C 12.5625 0.203125 12.210938 0.132812 12.015625 0 C 11.816406 -0.144531 11.722656 -0.441406 11.734375 -0.890625 C 11.753906 -1.078125 11.765625 -1.265625 11.765625 -1.453125 C 11.773438 -1.648438 11.78125 -1.835938 11.78125 -2.015625 C 11.78125 -2.816406 11.71875 -3.585938 11.59375 -4.328125 C 10.875 -4.328125 10.054688 -4.332031 9.140625 -4.34375 C 8.234375 -4.351562 7.332031 -4.375 6.4375 -4.40625 C 5.539062 -4.445312 4.75 -4.484375 4.0625 -4.515625 C 3.90625 -3.921875 3.769531 -3.3125 3.65625 -2.6875 C 3.550781 -2.0625 3.460938 -1.425781 3.390625 -0.78125 C 3.367188 -0.394531 3.28125 -0.132812 3.125 0 C 2.976562 0.144531 2.738281 0.21875 2.40625 0.21875 Z M 4.671875 -6.5625 C 5.328125 -6.539062 6.035156 -6.519531 6.796875 -6.5 C 7.566406 -6.476562 8.320312 -6.457031 9.0625 -6.4375 C 9.8125 -6.425781 10.5 -6.421875 11.125 -6.421875 C 10.757812 -7.578125 10.28125 -8.648438 9.6875 -9.640625 C 9.09375 -10.628906 8.410156 -11.507812 7.640625 -12.28125 C 7.085938 -11.5625 6.550781 -10.71875 6.03125 -9.75 C 5.519531 -8.78125 5.066406 -7.71875 4.671875 -6.5625 Z M 4.671875 -6.5625 "/></g></g></g><g fill="#518ac0" fill-opacity="1"><g transform="translate(257.48278, 360.074705)"><g><path d="M 3.296875 0.171875 C 3.210938 0.179688 3.132812 0.1875 3.0625 0.1875 C 3 0.195312 2.929688 0.203125 2.859375 0.203125 C 2.578125 0.203125 2.359375 0.144531 2.203125 0.03125 C 2.054688 -0.0703125 1.96875 -0.210938 1.9375 -0.390625 C 1.800781 -1.347656 1.691406 -2.414062 1.609375 -3.59375 C 1.523438 -4.78125 1.484375 -5.976562 1.484375 -7.1875 C 1.484375 -8.394531 1.503906 -9.515625 1.546875 -10.546875 C 1.597656 -11.585938 1.671875 -12.523438 1.765625 -13.359375 C 1.828125 -13.859375 1.976562 -14.195312 2.21875 -14.375 C 2.457031 -14.550781 2.707031 -14.640625 2.96875 -14.640625 C 3.238281 -14.640625 3.445312 -14.582031 3.59375 -14.46875 C 3.738281 -14.363281 3.882812 -14.207031 4.03125 -14 C 4.507812 -13.207031 5.117188 -12.257812 5.859375 -11.15625 C 6.609375 -10.050781 7.425781 -8.875 8.3125 -7.625 C 9.195312 -6.382812 10.078125 -5.15625 10.953125 -3.9375 C 10.984375 -4.46875 11.007812 -5.007812 11.03125 -5.5625 C 11.0625 -6.113281 11.078125 -6.640625 11.078125 -7.140625 C 11.078125 -9.335938 10.921875 -11.421875 10.609375 -13.390625 C 10.585938 -13.453125 10.578125 -13.507812 10.578125 -13.5625 C 10.578125 -13.613281 10.578125 -13.664062 10.578125 -13.71875 C 10.578125 -14.019531 10.65625 -14.234375 10.8125 -14.359375 C 10.976562 -14.484375 11.28125 -14.570312 11.71875 -14.625 C 11.789062 -14.632812 11.847656 -14.640625 11.890625 -14.640625 C 11.941406 -14.640625 11.992188 -14.640625 12.046875 -14.640625 C 12.378906 -14.640625 12.609375 -14.5625 12.734375 -14.40625 C 12.867188 -14.257812 12.945312 -13.992188 12.96875 -13.609375 C 13.132812 -12.523438 13.25 -11.492188 13.3125 -10.515625 C 13.375 -9.546875 13.40625 -8.507812 13.40625 -7.40625 C 13.40625 -6.769531 13.394531 -6.078125 13.375 -5.328125 C 13.363281 -4.578125 13.34375 -3.832031 13.3125 -3.09375 C 13.28125 -2.363281 13.226562 -1.691406 13.15625 -1.078125 C 13.101562 -0.617188 12.972656 -0.289062 12.765625 -0.09375 C 12.554688 0.101562 12.296875 0.203125 11.984375 0.203125 C 11.753906 0.203125 11.554688 0.144531 11.390625 0.03125 C 11.222656 -0.0703125 11.035156 -0.234375 10.828125 -0.453125 C 10.171875 -1.273438 9.453125 -2.207031 8.671875 -3.25 C 7.890625 -4.289062 7.097656 -5.378906 6.296875 -6.515625 C 5.492188 -7.660156 4.710938 -8.789062 3.953125 -9.90625 C 3.921875 -9.46875 3.894531 -9.015625 3.875 -8.546875 C 3.851562 -8.078125 3.84375 -7.601562 3.84375 -7.125 C 3.84375 -6.445312 3.863281 -5.726562 3.90625 -4.96875 C 3.945312 -4.21875 4 -3.484375 4.0625 -2.765625 C 4.125 -2.046875 4.195312 -1.382812 4.28125 -0.78125 C 4.3125 -0.519531 4.253906 -0.3125 4.109375 -0.15625 C 3.972656 -0.0078125 3.703125 0.0976562 3.296875 0.171875 Z M 3.296875 0.171875 "/></g></g></g><g fill="#518ac0" fill-opacity="1"><g transform="translate(276.040923, 360.074705)"><g/></g></g><g fill="#518ac0" fill-opacity="1"><g transform="translate(285.8989, 360.074705)"><g><path d="M 1.40625 -12.28125 C 0.957031 -12.25 0.660156 -12.328125 0.515625 -12.515625 C 0.378906 -12.710938 0.3125 -13.046875 0.3125 -13.515625 C 0.3125 -13.785156 0.367188 -13.992188 0.484375 -14.140625 C 0.597656 -14.296875 0.820312 -14.378906 1.15625 -14.390625 C 1.507812 -14.453125 2.023438 -14.492188 2.703125 -14.515625 C 3.390625 -14.546875 4.15625 -14.5625 5 -14.5625 C 5.238281 -14.5625 5.472656 -14.554688 5.703125 -14.546875 C 5.929688 -14.546875 6.171875 -14.546875 6.421875 -14.546875 C 7.585938 -14.523438 8.65625 -14.492188 9.625 -14.453125 C 10.601562 -14.410156 11.34375 -14.363281 11.84375 -14.3125 C 12.144531 -14.300781 12.347656 -14.21875 12.453125 -14.0625 C 12.566406 -13.914062 12.625 -13.703125 12.625 -13.421875 C 12.625 -13.015625 12.570312 -12.703125 12.46875 -12.484375 C 12.363281 -12.273438 12.054688 -12.175781 11.546875 -12.1875 C 11.066406 -12.226562 10.472656 -12.269531 9.765625 -12.3125 C 9.066406 -12.351562 8.316406 -12.378906 7.515625 -12.390625 C 7.429688 -11.546875 7.359375 -10.585938 7.296875 -9.515625 C 7.234375 -8.441406 7.203125 -7.320312 7.203125 -6.15625 C 7.222656 -5.164062 7.238281 -4.234375 7.25 -3.359375 C 7.257812 -2.492188 7.296875 -1.65625 7.359375 -0.84375 C 7.378906 -0.550781 7.304688 -0.300781 7.140625 -0.09375 C 6.984375 0.101562 6.609375 0.203125 6.015625 0.203125 C 5.710938 0.203125 5.472656 0.140625 5.296875 0.015625 C 5.117188 -0.109375 5.015625 -0.335938 4.984375 -0.671875 C 4.941406 -1.441406 4.910156 -2.304688 4.890625 -3.265625 C 4.867188 -4.234375 4.851562 -5.175781 4.84375 -6.09375 C 4.84375 -7.238281 4.875 -8.351562 4.9375 -9.4375 C 5.007812 -10.53125 5.09375 -11.523438 5.1875 -12.421875 C 4.332031 -12.421875 3.554688 -12.398438 2.859375 -12.359375 C 2.171875 -12.328125 1.6875 -12.300781 1.40625 -12.28125 Z M 1.40625 -12.28125 "/></g></g></g><g fill="#518ac0" fill-opacity="1"><g transform="translate(302.297414, 360.074705)"><g><path d="M 3.15625 0.203125 C 2.726562 0.203125 2.414062 0.144531 2.21875 0.03125 C 2.03125 -0.0820312 1.929688 -0.3125 1.921875 -0.65625 C 1.878906 -1.34375 1.847656 -2.007812 1.828125 -2.65625 C 1.816406 -3.300781 1.8125 -4.019531 1.8125 -4.8125 C 1.8125 -5.050781 1.8125 -5.289062 1.8125 -5.53125 C 1.8125 -5.78125 1.8125 -6.035156 1.8125 -6.296875 C 1.820312 -7.398438 1.859375 -8.460938 1.921875 -9.484375 C 1.984375 -10.515625 2.039062 -11.429688 2.09375 -12.234375 L 1.5625 -12.15625 C 1.507812 -12.132812 1.457031 -12.125 1.40625 -12.125 C 1.363281 -12.125 1.3125 -12.125 1.25 -12.125 C 1.019531 -12.125 0.847656 -12.191406 0.734375 -12.328125 C 0.628906 -12.472656 0.550781 -12.675781 0.5 -12.9375 C 0.457031 -13.101562 0.4375 -13.253906 0.4375 -13.390625 C 0.4375 -13.785156 0.679688 -14.050781 1.171875 -14.1875 C 1.898438 -14.351562 2.628906 -14.46875 3.359375 -14.53125 C 4.097656 -14.59375 4.863281 -14.625 5.65625 -14.625 C 8.1875 -14.625 10.035156 -14.222656 11.203125 -13.421875 C 12.378906 -12.617188 12.96875 -11.378906 12.96875 -9.703125 C 12.96875 -8.535156 12.679688 -7.554688 12.109375 -6.765625 C 11.535156 -5.972656 10.691406 -5.421875 9.578125 -5.109375 C 9.867188 -4.640625 10.179688 -4.203125 10.515625 -3.796875 C 10.835938 -3.421875 11.15625 -3.09375 11.46875 -2.8125 C 11.78125 -2.53125 12.140625 -2.238281 12.546875 -1.9375 C 12.828125 -1.757812 12.96875 -1.519531 12.96875 -1.21875 C 12.96875 -0.957031 12.867188 -0.6875 12.671875 -0.40625 C 12.390625 -0.0078125 12.085938 0.1875 11.765625 0.1875 C 11.578125 0.1875 11.382812 0.117188 11.1875 -0.015625 C 10.675781 -0.390625 10.238281 -0.75 9.875 -1.09375 C 9.507812 -1.445312 9.128906 -1.878906 8.734375 -2.390625 C 8.421875 -2.785156 8.132812 -3.191406 7.875 -3.609375 C 7.625 -4.035156 7.398438 -4.4375 7.203125 -4.8125 C 6.628906 -4.8125 6.082031 -4.835938 5.5625 -4.890625 C 5.050781 -4.953125 4.59375 -5.019531 4.1875 -5.09375 C 4.1875 -4.28125 4.191406 -3.492188 4.203125 -2.734375 C 4.210938 -1.984375 4.234375 -1.328125 4.265625 -0.765625 C 4.285156 -0.503906 4.21875 -0.273438 4.0625 -0.078125 C 3.914062 0.109375 3.613281 0.203125 3.15625 0.203125 Z M 4.1875 -7.25 C 4.5625 -7.164062 4.992188 -7.09375 5.484375 -7.03125 C 5.984375 -6.96875 6.503906 -6.9375 7.046875 -6.9375 C 8.210938 -6.9375 9.097656 -7.179688 9.703125 -7.671875 C 10.304688 -8.160156 10.609375 -8.835938 10.609375 -9.703125 C 10.609375 -10.628906 10.253906 -11.328125 9.546875 -11.796875 C 8.835938 -12.273438 7.707031 -12.515625 6.15625 -12.515625 C 5.851562 -12.515625 5.5625 -12.507812 5.28125 -12.5 C 5.007812 -12.5 4.738281 -12.492188 4.46875 -12.484375 C 4.414062 -11.765625 4.359375 -10.960938 4.296875 -10.078125 C 4.242188 -9.203125 4.207031 -8.257812 4.1875 -7.25 Z M 4.1875 -7.25 "/></g></g></g><g fill="#518ac0" fill-opacity="1"><g transform="translate(319.868299, 360.074705)"><g><path d="M 8.078125 0.203125 C 5.785156 0.203125 4.113281 -0.53125 3.0625 -2 C 2.007812 -3.476562 1.484375 -5.8125 1.484375 -9 C 1.484375 -10.082031 1.503906 -11 1.546875 -11.75 C 1.585938 -12.5 1.65625 -13.1875 1.75 -13.8125 C 1.832031 -14.351562 2.148438 -14.625 2.703125 -14.625 C 2.765625 -14.625 2.832031 -14.617188 2.90625 -14.609375 C 2.988281 -14.597656 3.070312 -14.585938 3.15625 -14.578125 C 3.582031 -14.515625 3.851562 -14.398438 3.96875 -14.234375 C 4.082031 -14.066406 4.125 -13.859375 4.09375 -13.609375 C 4.007812 -12.984375 3.945312 -12.332031 3.90625 -11.65625 C 3.863281 -10.976562 3.84375 -10.175781 3.84375 -9.25 C 3.84375 -6.664062 4.175781 -4.796875 4.84375 -3.640625 C 5.507812 -2.492188 6.613281 -1.921875 8.15625 -1.921875 C 9.46875 -1.921875 10.445312 -2.335938 11.09375 -3.171875 C 11.738281 -4.003906 12.0625 -5.382812 12.0625 -7.3125 C 12.0625 -8.144531 12.050781 -8.894531 12.03125 -9.5625 C 12.007812 -10.238281 11.984375 -10.894531 11.953125 -11.53125 C 11.921875 -12.175781 11.867188 -12.863281 11.796875 -13.59375 C 11.785156 -13.976562 11.867188 -14.238281 12.046875 -14.375 C 12.222656 -14.519531 12.59375 -14.59375 13.15625 -14.59375 C 13.53125 -14.59375 13.78125 -14.535156 13.90625 -14.421875 C 14.039062 -14.304688 14.117188 -14.082031 14.140625 -13.75 C 14.210938 -13.050781 14.269531 -12.398438 14.3125 -11.796875 C 14.351562 -11.191406 14.382812 -10.539062 14.40625 -9.84375 C 14.425781 -9.15625 14.4375 -8.3125 14.4375 -7.3125 C 14.4375 -5.53125 14.179688 -4.082031 13.671875 -2.96875 C 13.160156 -1.863281 12.425781 -1.054688 11.46875 -0.546875 C 10.519531 -0.046875 9.390625 0.203125 8.078125 0.203125 Z M 8.078125 0.203125 "/></g></g></g><g fill="#518ac0" fill-opacity="1"><g transform="translate(339.43425, 360.074705)"><g><path d="M 6.5625 0.203125 C 5.644531 0.203125 4.847656 0.148438 4.171875 0.046875 C 3.503906 -0.0546875 2.910156 -0.207031 2.390625 -0.40625 C 1.878906 -0.613281 1.390625 -0.851562 0.921875 -1.125 C 0.578125 -1.351562 0.40625 -1.609375 0.40625 -1.890625 C 0.40625 -2.066406 0.46875 -2.25 0.59375 -2.4375 C 0.914062 -2.914062 1.226562 -3.15625 1.53125 -3.15625 C 1.632812 -3.15625 1.753906 -3.117188 1.890625 -3.046875 C 2.359375 -2.816406 2.835938 -2.613281 3.328125 -2.4375 C 3.816406 -2.269531 4.359375 -2.140625 4.953125 -2.046875 C 5.546875 -1.960938 6.242188 -1.921875 7.046875 -1.921875 C 7.828125 -1.921875 8.476562 -2.0625 9 -2.34375 C 9.53125 -2.632812 9.796875 -3.132812 9.796875 -3.84375 C 9.796875 -4.820312 8.582031 -5.691406 6.15625 -6.453125 C 4.78125 -6.890625 3.726562 -7.320312 3 -7.75 C 2.28125 -8.1875 1.785156 -8.660156 1.515625 -9.171875 C 1.242188 -9.691406 1.109375 -10.289062 1.109375 -10.96875 C 1.109375 -12.125 1.546875 -13.019531 2.421875 -13.65625 C 3.304688 -14.300781 4.726562 -14.625 6.6875 -14.625 C 7.488281 -14.625 8.164062 -14.582031 8.71875 -14.5 C 9.28125 -14.425781 9.769531 -14.320312 10.1875 -14.1875 C 10.613281 -14.0625 11.015625 -13.910156 11.390625 -13.734375 C 11.535156 -13.648438 11.648438 -13.5625 11.734375 -13.46875 C 11.828125 -13.375 11.875 -13.238281 11.875 -13.0625 C 11.875 -12.90625 11.835938 -12.710938 11.765625 -12.484375 C 11.566406 -12.023438 11.3125 -11.796875 11 -11.796875 C 10.84375 -11.796875 10.644531 -11.832031 10.40625 -11.90625 C 9.851562 -12.09375 9.25 -12.238281 8.59375 -12.34375 C 7.945312 -12.457031 7.238281 -12.515625 6.46875 -12.515625 C 5.394531 -12.515625 4.628906 -12.378906 4.171875 -12.109375 C 3.710938 -11.835938 3.484375 -11.429688 3.484375 -10.890625 C 3.484375 -10.410156 3.753906 -9.976562 4.296875 -9.59375 C 4.847656 -9.207031 5.785156 -8.816406 7.109375 -8.421875 C 8.441406 -8.023438 9.472656 -7.597656 10.203125 -7.140625 C 10.941406 -6.691406 11.460938 -6.203125 11.765625 -5.671875 C 12.066406 -5.140625 12.21875 -4.5625 12.21875 -3.9375 C 12.21875 -2.65625 11.773438 -1.644531 10.890625 -0.90625 C 10.015625 -0.164062 8.570312 0.203125 6.5625 0.203125 Z M 6.5625 0.203125 "/></g></g></g><g fill="#518ac0" fill-opacity="1"><g transform="translate(356.141292, 360.074705)"><g><path d="M 1.40625 -12.28125 C 0.957031 -12.25 0.660156 -12.328125 0.515625 -12.515625 C 0.378906 -12.710938 0.3125 -13.046875 0.3125 -13.515625 C 0.3125 -13.785156 0.367188 -13.992188 0.484375 -14.140625 C 0.597656 -14.296875 0.820312 -14.378906 1.15625 -14.390625 C 1.507812 -14.453125 2.023438 -14.492188 2.703125 -14.515625 C 3.390625 -14.546875 4.15625 -14.5625 5 -14.5625 C 5.238281 -14.5625 5.472656 -14.554688 5.703125 -14.546875 C 5.929688 -14.546875 6.171875 -14.546875 6.421875 -14.546875 C 7.585938 -14.523438 8.65625 -14.492188 9.625 -14.453125 C 10.601562 -14.410156 11.34375 -14.363281 11.84375 -14.3125 C 12.144531 -14.300781 12.347656 -14.21875 12.453125 -14.0625 C 12.566406 -13.914062 12.625 -13.703125 12.625 -13.421875 C 12.625 -13.015625 12.570312 -12.703125 12.46875 -12.484375 C 12.363281 -12.273438 12.054688 -12.175781 11.546875 -12.1875 C 11.066406 -12.226562 10.472656 -12.269531 9.765625 -12.3125 C 9.066406 -12.351562 8.316406 -12.378906 7.515625 -12.390625 C 7.429688 -11.546875 7.359375 -10.585938 7.296875 -9.515625 C 7.234375 -8.441406 7.203125 -7.320312 7.203125 -6.15625 C 7.222656 -5.164062 7.238281 -4.234375 7.25 -3.359375 C 7.257812 -2.492188 7.296875 -1.65625 7.359375 -0.84375 C 7.378906 -0.550781 7.304688 -0.300781 7.140625 -0.09375 C 6.984375 0.101562 6.609375 0.203125 6.015625 0.203125 C 5.710938 0.203125 5.472656 0.140625 5.296875 0.015625 C 5.117188 -0.109375 5.015625 -0.335938 4.984375 -0.671875 C 4.941406 -1.441406 4.910156 -2.304688 4.890625 -3.265625 C 4.867188 -4.234375 4.851562 -5.175781 4.84375 -6.09375 C 4.84375 -7.238281 4.875 -8.351562 4.9375 -9.4375 C 5.007812 -10.53125 5.09375 -11.523438 5.1875 -12.421875 C 4.332031 -12.421875 3.554688 -12.398438 2.859375 -12.359375 C 2.171875 -12.328125 1.6875 -12.300781 1.40625 -12.28125 Z M 1.40625 -12.28125 "/></g></g></g><g clip-path="url(#2c6f2821f8)"><g clip-path="url(#596a25cf8d)"><g clip-path="url(#4c6801ae64)"><path fill="#b0d2f2" d="M 257.019531 154.074219 C 263.925781 144.5 276.226562 141.484375 282.355469 151.472656 C 293.75 169.996094 249.363281 187.652344 249.363281 187.652344 C 234.066406 167.214844 223.503906 150.320312 237.746094 141.089844 C 245.734375 135.90625 255.105469 142.828125 257.019531 154.074219 Z M 257.019531 154.074219 " fill-opacity="1" fill-rule="nonzero"/></g></g></g><g fill="#518ac0" fill-opacity="1"><g transform="translate(24.700037, 326.510932)"><g><path d="M 52.265625 -10.71875 C 53.546875 -8.75 53.546875 -6.894531 52.265625 -5.15625 C 50.753906 -3.1875 49.21875 -1.859375 47.65625 -1.171875 C 42.757812 1.117188 37.378906 2.398438 31.515625 2.671875 C 22.816406 2.035156 15.769531 -0.800781 10.375 -5.84375 C 3.132812 -12.570312 0.910156 -21.3125 3.703125 -32.0625 C 5.765625 -40.164062 10.78125 -46.785156 18.75 -51.921875 C 20.582031 -53.054688 22.503906 -53.910156 24.515625 -54.484375 C 26.523438 -55.054688 28.539062 -55.34375 30.5625 -55.34375 C 32.9375 -55.34375 35.234375 -54.960938 37.453125 -54.203125 C 39.679688 -53.453125 41.707031 -52.320312 43.53125 -50.8125 C 44.90625 -49.664062 45.914062 -48.429688 46.5625 -47.109375 C 47.113281 -45.867188 47.066406 -44.769531 46.421875 -43.8125 C 45.691406 -42.851562 44.59375 -42.460938 43.125 -42.640625 C 42.070312 -42.734375 40.90625 -43.054688 39.625 -43.609375 C 34.863281 -45.523438 30.640625 -45.75 26.953125 -44.28125 C 23.265625 -42.820312 19.84375 -39.578125 16.6875 -34.546875 C 16 -33.441406 15.484375 -32.269531 15.140625 -31.03125 C 14.796875 -29.800781 14.535156 -28.679688 14.359375 -27.671875 C 13.710938 -24.472656 14.144531 -21.453125 15.65625 -18.609375 C 17.164062 -15.773438 19.5 -13.601562 22.65625 -12.09375 C 25.132812 -10.851562 27.570312 -10.128906 29.96875 -9.921875 C 32.375 -9.710938 34.6875 -9.8125 36.90625 -10.21875 C 39.125 -10.632812 41.242188 -11.1875 43.265625 -11.875 C 43.859375 -12.0625 44.507812 -12.253906 45.21875 -12.453125 C 45.925781 -12.660156 46.601562 -12.8125 47.25 -12.90625 C 49.445312 -13.132812 51.117188 -12.40625 52.265625 -10.71875 Z M 52.265625 -10.71875 "/></g></g></g><g fill="#518ac0" fill-opacity="1"><g transform="translate(80.386579, 326.510932)"><g><path d="M 35.296875 -13.734375 C 35.753906 -11.671875 35.773438 -9.941406 35.359375 -8.546875 C 34.953125 -7.148438 34.082031 -6.175781 32.75 -5.625 C 31.332031 -5.03125 29.9375 -5.039062 28.5625 -5.65625 C 27.1875 -6.28125 25.90625 -7.460938 24.71875 -9.203125 C 24.625 -9.335938 24.507812 -9.484375 24.375 -9.640625 C 24.238281 -9.804688 24.101562 -10.003906 23.96875 -10.234375 C 23.601562 -10.003906 23.269531 -9.765625 22.96875 -9.515625 C 22.675781 -9.265625 22.34375 -9.046875 21.96875 -8.859375 C 21.007812 -8.398438 20.050781 -7.90625 19.09375 -7.375 C 18.132812 -6.851562 17.125 -6.476562 16.0625 -6.25 C 13.5 -5.601562 11.15625 -5.710938 9.03125 -6.578125 C 6.90625 -7.453125 5.242188 -8.875 4.046875 -10.84375 C 2.859375 -12.8125 2.378906 -15.125 2.609375 -17.78125 C 2.742188 -19.9375 3.300781 -22.039062 4.28125 -24.09375 C 5.269531 -26.15625 6.53125 -28.066406 8.0625 -29.828125 C 9.601562 -31.597656 11.332031 -33.078125 13.25 -34.265625 C 15.175781 -35.453125 17.144531 -36.207031 19.15625 -36.53125 C 21.445312 -36.945312 23.519531 -36.707031 25.375 -35.8125 C 27.226562 -34.914062 29.003906 -33.828125 30.703125 -32.546875 C 31.242188 -32.140625 31.640625 -31.5 31.890625 -30.625 C 32.148438 -29.757812 32.347656 -28.9375 32.484375 -28.15625 C 33.035156 -25.769531 33.515625 -23.363281 33.921875 -20.9375 C 34.335938 -18.519531 34.796875 -16.117188 35.296875 -13.734375 Z M 15.453125 -16.203125 C 17.554688 -17.023438 19.15625 -18.554688 20.25 -20.796875 C 21.351562 -23.046875 21.675781 -25.476562 21.21875 -28.09375 C 18.925781 -27.175781 17.128906 -25.878906 15.828125 -24.203125 C 14.523438 -22.535156 13.484375 -20.625 12.703125 -18.46875 C 12.609375 -18.144531 12.5625 -17.707031 12.5625 -17.15625 C 12.5625 -16.613281 12.65625 -16.296875 12.84375 -16.203125 C 13.207031 -16.023438 13.628906 -15.9375 14.109375 -15.9375 C 14.585938 -15.9375 15.035156 -16.023438 15.453125 -16.203125 Z M 15.453125 -16.203125 "/></g></g></g><g fill="#518ac0" fill-opacity="1"><g transform="translate(118.632456, 326.510932)"><g><path d="M 30.828125 -27.265625 C 31.015625 -26.617188 31.050781 -25.875 30.9375 -25.03125 C 30.820312 -24.1875 30.554688 -23.535156 30.140625 -23.078125 C 29.773438 -22.617188 29.191406 -22.304688 28.390625 -22.140625 C 27.585938 -21.984375 26.84375 -21.925781 26.15625 -21.96875 C 25.476562 -22.019531 24.796875 -22.21875 24.109375 -22.5625 C 23.421875 -22.90625 22.753906 -23.234375 22.109375 -23.546875 C 21.191406 -24.003906 20.390625 -24.128906 19.703125 -23.921875 C 19.015625 -23.722656 18.535156 -23.1875 18.265625 -22.3125 C 17.117188 -19.15625 16.179688 -15.90625 15.453125 -12.5625 C 15.265625 -11.832031 15.226562 -11.066406 15.34375 -10.265625 C 15.457031 -9.460938 15.46875 -8.671875 15.375 -7.890625 C 15.238281 -6.203125 14.609375 -4.816406 13.484375 -3.734375 C 12.367188 -2.660156 11.035156 -2.078125 9.484375 -1.984375 C 7.878906 -1.898438 6.476562 -2.328125 5.28125 -3.265625 C 4.09375 -4.203125 3.296875 -5.492188 2.890625 -7.140625 C 2.796875 -7.554688 2.710938 -7.96875 2.640625 -8.375 C 2.578125 -8.789062 2.546875 -9.226562 2.546875 -9.6875 C 2.585938 -13.757812 2.617188 -17.84375 2.640625 -21.9375 C 2.660156 -26.039062 2.695312 -30.128906 2.75 -34.203125 C 2.75 -34.609375 2.769531 -35.050781 2.8125 -35.53125 C 2.863281 -36.019531 3.023438 -36.398438 3.296875 -36.671875 C 3.753906 -37.222656 4.269531 -37.804688 4.84375 -38.421875 C 5.414062 -39.035156 6 -39.367188 6.59375 -39.421875 C 7.1875 -39.460938 7.835938 -39.265625 8.546875 -38.828125 C 9.253906 -38.398438 9.863281 -37.910156 10.375 -37.359375 C 10.78125 -36.898438 11.085938 -36.316406 11.296875 -35.609375 C 11.503906 -34.898438 11.742188 -34.175781 12.015625 -33.4375 C 16.410156 -35.820312 20.757812 -35.914062 25.0625 -33.71875 C 26.476562 -33.03125 27.691406 -32.160156 28.703125 -31.109375 C 29.710938 -30.054688 30.421875 -28.773438 30.828125 -27.265625 Z M 30.828125 -27.265625 "/></g></g></g><g fill="#518ac0" fill-opacity="1"><g transform="translate(152.209171, 326.510932)"><g><path d="M 29.59375 -33.234375 C 31.332031 -31.453125 32.335938 -29.519531 32.609375 -27.4375 C 32.890625 -25.351562 32.476562 -23.425781 31.375 -21.65625 C 30.28125 -19.894531 28.566406 -18.601562 26.234375 -17.78125 C 24.359375 -17.144531 22.398438 -16.695312 20.359375 -16.4375 C 18.328125 -16.1875 16.234375 -15.859375 14.078125 -15.453125 C 14.722656 -15.265625 15.34375 -15.066406 15.9375 -14.859375 C 16.53125 -14.660156 17.125 -14.515625 17.71875 -14.421875 C 18.90625 -14.191406 20.101562 -14.019531 21.3125 -13.90625 C 22.53125 -13.789062 23.710938 -13.550781 24.859375 -13.1875 C 26.503906 -12.632812 27.5 -11.707031 27.84375 -10.40625 C 28.1875 -9.101562 27.738281 -7.832031 26.5 -6.59375 C 25.863281 -5.90625 25.0625 -5.296875 24.09375 -4.765625 C 23.132812 -4.242188 22.195312 -3.9375 21.28125 -3.84375 C 17.070312 -3.4375 13.523438 -3.972656 10.640625 -5.453125 C 7.753906 -6.941406 5.625 -9.0625 4.25 -11.8125 C 2.882812 -14.5625 2.335938 -17.628906 2.609375 -21.015625 C 2.796875 -23.117188 3.160156 -25.144531 3.703125 -27.09375 C 4.253906 -29.039062 5.125 -30.90625 6.3125 -32.6875 C 7.820312 -35.019531 9.765625 -36.703125 12.140625 -37.734375 C 14.523438 -38.765625 17.09375 -39.003906 19.84375 -38.453125 C 23.738281 -37.765625 26.988281 -36.023438 29.59375 -33.234375 Z M 23.546875 -26.640625 C 23.640625 -26.640625 23.742188 -26.671875 23.859375 -26.734375 C 23.972656 -26.804688 24.125 -26.890625 24.3125 -26.984375 C 23.4375 -28.222656 22.347656 -29.101562 21.046875 -29.625 C 19.742188 -30.15625 18.519531 -30.257812 17.375 -29.9375 C 16.320312 -29.613281 15.539062 -29.070312 15.03125 -28.3125 C 14.53125 -27.5625 14.144531 -26.660156 13.875 -25.609375 C 15.5625 -25.796875 17.207031 -25.96875 18.8125 -26.125 C 20.414062 -26.289062 21.992188 -26.460938 23.546875 -26.640625 Z M 23.546875 -26.640625 "/></g></g></g><g fill="#b0d2f2" fill-opacity="1"><g transform="translate(191.900731, 326.510932)"><g><path d="M 51.4375 -49.171875 C 51.707031 -47.796875 51.84375 -46.332031 51.84375 -44.78125 L 51.703125 -39.140625 C 51.617188 -34.796875 51.53125 -30.390625 51.4375 -25.921875 C 51.34375 -21.460938 51.203125 -17.007812 51.015625 -12.5625 C 50.878906 -7.800781 49.484375 -4.691406 46.828125 -3.234375 C 44.265625 -1.804688 40.972656 -2.238281 36.953125 -4.53125 C 34.890625 -5.71875 33 -7.144531 31.28125 -8.8125 C 29.5625 -10.488281 28.15625 -11.992188 27.0625 -13.328125 C 25.6875 -14.878906 24.378906 -16.515625 23.140625 -18.234375 C 21.898438 -19.953125 20.6875 -21.65625 19.5 -23.34375 C 19 -24.03125 18.507812 -24.71875 18.03125 -25.40625 C 17.550781 -26.09375 17.054688 -26.78125 16.546875 -27.46875 L 16.28125 -27.953125 C 16 -28.316406 15.695312 -28.691406 15.375 -29.078125 C 15.0625 -29.472656 14.648438 -29.851562 14.140625 -30.21875 L 12.984375 -31.109375 L 12.984375 -28.90625 C 12.984375 -28.632812 12.984375 -28.375 12.984375 -28.125 C 12.984375 -27.875 12.984375 -27.609375 12.984375 -27.328125 L 12.765625 -22.875 C 12.679688 -20.03125 12.59375 -17.15625 12.5 -14.25 C 12.40625 -11.34375 12.289062 -8.46875 12.15625 -5.625 C 12.113281 -4.570312 11.816406 -3.519531 11.265625 -2.46875 C 10.578125 -1.050781 9.613281 -0.320312 8.375 -0.28125 C 7.1875 -0.1875 6.203125 -0.800781 5.421875 -2.125 C 4.691406 -3.226562 4.28125 -4.304688 4.1875 -5.359375 C 3.320312 -12.546875 2.796875 -19.160156 2.609375 -25.203125 C 2.421875 -31.242188 2.582031 -37.035156 3.09375 -42.578125 C 3.132812 -43.535156 3.382812 -44.539062 3.84375 -45.59375 C 4.570312 -47.46875 5.785156 -48.707031 7.484375 -49.3125 C 8.128906 -49.488281 8.75 -49.578125 9.34375 -49.578125 C 10.4375 -49.578125 11.488281 -49.28125 12.5 -48.6875 C 13.96875 -47.863281 15.203125 -46.8125 16.203125 -45.53125 C 17.347656 -44.0625 18.492188 -42.570312 19.640625 -41.0625 C 20.785156 -39.550781 21.90625 -38.066406 23 -36.609375 C 23.644531 -35.773438 24.273438 -34.945312 24.890625 -34.125 C 25.515625 -33.300781 26.144531 -32.476562 26.78125 -31.65625 C 27.882812 -30.1875 28.984375 -28.742188 30.078125 -27.328125 C 31.171875 -25.910156 32.269531 -24.46875 33.375 -23 L 36.734375 -18.671875 L 38.53125 -19.359375 L 38.59375 -20.609375 C 38.632812 -20.878906 38.65625 -21.148438 38.65625 -21.421875 C 38.65625 -21.703125 38.679688 -21.976562 38.734375 -22.25 C 38.734375 -23.300781 38.753906 -24.351562 38.796875 -25.40625 C 38.847656 -26.457031 38.875 -27.507812 38.875 -28.5625 C 38.957031 -31.175781 39.046875 -33.8125 39.140625 -36.46875 C 39.234375 -39.125 39.328125 -41.78125 39.421875 -44.4375 C 39.554688 -46.445312 39.988281 -48.414062 40.71875 -50.34375 C 41.226562 -51.570312 42.019531 -52.503906 43.09375 -53.140625 C 44.164062 -53.785156 45.34375 -54.039062 46.625 -53.90625 C 47.8125 -53.769531 48.851562 -53.265625 49.75 -52.390625 C 50.644531 -51.523438 51.207031 -50.453125 51.4375 -49.171875 Z M 51.4375 -49.171875 "/></g></g></g><g fill="#b0d2f2" fill-opacity="1"><g transform="translate(246.351326, 326.510932)"><g><path d="M 29.59375 -33.234375 C 31.332031 -31.453125 32.335938 -29.519531 32.609375 -27.4375 C 32.890625 -25.351562 32.476562 -23.425781 31.375 -21.65625 C 30.28125 -19.894531 28.566406 -18.601562 26.234375 -17.78125 C 24.359375 -17.144531 22.398438 -16.695312 20.359375 -16.4375 C 18.328125 -16.1875 16.234375 -15.859375 14.078125 -15.453125 C 14.722656 -15.265625 15.34375 -15.066406 15.9375 -14.859375 C 16.53125 -14.660156 17.125 -14.515625 17.71875 -14.421875 C 18.90625 -14.191406 20.101562 -14.019531 21.3125 -13.90625 C 22.53125 -13.789062 23.710938 -13.550781 24.859375 -13.1875 C 26.503906 -12.632812 27.5 -11.707031 27.84375 -10.40625 C 28.1875 -9.101562 27.738281 -7.832031 26.5 -6.59375 C 25.863281 -5.90625 25.0625 -5.296875 24.09375 -4.765625 C 23.132812 -4.242188 22.195312 -3.9375 21.28125 -3.84375 C 17.070312 -3.4375 13.523438 -3.972656 10.640625 -5.453125 C 7.753906 -6.941406 5.625 -9.0625 4.25 -11.8125 C 2.882812 -14.5625 2.335938 -17.628906 2.609375 -21.015625 C 2.796875 -23.117188 3.160156 -25.144531 3.703125 -27.09375 C 4.253906 -29.039062 5.125 -30.90625 6.3125 -32.6875 C 7.820312 -35.019531 9.765625 -36.703125 12.140625 -37.734375 C 14.523438 -38.765625 17.09375 -39.003906 19.84375 -38.453125 C 23.738281 -37.765625 26.988281 -36.023438 29.59375 -33.234375 Z M 23.546875 -26.640625 C 23.640625 -26.640625 23.742188 -26.671875 23.859375 -26.734375 C 23.972656 -26.804688 24.125 -26.890625 24.3125 -26.984375 C 23.4375 -28.222656 22.347656 -29.101562 21.046875 -29.625 C 19.742188 -30.15625 18.519531 -30.257812 17.375 -29.9375 C 16.320312 -29.613281 15.539062 -29.070312 15.03125 -28.3125 C 14.53125 -27.5625 14.144531 -26.660156 13.875 -25.609375 C 15.5625 -25.796875 17.207031 -25.96875 18.8125 -26.125 C 20.414062 -26.289062 21.992188 -26.460938 23.546875 -26.640625 Z M 23.546875 -26.640625 "/></g></g></g><g fill="#b0d2f2" fill-opacity="1"><g transform="translate(281.644648, 326.510932)"><g><path d="M 26.15625 -19.921875 C 28.269531 -17.953125 29.507812 -15.851562 29.875 -13.625 C 30.238281 -11.40625 29.8125 -9.332031 28.59375 -7.40625 C 27.382812 -5.488281 25.429688 -4.023438 22.734375 -3.015625 C 21.453125 -2.515625 20.097656 -2.113281 18.671875 -1.8125 C 17.253906 -1.519531 15.882812 -1.421875 14.5625 -1.515625 C 13.320312 -1.597656 12.070312 -1.878906 10.8125 -2.359375 C 9.550781 -2.847656 8.375 -3.4375 7.28125 -4.125 C 6 -4.945312 5.1875 -6.03125 4.84375 -7.375 C 4.5 -8.726562 4.578125 -9.976562 5.078125 -11.125 C 5.585938 -12.21875 6.425781 -13.015625 7.59375 -13.515625 C 8.757812 -14.023438 10.117188 -14.191406 11.671875 -14.015625 C 12.773438 -13.867188 13.863281 -13.75 14.9375 -13.65625 C 16.007812 -13.570312 17.070312 -13.484375 18.125 -13.390625 C 18.175781 -13.523438 18.222656 -13.660156 18.265625 -13.796875 C 18.304688 -13.941406 18.351562 -14.101562 18.40625 -14.28125 C 17.582031 -14.5625 16.742188 -14.835938 15.890625 -15.109375 C 15.046875 -15.378906 14.234375 -15.695312 13.453125 -16.0625 C 12.085938 -16.75 10.71875 -17.410156 9.34375 -18.046875 C 7.96875 -18.691406 6.726562 -19.5 5.625 -20.46875 C 3.84375 -21.976562 2.835938 -23.757812 2.609375 -25.8125 C 2.378906 -27.875 2.789062 -29.9375 3.84375 -32 C 4.894531 -34.007812 6.425781 -35.675781 8.4375 -37 C 10.457031 -38.332031 12.644531 -39.226562 15 -39.6875 C 17.363281 -40.144531 19.617188 -40.03125 21.765625 -39.34375 C 23.410156 -38.84375 24.757812 -38.050781 25.8125 -36.96875 C 26.875 -35.894531 27.492188 -34.515625 27.671875 -32.828125 C 27.765625 -32.140625 27.6875 -31.40625 27.4375 -30.625 C 27.1875 -29.84375 26.832031 -29.179688 26.375 -28.640625 C 25.820312 -27.953125 25.15625 -27.695312 24.375 -27.875 C 23.601562 -28.0625 22.847656 -28.335938 22.109375 -28.703125 C 20.460938 -29.617188 18.984375 -29.960938 17.671875 -29.734375 C 16.367188 -29.503906 15.101562 -28.65625 13.875 -27.1875 C 14.46875 -26.914062 15.015625 -26.664062 15.515625 -26.4375 C 16.023438 -26.207031 16.507812 -25.957031 16.96875 -25.6875 C 18.519531 -24.769531 20.117188 -23.875 21.765625 -23 C 23.410156 -22.132812 24.875 -21.109375 26.15625 -19.921875 Z M 26.15625 -19.921875 "/></g></g></g><g fill="#b0d2f2" fill-opacity="1"><g transform="translate(314.260061, 326.510932)"><g><path d="M 28.703125 -11.953125 C 29.066406 -10.898438 29.085938 -9.9375 28.765625 -9.0625 C 28.453125 -8.195312 27.90625 -7.394531 27.125 -6.65625 C 25.976562 -5.601562 24.535156 -4.894531 22.796875 -4.53125 C 21.054688 -4.164062 19.269531 -4.128906 17.4375 -4.421875 C 15.613281 -4.722656 14.035156 -5.398438 12.703125 -6.453125 C 9.492188 -8.878906 7.6875 -12.109375 7.28125 -16.140625 C 7.09375 -17.515625 6.976562 -18.910156 6.9375 -20.328125 C 6.894531 -21.742188 6.847656 -23.140625 6.796875 -24.515625 C 6.796875 -25.203125 6.691406 -25.757812 6.484375 -26.1875 C 6.285156 -26.625 5.863281 -26.957031 5.21875 -27.1875 C 4.300781 -27.5625 3.578125 -28.085938 3.046875 -28.765625 C 2.523438 -29.453125 2.398438 -30.253906 2.671875 -31.171875 C 2.898438 -31.859375 3.300781 -32.535156 3.875 -33.203125 C 4.445312 -33.867188 5.054688 -34.316406 5.703125 -34.546875 C 6.523438 -34.910156 7.148438 -35.320312 7.578125 -35.78125 C 8.015625 -36.238281 8.257812 -36.925781 8.3125 -37.84375 C 8.351562 -38.664062 8.453125 -39.476562 8.609375 -40.28125 C 8.773438 -41.082031 8.925781 -41.894531 9.0625 -42.71875 C 9.5625 -45.507812 10.773438 -46.878906 12.703125 -46.828125 C 14.671875 -46.785156 15.863281 -45.367188 16.28125 -42.578125 C 16.414062 -41.617188 16.492188 -40.644531 16.515625 -39.65625 C 16.535156 -38.675781 16.546875 -37.703125 16.546875 -36.734375 C 16.546875 -35.453125 17.1875 -34.789062 18.46875 -34.75 C 19.289062 -34.695312 20.113281 -34.632812 20.9375 -34.5625 C 21.769531 -34.5 22.570312 -34.378906 23.34375 -34.203125 C 24.625 -33.878906 25.609375 -33.222656 26.296875 -32.234375 C 26.984375 -31.253906 27.28125 -30.191406 27.1875 -29.046875 C 27.101562 -27.859375 26.625 -26.835938 25.75 -25.984375 C 24.882812 -25.140625 23.8125 -24.671875 22.53125 -24.578125 C 21.613281 -24.492188 20.660156 -24.460938 19.671875 -24.484375 C 18.691406 -24.503906 17.5625 -24.515625 16.28125 -24.515625 C 16.457031 -23.140625 16.613281 -21.753906 16.75 -20.359375 C 16.894531 -18.960938 17.082031 -17.578125 17.3125 -16.203125 C 17.488281 -15.378906 17.882812 -14.785156 18.5 -14.421875 C 19.125 -14.054688 19.847656 -13.921875 20.671875 -14.015625 C 21.222656 -14.097656 21.757812 -14.195312 22.28125 -14.3125 C 22.8125 -14.425781 23.347656 -14.507812 23.890625 -14.5625 C 24.953125 -14.65625 25.90625 -14.503906 26.75 -14.109375 C 27.59375 -13.722656 28.242188 -13.003906 28.703125 -11.953125 Z M 28.703125 -11.953125 "/></g></g></g></svg>