<svg xmlns="http://www.w3.org/2000/svg" xmlns:xlink="http://www.w3.org/1999/xlink" width="1200" zoomAndPan="magnify" viewBox="0 0 900 112.499997" height="150" preserveAspectRatio="xMidYMid meet" version="1.0"><defs><clipPath id="f43f522d9c"><path d="M 1.992188 10 L 898.007812 10 L 898.007812 112.003906 L 1.992188 112.003906 Z M 1.992188 10 " clip-rule="nonzero"/></clipPath></defs><g clip-path="url(#f43f522d9c)"><path fill="#ffd0ec" d="M 1037.214844 460.324219 C 1004.335938 514.96875 938.808594 549.605469 875.035156 544.105469 C 802.605469 537.902344 734.039062 498.703125 663.011719 488.054688 C 601.113281 478.8125 538.277344 483.375 476.261719 489.109375 C 363.34375 499.640625 242.707031 516.605469 136.691406 465.121094 C 50.105469 422.996094 -16.476562 339.917969 -37.539062 245.726562 C -46.546875 205.238281 -47.367188 158.316406 -24.785156 121.808594 C 1.195312 79.683594 49.402344 71.609375 95.035156 77.929688 C 150.734375 85.535156 202.570312 104.84375 259.671875 104.140625 C 319.933594 103.4375 379.023438 88.578125 436.476562 71.960938 C 541.554688 41.539062 649.554688 0 760.949219 12.636719 C 855.378906 23.402344 942.902344 75.355469 1000.589844 150.476562 C 1066 235.777344 1095.605469 363.320312 1037.214844 460.324219 Z M 1037.214844 460.324219 " fill-opacity="1" fill-rule="nonzero"/></g></svg>