<svg xmlns="http://www.w3.org/2000/svg" xmlns:xlink="http://www.w3.org/1999/xlink" width="1200" zoomAndPan="magnify" viewBox="0 0 900 112.499997" height="150" preserveAspectRatio="xMidYMid meet" version="1.0"><defs><clipPath id="e28564e683"><path d="M 1.992188 0 L 898.007812 0 L 898.007812 96 L 1.992188 96 Z M 1.992188 0 " clip-rule="nonzero"/></clipPath></defs><g clip-path="url(#e28564e683)"><path fill="#ffd0ec" d="M 910.375 11.515625 C 877.496094 66.160156 811.96875 100.792969 748.195312 95.296875 C 675.765625 89.09375 607.199219 49.894531 536.171875 39.246094 C 474.273438 30.003906 411.4375 34.566406 349.421875 40.300781 C 236.503906 50.832031 115.867188 67.796875 9.851562 16.3125 C -76.734375 -25.8125 -143.316406 -108.890625 -164.378906 -203.085938 C -173.386719 -243.570312 -174.207031 -290.492188 -151.625 -327 C -125.648438 -369.125 -77.4375 -377.199219 -31.804688 -370.878906 C 23.894531 -363.273438 75.730469 -343.964844 132.832031 -344.667969 C 193.09375 -345.371094 252.183594 -360.230469 309.636719 -376.847656 C 414.714844 -407.269531 522.714844 -448.808594 634.109375 -436.171875 C 728.539062 -425.40625 816.0625 -373.453125 873.75 -298.332031 C 939.160156 -213.03125 968.765625 -85.488281 910.375 11.515625 Z M 910.375 11.515625 " fill-opacity="1" fill-rule="nonzero"/></g></svg>