<svg xmlns="http://www.w3.org/2000/svg" xmlns:xlink="http://www.w3.org/1999/xlink" width="250" zoomAndPan="magnify" viewBox="0 0 380 350" height="200" preserveAspectRatio="xMidYMid meet" version="1.0"><defs><g/></defs><g fill="#518ac0" fill-opacity="1"><g transform="translate(22.76469, 196.099603)"><g><path d="M 53.296875 -10.921875 C 54.597656 -8.910156 54.597656 -7.019531 53.296875 -5.25 C 51.753906 -3.238281 50.191406 -1.882812 48.609375 -1.1875 C 43.609375 1.144531 38.117188 2.453125 32.140625 2.734375 C 23.273438 2.078125 16.085938 -0.816406 10.578125 -5.953125 C 3.203125 -12.816406 0.9375 -21.734375 3.78125 -32.703125 C 5.882812 -40.960938 11 -47.707031 19.125 -52.9375 C 20.988281 -54.101562 22.945312 -54.976562 25 -55.5625 C 27.050781 -56.144531 29.101562 -56.4375 31.15625 -56.4375 C 33.59375 -56.4375 35.941406 -56.050781 38.203125 -55.28125 C 40.460938 -54.519531 42.53125 -53.367188 44.40625 -51.828125 C 45.800781 -50.660156 46.828125 -49.398438 47.484375 -48.046875 C 48.046875 -46.785156 48 -45.664062 47.34375 -44.6875 C 46.59375 -43.695312 45.472656 -43.296875 43.984375 -43.484375 C 42.910156 -43.578125 41.71875 -43.90625 40.40625 -44.46875 C 35.550781 -46.425781 31.242188 -46.65625 27.484375 -45.15625 C 23.722656 -43.664062 20.234375 -40.351562 17.015625 -35.21875 C 16.316406 -34.101562 15.789062 -32.914062 15.4375 -31.65625 C 15.09375 -30.394531 14.828125 -29.25 14.640625 -28.21875 C 13.984375 -24.957031 14.425781 -21.878906 15.96875 -18.984375 C 17.507812 -16.085938 19.890625 -13.867188 23.109375 -12.328125 C 25.628906 -11.066406 28.113281 -10.328125 30.5625 -10.109375 C 33.019531 -9.898438 35.378906 -10.003906 37.640625 -10.421875 C 39.898438 -10.847656 42.0625 -11.410156 44.125 -12.109375 C 44.726562 -12.296875 45.390625 -12.492188 46.109375 -12.703125 C 46.835938 -12.921875 47.53125 -13.078125 48.1875 -13.171875 C 50.425781 -13.398438 52.128906 -12.648438 53.296875 -10.921875 Z M 53.296875 -10.921875 "/></g></g></g><g fill="#518ac0" fill-opacity="1"><g transform="translate(79.55457, 196.099603)"><g><path d="M 36 -14 C 36.46875 -11.90625 36.488281 -10.144531 36.0625 -8.71875 C 35.644531 -7.289062 34.757812 -6.300781 33.40625 -5.75 C 31.957031 -5.132812 30.53125 -5.140625 29.125 -5.765625 C 27.726562 -6.398438 26.425781 -7.609375 25.21875 -9.390625 C 25.125 -9.523438 25.003906 -9.671875 24.859375 -9.828125 C 24.722656 -9.992188 24.582031 -10.195312 24.4375 -10.4375 C 24.0625 -10.195312 23.722656 -9.945312 23.421875 -9.6875 C 23.117188 -9.4375 22.78125 -9.21875 22.40625 -9.03125 C 21.425781 -8.5625 20.445312 -8.054688 19.46875 -7.515625 C 18.488281 -6.984375 17.460938 -6.601562 16.390625 -6.375 C 13.773438 -5.71875 11.378906 -5.832031 9.203125 -6.71875 C 7.035156 -7.601562 5.34375 -9.050781 4.125 -11.0625 C 2.914062 -13.070312 2.425781 -15.429688 2.65625 -18.140625 C 2.800781 -20.328125 3.375 -22.472656 4.375 -24.578125 C 5.375 -26.679688 6.65625 -28.628906 8.21875 -30.421875 C 9.789062 -32.222656 11.554688 -33.726562 13.515625 -34.9375 C 15.472656 -36.15625 17.476562 -36.925781 19.53125 -37.25 C 21.875 -37.675781 23.988281 -37.429688 25.875 -36.515625 C 27.769531 -35.609375 29.578125 -34.5 31.296875 -33.1875 C 31.859375 -32.769531 32.269531 -32.117188 32.53125 -31.234375 C 32.789062 -30.347656 32.988281 -29.507812 33.125 -28.71875 C 33.6875 -26.289062 34.175781 -23.835938 34.59375 -21.359375 C 35.007812 -18.878906 35.476562 -16.425781 36 -14 Z M 15.75 -16.53125 C 17.90625 -17.363281 19.539062 -18.925781 20.65625 -21.21875 C 21.78125 -23.507812 22.109375 -25.984375 21.640625 -28.640625 C 19.304688 -27.703125 17.472656 -26.378906 16.140625 -24.671875 C 14.804688 -22.972656 13.742188 -21.03125 12.953125 -18.84375 C 12.859375 -18.507812 12.8125 -18.0625 12.8125 -17.5 C 12.8125 -16.945312 12.90625 -16.625 13.09375 -16.53125 C 13.46875 -16.34375 13.898438 -16.25 14.390625 -16.25 C 14.878906 -16.25 15.332031 -16.34375 15.75 -16.53125 Z M 15.75 -16.53125 "/></g></g></g><g fill="#518ac0" fill-opacity="1"><g transform="translate(118.558227, 196.099603)"><g><path d="M 31.4375 -27.796875 C 31.625 -27.148438 31.660156 -26.394531 31.546875 -25.53125 C 31.429688 -24.664062 31.164062 -24 30.75 -23.53125 C 30.375 -23.0625 29.773438 -22.742188 28.953125 -22.578125 C 28.140625 -22.421875 27.382812 -22.363281 26.6875 -22.40625 C 25.976562 -22.457031 25.273438 -22.65625 24.578125 -23 C 23.878906 -23.351562 23.203125 -23.691406 22.546875 -24.015625 C 21.617188 -24.484375 20.800781 -24.613281 20.09375 -24.40625 C 19.394531 -24.195312 18.90625 -23.648438 18.625 -22.765625 C 17.457031 -19.535156 16.5 -16.21875 15.75 -12.8125 C 15.570312 -12.0625 15.539062 -11.28125 15.65625 -10.46875 C 15.769531 -9.65625 15.78125 -8.847656 15.6875 -8.046875 C 15.550781 -6.328125 14.910156 -4.914062 13.765625 -3.8125 C 12.617188 -2.71875 11.253906 -2.125 9.671875 -2.03125 C 8.035156 -1.9375 6.609375 -2.367188 5.390625 -3.328125 C 4.179688 -4.285156 3.363281 -5.601562 2.9375 -7.28125 C 2.84375 -7.695312 2.757812 -8.113281 2.6875 -8.53125 C 2.625 -8.957031 2.59375 -9.40625 2.59375 -9.875 C 2.632812 -14.03125 2.664062 -18.195312 2.6875 -22.375 C 2.71875 -26.550781 2.753906 -30.71875 2.796875 -34.875 C 2.796875 -35.289062 2.816406 -35.742188 2.859375 -36.234375 C 2.910156 -36.722656 3.078125 -37.109375 3.359375 -37.390625 C 3.828125 -37.953125 4.351562 -38.546875 4.9375 -39.171875 C 5.519531 -39.804688 6.113281 -40.148438 6.71875 -40.203125 C 7.332031 -40.242188 8 -40.039062 8.71875 -39.59375 C 9.4375 -39.15625 10.054688 -38.65625 10.578125 -38.09375 C 10.992188 -37.625 11.304688 -37.023438 11.515625 -36.296875 C 11.722656 -35.578125 11.96875 -34.847656 12.25 -34.109375 C 16.738281 -36.535156 21.175781 -36.628906 25.5625 -34.390625 C 27.007812 -33.679688 28.242188 -32.789062 29.265625 -31.71875 C 30.296875 -30.644531 31.019531 -29.335938 31.4375 -27.796875 Z M 31.4375 -27.796875 "/></g></g></g><g fill="#518ac0" fill-opacity="1"><g transform="translate(152.80021, 196.099603)"><g><path d="M 30.1875 -33.890625 C 31.957031 -32.066406 32.984375 -30.09375 33.265625 -27.96875 C 33.546875 -25.851562 33.125 -23.894531 32 -22.09375 C 30.882812 -20.300781 29.132812 -18.984375 26.75 -18.140625 C 24.832031 -17.484375 22.832031 -17.023438 20.75 -16.765625 C 18.675781 -16.515625 16.546875 -16.175781 14.359375 -15.75 C 15.015625 -15.570312 15.644531 -15.375 16.25 -15.15625 C 16.851562 -14.945312 17.457031 -14.796875 18.0625 -14.703125 C 19.28125 -14.472656 20.503906 -14.296875 21.734375 -14.171875 C 22.972656 -14.054688 24.175781 -13.816406 25.34375 -13.453125 C 27.03125 -12.890625 28.046875 -11.941406 28.390625 -10.609375 C 28.742188 -9.273438 28.289062 -7.976562 27.03125 -6.71875 C 26.375 -6.019531 25.554688 -5.398438 24.578125 -4.859375 C 23.597656 -4.328125 22.640625 -4.015625 21.703125 -3.921875 C 17.410156 -3.503906 13.789062 -4.050781 10.84375 -5.5625 C 7.90625 -7.082031 5.734375 -9.242188 4.328125 -12.046875 C 2.929688 -14.847656 2.375 -17.972656 2.65625 -21.421875 C 2.84375 -23.578125 3.21875 -25.644531 3.78125 -27.625 C 4.34375 -29.613281 5.226562 -31.515625 6.4375 -33.328125 C 7.976562 -35.710938 9.960938 -37.429688 12.390625 -38.484375 C 14.816406 -39.535156 17.429688 -39.78125 20.234375 -39.21875 C 24.203125 -38.519531 27.519531 -36.742188 30.1875 -33.890625 Z M 24.015625 -27.171875 C 24.109375 -27.171875 24.210938 -27.203125 24.328125 -27.265625 C 24.453125 -27.335938 24.609375 -27.421875 24.796875 -27.515625 C 23.898438 -28.773438 22.785156 -29.675781 21.453125 -30.21875 C 20.128906 -30.757812 18.882812 -30.863281 17.71875 -30.53125 C 16.644531 -30.207031 15.847656 -29.660156 15.328125 -28.890625 C 14.816406 -28.117188 14.421875 -27.195312 14.140625 -26.125 C 15.867188 -26.3125 17.550781 -26.484375 19.1875 -26.640625 C 20.820312 -26.804688 22.429688 -26.984375 24.015625 -27.171875 Z M 24.015625 -27.171875 "/></g></g></g><g fill="#b0d2f2" fill-opacity="1"><g transform="translate(193.278196, 196.099603)"><g><path d="M 52.453125 -50.140625 C 52.734375 -48.742188 52.875 -47.25 52.875 -45.65625 L 52.734375 -39.921875 C 52.640625 -35.484375 52.546875 -30.988281 52.453125 -26.4375 C 52.359375 -21.882812 52.21875 -17.34375 52.03125 -12.8125 C 51.894531 -7.957031 50.472656 -4.785156 47.765625 -3.296875 C 45.148438 -1.847656 41.785156 -2.289062 37.671875 -4.625 C 35.578125 -5.832031 33.648438 -7.289062 31.890625 -9 C 30.140625 -10.707031 28.707031 -12.238281 27.59375 -13.59375 C 26.1875 -15.175781 24.851562 -16.84375 23.59375 -18.59375 C 22.332031 -20.34375 21.097656 -22.082031 19.890625 -23.8125 C 19.378906 -24.507812 18.875 -25.207031 18.375 -25.90625 C 17.882812 -26.613281 17.382812 -27.316406 16.875 -28.015625 L 16.59375 -28.5 C 16.3125 -28.875 16.007812 -29.257812 15.6875 -29.65625 C 15.363281 -30.050781 14.941406 -30.4375 14.421875 -30.8125 L 13.234375 -31.71875 L 13.234375 -29.484375 C 13.234375 -29.203125 13.234375 -28.929688 13.234375 -28.671875 C 13.234375 -28.421875 13.234375 -28.15625 13.234375 -27.875 L 13.03125 -23.328125 C 12.9375 -20.429688 12.84375 -17.5 12.75 -14.53125 C 12.65625 -11.5625 12.535156 -8.632812 12.390625 -5.75 C 12.347656 -4.664062 12.046875 -3.585938 11.484375 -2.515625 C 10.785156 -1.066406 9.804688 -0.320312 8.546875 -0.28125 C 7.328125 -0.1875 6.320312 -0.816406 5.53125 -2.171875 C 4.78125 -3.296875 4.359375 -4.394531 4.265625 -5.46875 C 3.378906 -12.789062 2.84375 -19.535156 2.65625 -25.703125 C 2.46875 -31.867188 2.632812 -37.773438 3.15625 -43.421875 C 3.195312 -44.398438 3.453125 -45.425781 3.921875 -46.5 C 4.671875 -48.414062 5.910156 -49.675781 7.640625 -50.28125 C 8.285156 -50.46875 8.914062 -50.5625 9.53125 -50.5625 C 10.644531 -50.5625 11.71875 -50.257812 12.75 -49.65625 C 14.238281 -48.8125 15.5 -47.738281 16.53125 -46.4375 C 17.695312 -44.9375 18.863281 -43.414062 20.03125 -41.875 C 21.195312 -40.332031 22.335938 -38.816406 23.453125 -37.328125 C 24.109375 -36.484375 24.75 -35.640625 25.375 -34.796875 C 26.007812 -33.960938 26.65625 -33.125 27.3125 -32.28125 C 28.4375 -30.789062 29.554688 -29.320312 30.671875 -27.875 C 31.796875 -26.425781 32.914062 -24.953125 34.03125 -23.453125 L 37.46875 -19.046875 L 39.28125 -19.75 L 39.359375 -21.015625 C 39.398438 -21.285156 39.421875 -21.5625 39.421875 -21.84375 C 39.421875 -22.125 39.445312 -22.40625 39.5 -22.6875 C 39.5 -23.757812 39.519531 -24.832031 39.5625 -25.90625 C 39.613281 -26.976562 39.640625 -28.054688 39.640625 -29.140625 C 39.734375 -31.796875 39.828125 -34.476562 39.921875 -37.1875 C 40.015625 -39.894531 40.109375 -42.601562 40.203125 -45.3125 C 40.335938 -47.363281 40.78125 -49.367188 41.53125 -51.328125 C 42.039062 -52.585938 42.84375 -53.546875 43.9375 -54.203125 C 45.039062 -54.859375 46.242188 -55.113281 47.546875 -54.96875 C 48.765625 -54.832031 49.828125 -54.320312 50.734375 -53.4375 C 51.648438 -52.550781 52.222656 -51.453125 52.453125 -50.140625 Z M 52.453125 -50.140625 "/></g></g></g><g fill="#b0d2f2" fill-opacity="1"><g transform="translate(248.807641, 196.099603)"><g><path d="M 30.1875 -33.890625 C 31.957031 -32.066406 32.984375 -30.09375 33.265625 -27.96875 C 33.546875 -25.851562 33.125 -23.894531 32 -22.09375 C 30.882812 -20.300781 29.132812 -18.984375 26.75 -18.140625 C 24.832031 -17.484375 22.832031 -17.023438 20.75 -16.765625 C 18.675781 -16.515625 16.546875 -16.175781 14.359375 -15.75 C 15.015625 -15.570312 15.644531 -15.375 16.25 -15.15625 C 16.851562 -14.945312 17.457031 -14.796875 18.0625 -14.703125 C 19.28125 -14.472656 20.503906 -14.296875 21.734375 -14.171875 C 22.972656 -14.054688 24.175781 -13.816406 25.34375 -13.453125 C 27.03125 -12.890625 28.046875 -11.941406 28.390625 -10.609375 C 28.742188 -9.273438 28.289062 -7.976562 27.03125 -6.71875 C 26.375 -6.019531 25.554688 -5.398438 24.578125 -4.859375 C 23.597656 -4.328125 22.640625 -4.015625 21.703125 -3.921875 C 17.410156 -3.503906 13.789062 -4.050781 10.84375 -5.5625 C 7.90625 -7.082031 5.734375 -9.242188 4.328125 -12.046875 C 2.929688 -14.847656 2.375 -17.972656 2.65625 -21.421875 C 2.84375 -23.578125 3.21875 -25.644531 3.78125 -27.625 C 4.34375 -29.613281 5.226562 -31.515625 6.4375 -33.328125 C 7.976562 -35.710938 9.960938 -37.429688 12.390625 -38.484375 C 14.816406 -39.535156 17.429688 -39.78125 20.234375 -39.21875 C 24.203125 -38.519531 27.519531 -36.742188 30.1875 -33.890625 Z M 24.015625 -27.171875 C 24.109375 -27.171875 24.210938 -27.203125 24.328125 -27.265625 C 24.453125 -27.335938 24.609375 -27.421875 24.796875 -27.515625 C 23.898438 -28.773438 22.785156 -29.675781 21.453125 -30.21875 C 20.128906 -30.757812 18.882812 -30.863281 17.71875 -30.53125 C 16.644531 -30.207031 15.847656 -29.660156 15.328125 -28.890625 C 14.816406 -28.117188 14.421875 -27.195312 14.140625 -26.125 C 15.867188 -26.3125 17.550781 -26.484375 19.1875 -26.640625 C 20.820312 -26.804688 22.429688 -26.984375 24.015625 -27.171875 Z M 24.015625 -27.171875 "/></g></g></g><g fill="#b0d2f2" fill-opacity="1"><g transform="translate(284.800243, 196.099603)"><g><path d="M 26.6875 -20.3125 C 28.832031 -18.300781 30.09375 -16.160156 30.46875 -13.890625 C 30.84375 -11.628906 30.410156 -9.519531 29.171875 -7.5625 C 27.929688 -5.601562 25.9375 -4.109375 23.1875 -3.078125 C 21.875 -2.566406 20.492188 -2.160156 19.046875 -1.859375 C 17.597656 -1.554688 16.195312 -1.453125 14.84375 -1.546875 C 13.582031 -1.640625 12.3125 -1.929688 11.03125 -2.421875 C 9.75 -2.910156 8.546875 -3.503906 7.421875 -4.203125 C 6.117188 -5.046875 5.289062 -6.15625 4.9375 -7.53125 C 4.582031 -8.90625 4.664062 -10.175781 5.1875 -11.34375 C 5.695312 -12.46875 6.546875 -13.285156 7.734375 -13.796875 C 8.929688 -14.304688 10.320312 -14.46875 11.90625 -14.28125 C 13.03125 -14.144531 14.140625 -14.03125 15.234375 -13.9375 C 16.328125 -13.84375 17.410156 -13.75 18.484375 -13.65625 C 18.535156 -13.789062 18.582031 -13.925781 18.625 -14.0625 C 18.675781 -14.207031 18.722656 -14.375 18.765625 -14.5625 C 17.921875 -14.84375 17.066406 -15.125 16.203125 -15.40625 C 15.347656 -15.6875 14.519531 -16.015625 13.71875 -16.390625 C 12.320312 -17.085938 10.921875 -17.765625 9.515625 -18.421875 C 8.117188 -19.078125 6.863281 -19.894531 5.75 -20.875 C 3.925781 -22.414062 2.894531 -24.234375 2.65625 -26.328125 C 2.425781 -28.429688 2.847656 -30.535156 3.921875 -32.640625 C 4.992188 -34.691406 6.554688 -36.394531 8.609375 -37.75 C 10.660156 -39.101562 12.890625 -40.007812 15.296875 -40.46875 C 17.703125 -40.9375 20.003906 -40.820312 22.203125 -40.125 C 23.878906 -39.613281 25.253906 -38.804688 26.328125 -37.703125 C 27.398438 -36.609375 28.03125 -35.195312 28.21875 -33.46875 C 28.3125 -32.769531 28.226562 -32.023438 27.96875 -31.234375 C 27.71875 -30.441406 27.359375 -29.765625 26.890625 -29.203125 C 26.328125 -28.503906 25.648438 -28.25 24.859375 -28.4375 C 24.066406 -28.625 23.296875 -28.898438 22.546875 -29.265625 C 20.867188 -30.203125 19.363281 -30.550781 18.03125 -30.3125 C 16.695312 -30.082031 15.398438 -29.222656 14.140625 -27.734375 C 14.753906 -27.453125 15.316406 -27.191406 15.828125 -26.953125 C 16.335938 -26.722656 16.828125 -26.46875 17.296875 -26.1875 C 18.878906 -25.257812 20.507812 -24.347656 22.1875 -23.453125 C 23.875 -22.566406 25.375 -21.519531 26.6875 -20.3125 Z M 26.6875 -20.3125 "/></g></g></g><g fill="#b0d2f2" fill-opacity="1"><g transform="translate(318.061877, 196.099603)"><g><path d="M 29.265625 -12.1875 C 29.640625 -11.113281 29.664062 -10.128906 29.34375 -9.234375 C 29.019531 -8.347656 28.457031 -7.535156 27.65625 -6.796875 C 26.488281 -5.722656 25.019531 -5 23.25 -4.625 C 21.476562 -4.25 19.65625 -4.210938 17.78125 -4.515625 C 15.914062 -4.816406 14.304688 -5.503906 12.953125 -6.578125 C 9.679688 -9.054688 7.835938 -12.347656 7.421875 -16.453125 C 7.234375 -17.859375 7.113281 -19.285156 7.0625 -20.734375 C 7.019531 -22.179688 6.976562 -23.601562 6.9375 -25 C 6.9375 -25.695312 6.828125 -26.265625 6.609375 -26.703125 C 6.398438 -27.148438 5.972656 -27.492188 5.328125 -27.734375 C 4.390625 -28.109375 3.648438 -28.644531 3.109375 -29.34375 C 2.578125 -30.039062 2.453125 -30.859375 2.734375 -31.796875 C 2.960938 -32.492188 3.367188 -33.179688 3.953125 -33.859375 C 4.535156 -34.535156 5.15625 -34.988281 5.8125 -35.21875 C 6.65625 -35.59375 7.296875 -36.015625 7.734375 -36.484375 C 8.179688 -36.953125 8.425781 -37.65625 8.46875 -38.59375 C 8.519531 -39.425781 8.625 -40.25 8.78125 -41.0625 C 8.945312 -41.882812 9.101562 -42.71875 9.25 -43.5625 C 9.757812 -46.40625 10.992188 -47.804688 12.953125 -47.765625 C 14.960938 -47.710938 16.175781 -46.265625 16.59375 -43.421875 C 16.738281 -42.441406 16.820312 -41.445312 16.84375 -40.4375 C 16.863281 -39.4375 16.875 -38.445312 16.875 -37.46875 C 16.875 -36.15625 17.53125 -35.476562 18.84375 -35.4375 C 19.675781 -35.382812 20.515625 -35.320312 21.359375 -35.25 C 22.203125 -35.1875 23.019531 -35.0625 23.8125 -34.875 C 25.113281 -34.550781 26.113281 -33.882812 26.8125 -32.875 C 27.519531 -31.875 27.828125 -30.789062 27.734375 -29.625 C 27.640625 -28.40625 27.148438 -27.363281 26.265625 -26.5 C 25.378906 -25.644531 24.28125 -25.171875 22.96875 -25.078125 C 22.03125 -24.984375 21.0625 -24.945312 20.0625 -24.96875 C 19.0625 -24.988281 17.90625 -25 16.59375 -25 C 16.78125 -23.601562 16.941406 -22.191406 17.078125 -20.765625 C 17.222656 -19.335938 17.410156 -17.925781 17.640625 -16.53125 C 17.828125 -15.6875 18.234375 -15.078125 18.859375 -14.703125 C 19.492188 -14.328125 20.234375 -14.1875 21.078125 -14.28125 C 21.640625 -14.375 22.1875 -14.476562 22.71875 -14.59375 C 23.257812 -14.71875 23.8125 -14.800781 24.375 -14.84375 C 25.445312 -14.9375 26.414062 -14.785156 27.28125 -14.390625 C 28.144531 -13.992188 28.804688 -13.257812 29.265625 -12.1875 Z M 29.265625 -12.1875 "/></g></g></g></svg>